<svg width="285" height="285" viewBox="0 0 285 285" fill="none" xmlns="http://www.w3.org/2000/svg">
<g clip-path="url(#clip0_178_2001)">
<path d="M142.5 285C221.201 285 285 221.201 285 142.5C285 63.7994 221.201 0 142.5 0C63.7994 0 0 63.7994 0 142.5C0 221.201 63.7994 285 142.5 285Z" fill="#497EFA"/>
<mask id="mask0_178_2001" style="mask-type:alpha" maskUnits="userSpaceOnUse" x="0" y="0" width="285" height="285">
<path d="M142.5 285C221.201 285 285 221.201 285 142.5C285 63.7994 221.201 0 142.5 0C63.7994 0 0 63.7994 0 142.5C0 221.201 63.7994 285 142.5 285Z" fill="white"/>
</mask>
<g mask="url(#mask0_178_2001)">
<path d="M200.879 165.933C205.076 165.933 208.479 169.336 208.479 173.533C208.479 177.73 205.076 181.133 200.879 181.133H154.645C150.448 181.133 147.045 177.73 147.045 173.533C147.045 169.336 150.448 165.933 154.645 165.933H200.879ZM19.1119 165.933C23.3096 165.933 26.7119 169.336 26.7119 173.533C26.7119 177.73 23.3096 181.133 19.1119 181.133H-27.1214C-31.3185 181.133 -34.7214 177.73 -34.7214 173.533C-34.7214 169.336 -31.3185 165.933 -27.1214 165.933H19.1119ZM360.479 165.933C364.676 165.933 368.079 169.336 368.079 173.533C368.079 177.73 364.676 181.133 360.479 181.133H255.345C251.148 181.133 247.745 177.73 247.745 173.533C247.745 169.336 251.148 165.933 255.345 165.933H360.479ZM148.945 105.133C153.143 105.133 156.545 108.536 156.545 112.733C156.545 116.93 153.143 120.333 148.945 120.333H99.5452V120.34C95.4951 120.506 92.2619 123.842 92.2619 127.933C92.2619 132.025 95.4951 135.361 99.5452 135.527V135.533H200.879C205.076 135.533 208.479 138.936 208.479 143.133C208.479 147.33 205.076 150.733 200.879 150.733H38.1119C33.9148 150.733 30.5119 147.33 30.5119 143.133C30.5119 138.936 33.9148 135.533 38.1119 135.533H69.1452C73.343 135.533 76.7452 132.13 76.7452 127.933C76.7452 123.736 73.343 120.333 69.1452 120.333H50.1452C45.9481 120.333 42.5452 116.93 42.5452 112.733C42.5452 108.536 45.9481 105.133 50.1452 105.133H148.945ZM255.345 127.933C255.345 123.736 251.943 120.333 247.745 120.333H194.545C190.348 120.333 186.945 116.93 186.945 112.733C186.945 108.536 190.348 105.133 194.545 105.133H293.345C297.543 105.133 300.945 108.536 300.945 112.733C300.945 116.93 297.543 120.333 293.345 120.333H278.145V120.34C274.095 120.506 270.862 123.842 270.862 127.933C270.862 132.025 274.095 135.361 278.145 135.527V135.533H404.812C409.01 135.533 412.412 138.936 412.412 143.133C412.412 147.33 409.01 150.733 404.812 150.733H242.045C237.848 150.733 234.445 147.33 234.445 143.133C234.445 138.936 237.848 135.533 242.045 135.533H247.745C251.943 135.533 255.345 132.13 255.345 127.933ZM9.61191 105.133C13.8096 105.133 17.2119 108.536 17.2119 112.733C17.2119 116.93 13.8096 120.333 9.61191 120.333H-89.1881C-93.3852 120.333 -96.7881 116.93 -96.7881 112.733C-96.7881 108.536 -93.3852 105.133 -89.1881 105.133H9.61191ZM428.879 105.133C433.076 105.133 436.479 108.536 436.479 112.733C436.479 116.93 433.076 120.333 428.879 120.333H330.079C325.881 120.333 322.479 116.93 322.479 112.733C322.479 108.536 325.881 105.133 330.079 105.133H428.879Z" fill="#356CEE"/>
</g>
<mask id="mask1_178_2001" style="mask-type:alpha" maskUnits="userSpaceOnUse" x="0" y="0" width="285" height="285">
<path d="M142.5 285C221.201 285 285 221.201 285 142.5C285 63.7994 221.201 0 142.5 0C63.7994 0 0 63.7994 0 142.5C0 221.201 63.7994 285 142.5 285Z" fill="white"/>
</mask>
<g mask="url(#mask1_178_2001)">
<path opacity="0.4" d="M200.879 74.7331C205.076 74.7331 208.479 78.136 208.479 82.3331C208.479 86.5302 205.076 89.9331 200.879 89.9331H154.645C150.448 89.9331 147.045 86.5302 147.045 82.3331C147.045 78.136 150.448 74.7331 154.645 74.7331H200.879ZM19.1119 74.7331C23.3096 74.7331 26.7119 78.136 26.7119 82.3331C26.7119 86.5302 23.3096 89.9331 19.1119 89.9331H-27.1214C-31.3185 89.9331 -34.7214 86.5302 -34.7214 82.3331C-34.7214 78.136 -31.3185 74.7331 -27.1214 74.7331H19.1119ZM360.479 74.7331C364.676 74.7331 368.079 78.136 368.079 82.3331C368.079 86.5302 364.676 89.9331 360.479 89.9331H255.345C251.148 89.9331 247.745 86.5302 247.745 82.3331C247.745 78.136 251.148 74.7331 255.345 74.7331H360.479ZM148.945 13.9331C153.143 13.9331 156.545 17.336 156.545 21.5331C156.545 25.7302 153.143 29.1331 148.945 29.1331H99.5452V29.1394C95.4951 29.3054 92.2619 32.6418 92.2619 36.7331C92.2619 40.8244 95.4951 44.1608 99.5452 44.3268V44.3331H200.879C205.076 44.3331 208.479 47.736 208.479 51.9331C208.479 56.1302 205.076 59.5331 200.879 59.5331H38.1119C33.9148 59.5331 30.5119 56.1302 30.5119 51.9331C30.5119 47.736 33.9148 44.3331 38.1119 44.3331H69.1452C73.343 44.3331 76.7452 40.9302 76.7452 36.7331C76.7452 32.536 73.343 29.1331 69.1452 29.1331H50.1452C45.9481 29.1331 42.5452 25.7302 42.5452 21.5331C42.5452 17.336 45.9481 13.9331 50.1452 13.9331H148.945ZM255.345 36.7331C255.345 32.536 251.943 29.1331 247.745 29.1331H194.545C190.348 29.1331 186.945 25.7302 186.945 21.5331C186.945 17.336 190.348 13.9331 194.545 13.9331H293.345C297.543 13.9331 300.945 17.336 300.945 21.5331C300.945 25.7302 297.543 29.1331 293.345 29.1331H278.145V29.1394C274.095 29.3054 270.862 32.6418 270.862 36.7331C270.862 40.8244 274.095 44.1608 278.145 44.3268V44.3331H404.812C409.01 44.3331 412.412 47.736 412.412 51.9331C412.412 56.1302 409.01 59.5331 404.812 59.5331H242.045C237.848 59.5331 234.445 56.1302 234.445 51.9331C234.445 47.736 237.848 44.3331 242.045 44.3331H247.745C251.943 44.3331 255.345 40.9302 255.345 36.7331ZM9.61191 13.9331C13.8096 13.9331 17.2119 17.336 17.2119 21.5331C17.2119 25.7302 13.8096 29.1331 9.61191 29.1331H-89.1881C-93.3852 29.1331 -96.7881 25.7302 -96.7881 21.5331C-96.7881 17.336 -93.3852 13.9331 -89.1881 13.9331H9.61191ZM428.879 13.9331C433.076 13.9331 436.479 17.336 436.479 21.5331C436.479 25.7302 433.076 29.1331 428.879 29.1331H330.079C325.881 29.1331 322.479 25.7302 322.479 21.5331C322.479 17.336 325.881 13.9331 330.079 13.9331H428.879Z" fill="#356CEE"/>
</g>
<mask id="mask2_178_2001" style="mask-type:alpha" maskUnits="userSpaceOnUse" x="0" y="0" width="285" height="285">
<path d="M142.5 285C221.201 285 285 221.201 285 142.5C285 63.7994 221.201 0 142.5 0C63.7994 0 0 63.7994 0 142.5C0 221.201 63.7994 285 142.5 285Z" fill="white"/>
</mask>
<g mask="url(#mask2_178_2001)">
<path opacity="0.4" d="M200.879 272.333C205.076 272.333 208.479 275.736 208.479 279.933C208.479 284.13 205.076 287.533 200.879 287.533H154.645C150.448 287.533 147.045 284.13 147.045 279.933C147.045 275.736 150.448 272.333 154.645 272.333H200.879ZM19.1119 272.333C23.3096 272.333 26.7119 275.736 26.7119 279.933C26.7119 284.13 23.3096 287.533 19.1119 287.533H-27.1214C-31.3185 287.533 -34.7214 284.13 -34.7214 279.933C-34.7214 275.736 -31.3185 272.333 -27.1214 272.333H19.1119ZM360.479 272.333C364.676 272.333 368.079 275.736 368.079 279.933C368.079 284.13 364.676 287.533 360.479 287.533H255.345C251.148 287.533 247.745 284.13 247.745 279.933C247.745 275.736 251.148 272.333 255.345 272.333H360.479ZM148.945 211.533C153.143 211.533 156.545 214.936 156.545 219.133C156.545 223.33 153.143 226.733 148.945 226.733H99.5452V226.74C95.4951 226.905 92.2619 230.242 92.2619 234.333C92.2619 238.425 95.4951 241.761 99.5452 241.927V241.933H200.879C205.076 241.933 208.479 245.336 208.479 249.533C208.479 253.73 205.076 257.133 200.879 257.133H38.1119C33.9148 257.133 30.5119 253.73 30.5119 249.533C30.5119 245.336 33.9148 241.933 38.1119 241.933H69.1452C73.343 241.933 76.7452 238.53 76.7452 234.333C76.7452 230.136 73.343 226.733 69.1452 226.733H50.1452C45.9481 226.733 42.5452 223.33 42.5452 219.133C42.5452 214.936 45.9481 211.533 50.1452 211.533H148.945ZM255.345 234.333C255.345 230.136 251.943 226.733 247.745 226.733H194.545C190.348 226.733 186.945 223.33 186.945 219.133C186.945 214.936 190.348 211.533 194.545 211.533H293.345C297.543 211.533 300.945 214.936 300.945 219.133C300.945 223.33 297.543 226.733 293.345 226.733H278.145V226.74C274.095 226.905 270.862 230.242 270.862 234.333C270.862 238.425 274.095 241.761 278.145 241.927V241.933H404.812C409.01 241.933 412.412 245.336 412.412 249.533C412.412 253.73 409.01 257.133 404.812 257.133H242.045C237.848 257.133 234.445 253.73 234.445 249.533C234.445 245.336 237.848 241.933 242.045 241.933H247.745C251.943 241.933 255.345 238.53 255.345 234.333ZM9.61191 211.533C13.8096 211.533 17.2119 214.936 17.2119 219.133C17.2119 223.33 13.8096 226.733 9.61191 226.733H-89.1881C-93.3852 226.733 -96.7881 223.33 -96.7881 219.133C-96.7881 214.936 -93.3852 211.533 -89.1881 211.533H9.61191ZM428.879 211.533C433.076 211.533 436.479 214.936 436.479 219.133C436.479 223.33 433.076 226.733 428.879 226.733H330.079C325.881 226.733 322.479 223.33 322.479 219.133C322.479 214.936 325.881 211.533 330.079 211.533H428.879Z" fill="#356CEE"/>
</g>
<mask id="mask3_178_2001" style="mask-type:alpha" maskUnits="userSpaceOnUse" x="0" y="0" width="285" height="285">
<path d="M142.5 285C221.201 285 285 221.201 285 142.5C285 63.7994 221.201 0 142.5 0C63.7994 0 0 63.7994 0 142.5C0 221.201 63.7994 285 142.5 285Z" fill="white"/>
</mask>
<g mask="url(#mask3_178_2001)">
<path d="M93.8456 173.533C93.8456 169.336 90.4434 165.933 86.2456 165.933H74.2123C70.0152 165.933 66.6123 162.53 66.6123 158.333C66.6123 154.136 70.0152 150.733 74.2123 150.733H124.246C128.443 150.733 131.846 154.136 131.846 158.333C131.846 162.53 128.443 165.933 124.246 165.933H122.346V165.94C118.295 166.106 115.062 169.442 115.062 173.533C115.062 177.625 118.295 180.961 122.346 181.127V181.133H124.246C128.443 181.133 131.846 184.536 131.846 188.733C131.846 192.93 128.443 196.333 124.246 196.333H85.6123C81.4152 196.333 78.0123 192.93 78.0123 188.733C78.0123 184.536 81.4152 181.133 85.6123 181.133H86.2456C90.4434 181.133 93.8456 177.73 93.8456 173.533Z" fill="#2255CA"/>
</g>
<mask id="mask4_178_2001" style="mask-type:alpha" maskUnits="userSpaceOnUse" x="0" y="0" width="285" height="285">
<path d="M142.5 285C221.201 285 285 221.201 285 142.5C285 63.7994 221.201 0 142.5 0C63.7994 0 0 63.7994 0 142.5C0 221.201 63.7994 285 142.5 285Z" fill="white"/>
</mask>
<g mask="url(#mask4_178_2001)">
<path opacity="0.078" d="M142.5 6.9668H278.891V278.033H142.5V6.9668Z" fill="black"/>
</g>
</g>
<defs>
<clipPath id="clip0_178_2001">
<rect width="285" height="285" fill="white"/>
</clipPath>
</defs>
</svg>
