<svg width="224" height="224" viewBox="0 0 224 224" fill="none" xmlns="http://www.w3.org/2000/svg">
<g clip-path="url(#clip0_178_2365)">
<path d="M112 224C173.856 224 224 173.856 224 112C224 50.1441 173.856 0 112 0C50.1441 0 0 50.1441 0 112C0 173.856 50.1441 224 112 224Z" fill="#ECAD7A"/>
<mask id="mask0_178_2365" style="mask-type:alpha" maskUnits="userSpaceOnUse" x="0" y="0" width="224" height="224">
<path d="M112 224C173.856 224 224 173.856 224 112C224 50.1441 173.856 0 112 0C50.1441 0 0 50.1441 0 112C0 173.856 50.1441 224 112 224Z" fill="white"/>
</mask>
<g mask="url(#mask0_178_2365)">
<path fill-rule="evenodd" clip-rule="evenodd" d="M14.6256 113.155C17.1762 113.155 19.2442 115.223 19.2442 117.773C19.2442 120.324 17.1762 122.392 14.6256 122.392H-45.4156C-47.9662 122.392 -50.0342 120.324 -50.0342 117.773C-50.0342 115.223 -47.9662 113.155 -45.4156 113.155H14.6256ZM99.2991 113.155C101.85 113.155 103.918 115.223 103.918 117.773C103.918 120.324 101.85 122.392 99.2991 122.392H69.2785V122.396C66.8172 122.497 64.8524 124.524 64.8524 127.01C64.8524 129.497 66.8172 131.524 69.2785 131.625V131.629H130.859C133.41 131.629 135.478 133.697 135.478 136.248C135.478 138.798 133.41 140.866 130.859 140.866H31.9452C29.3946 140.866 27.3266 138.798 27.3266 136.248C27.3266 133.697 29.3946 131.629 31.9452 131.629H50.8043C53.3549 131.629 55.4229 129.561 55.4229 127.01C55.4229 124.46 53.3549 122.392 50.8043 122.392H39.2579C36.7073 122.392 34.6394 120.324 34.6394 117.773C34.6394 115.223 36.7073 113.155 39.2579 113.155H99.2991ZM20.3988 150.103C22.9494 150.103 25.0174 152.171 25.0174 154.722C25.0174 157.272 22.9494 159.34 20.3988 159.34H-7.69741C-10.248 159.34 -12.316 157.272 -12.316 154.722C-12.316 152.171 -10.248 150.103 -7.69741 150.103H20.3988ZM130.859 150.103C133.41 150.103 135.478 152.171 135.478 154.722C135.478 157.272 133.41 159.34 130.859 159.34H102.763C100.212 159.34 98.1445 157.272 98.1445 154.722C98.1445 152.171 100.212 150.103 102.763 150.103H130.859ZM232.468 154.722C232.468 152.171 230.4 150.103 227.849 150.103H163.959C161.408 150.103 159.34 152.171 159.34 154.722C159.34 157.272 161.408 159.34 163.959 159.34H227.849C230.4 159.34 232.468 157.272 232.468 154.722ZM159.34 122.392C161.891 122.392 163.959 124.46 163.959 127.01C163.959 129.561 161.891 131.629 159.34 131.629H155.876C153.326 131.629 151.258 133.697 151.258 136.248C151.258 138.798 153.326 140.866 155.876 140.866H254.791C257.341 140.866 259.409 138.798 259.409 136.248C259.409 133.697 257.341 131.629 254.791 131.629H177.815V131.625C175.353 131.524 173.388 129.497 173.388 127.01C173.388 124.524 175.353 122.497 177.815 122.396V122.392H187.052C189.602 122.392 191.67 120.324 191.67 117.773C191.67 115.223 189.602 113.155 187.052 113.155H127.01C124.46 113.155 122.392 115.223 122.392 117.773C122.392 120.324 124.46 122.392 127.01 122.392H159.34ZM274.035 117.773C274.035 115.223 271.967 113.155 269.416 113.155H209.375C206.824 113.155 204.756 115.223 204.756 117.773C204.756 120.324 206.824 122.392 209.375 122.392H269.416C271.967 122.392 274.035 120.324 274.035 117.773Z" fill="#F0D29F"/>
</g>
<mask id="mask1_178_2365" style="mask-type:alpha" maskUnits="userSpaceOnUse" x="0" y="0" width="224" height="224">
<path d="M112 224C173.856 224 224 173.856 224 112C224 50.1441 173.856 0 112 0C50.1441 0 0 50.1441 0 112C0 173.856 50.1441 224 112 224Z" fill="white"/>
</mask>
<g mask="url(#mask1_178_2365)">
<path d="M61.1955 154.722C61.1955 152.171 59.1275 150.103 56.5769 150.103H45.4154C42.8648 150.103 40.7969 148.035 40.7969 145.485C40.7969 142.934 42.8648 140.866 45.4154 140.866H84.2883C86.8389 140.866 88.9068 142.934 88.9068 145.485C88.9068 148.035 86.8389 150.103 84.2883 150.103H83.1336L83.1333 150.107C80.672 150.208 78.7075 152.236 78.7075 154.722C78.7075 157.208 80.672 159.235 83.1333 159.337L83.1336 159.34H84.2883C86.8389 159.34 88.9068 161.408 88.9068 163.959C88.9068 166.51 86.8389 168.578 84.2883 168.578H55.0374C52.4868 168.578 50.4189 166.51 50.4189 163.959C50.4189 161.408 52.4868 159.34 55.0374 159.34H56.5769C59.1275 159.34 61.1955 157.272 61.1955 154.722Z" fill="#D86534"/>
</g>
<mask id="mask2_178_2365" style="mask-type:alpha" maskUnits="userSpaceOnUse" x="0" y="0" width="224" height="224">
<path d="M112 224C173.856 224 224 173.856 224 112C224 50.1441 173.856 0 112 0C50.1441 0 0 50.1441 0 112C0 173.856 50.1441 224 112 224Z" fill="white"/>
</mask>
<g mask="url(#mask2_178_2365)">
<path fill-rule="evenodd" clip-rule="evenodd" d="M179.354 20.7837C176.804 20.7837 174.736 22.8517 174.736 25.4022C174.736 27.9528 176.804 30.0208 179.354 30.0208H239.395C241.946 30.0208 244.014 27.9528 244.014 25.4022C244.014 22.8517 241.946 20.7837 239.395 20.7837H179.354ZM94.6807 20.7837C92.1301 20.7837 90.0621 22.8517 90.0621 25.4022C90.0621 27.9528 92.1301 30.0208 94.6807 30.0208H124.701V30.0247C127.163 30.1255 129.127 32.153 129.127 34.6394C129.127 37.1257 127.163 39.1532 124.701 39.2541V39.2579H63.1206C60.57 39.2579 58.502 41.3259 58.502 43.8765C58.502 46.4271 60.57 48.495 63.1206 48.495H162.035C164.585 48.495 166.653 46.4271 166.653 43.8765C166.653 41.3259 164.585 39.2579 162.035 39.2579H143.176C140.625 39.2579 138.557 37.19 138.557 34.6394C138.557 32.0888 140.625 30.0208 143.176 30.0208H154.722C157.273 30.0208 159.34 27.9528 159.34 25.4022C159.34 22.8517 157.273 20.7837 154.722 20.7837H94.6807ZM173.581 57.7321C171.03 57.7321 168.962 59.8001 168.962 62.3507C168.962 64.9013 171.03 66.9693 173.581 66.9693H201.677C204.228 66.9693 206.296 64.9013 206.296 62.3507C206.296 59.8001 204.228 57.7321 201.677 57.7321H173.581ZM63.1206 57.7321C60.57 57.7321 58.502 59.8001 58.502 62.3507C58.502 64.9013 60.57 66.9693 63.1206 66.9693H91.2168C93.7674 66.9693 95.8353 64.9013 95.8353 62.3507C95.8353 59.8001 93.7674 57.7321 91.2168 57.7321H63.1206ZM-38.4877 62.3507C-38.4877 59.8001 -36.4197 57.7321 -33.8691 57.7321H30.0209C32.5715 57.7321 34.6395 59.8001 34.6395 62.3507C34.6395 64.9013 32.5715 66.9693 30.0209 66.9693H-33.8691C-36.4197 66.9693 -38.4877 64.9013 -38.4877 62.3507ZM34.6395 30.0208C32.0889 30.0208 30.0209 32.0888 30.0209 34.6394C30.0209 37.19 32.0889 39.2579 34.6395 39.2579H38.1034C40.654 39.2579 42.7219 41.3259 42.7219 43.8765C42.7219 46.4271 40.654 48.495 38.1034 48.495H-60.8107C-63.3613 48.495 -65.4293 46.4271 -65.4293 43.8765C-65.4293 41.3259 -63.3613 39.2579 -60.8107 39.2579H16.1652V39.2541C18.6265 39.1532 20.5914 37.1257 20.5914 34.6394C20.5914 32.153 18.6265 30.1255 16.1652 30.0247V30.0208H6.92813C4.37753 30.0208 2.30957 27.9528 2.30957 25.4022C2.30957 22.8517 4.37753 20.7837 6.92813 20.7837H66.9694C69.52 20.7837 71.5879 22.8517 71.5879 25.4022C71.5879 27.9528 69.52 30.0208 66.9694 30.0208H34.6395ZM-80.0547 25.4022C-80.0547 22.8517 -77.9867 20.7837 -75.4361 20.7837H-15.3949C-12.8443 20.7837 -10.7763 22.8517 -10.7763 25.4022C-10.7763 27.9528 -12.8443 30.0208 -15.3949 30.0208H-75.4361C-77.9867 30.0208 -80.0547 27.9528 -80.0547 25.4022Z" fill="#DC8E61"/>
</g>
<mask id="mask3_178_2365" style="mask-type:alpha" maskUnits="userSpaceOnUse" x="0" y="0" width="224" height="224">
<path d="M112 224C173.856 224 224 173.856 224 112C224 50.1441 173.856 0 112 0C50.1441 0 0 50.1441 0 112C0 173.856 50.1441 224 112 224Z" fill="white"/>
</mask>
<g mask="url(#mask3_178_2365)">
<path fill-rule="evenodd" clip-rule="evenodd" d="M240.165 168.577C237.614 168.577 235.546 170.645 235.546 173.196C235.546 175.746 237.614 177.814 240.165 177.814H300.206C302.757 177.814 304.825 175.746 304.825 173.196C304.825 170.645 302.757 168.577 300.206 168.577H240.165ZM155.491 168.577C152.941 168.577 150.873 170.645 150.873 173.196C150.873 175.746 152.941 177.814 155.491 177.814H185.512V177.818C187.973 177.919 189.938 179.946 189.938 182.433C189.938 184.919 187.973 186.947 185.512 187.048V187.051H123.931C121.381 187.051 119.313 189.119 119.313 191.67C119.313 194.221 121.381 196.288 123.931 196.288H222.845C225.396 196.288 227.464 194.221 227.464 191.67C227.464 189.119 225.396 187.051 222.845 187.051H203.986C201.435 187.051 199.368 184.983 199.368 182.433C199.368 179.882 201.435 177.814 203.986 177.814H215.532C218.083 177.814 220.151 175.746 220.151 173.196C220.151 170.645 218.083 168.577 215.532 168.577H155.491ZM234.392 205.526C231.841 205.526 229.773 207.594 229.773 210.144C229.773 212.695 231.841 214.763 234.392 214.763H262.488C265.038 214.763 267.106 212.695 267.106 210.144C267.106 207.594 265.038 205.526 262.488 205.526H234.392ZM123.931 205.526C121.381 205.526 119.313 207.594 119.313 210.144C119.313 212.695 121.381 214.763 123.931 214.763H152.027C154.578 214.763 156.646 212.695 156.646 210.144C156.646 207.594 154.578 205.526 152.027 205.526H123.931ZM22.3229 210.144C22.3229 207.594 24.3908 205.526 26.9414 205.526H90.8315C93.3821 205.526 95.45 207.594 95.45 210.144C95.45 212.695 93.3821 214.763 90.8315 214.763H26.9414C24.3908 214.763 22.3229 212.695 22.3229 210.144ZM95.45 177.814C92.8994 177.814 90.8315 179.882 90.8315 182.433C90.8315 184.983 92.8994 187.051 95.45 187.051H98.9139C101.465 187.051 103.532 189.119 103.532 191.67C103.532 194.221 101.465 196.288 98.9139 196.288H-0.00015521C-2.55075 196.288 -4.61871 194.221 -4.61871 191.67C-4.61871 189.119 -2.55075 187.051 -0.00015521 187.051H76.9758V187.048C79.4371 186.947 81.4019 184.919 81.4019 182.433C81.4019 179.946 79.4371 177.919 76.9758 177.818V177.814H67.7387C65.1881 177.814 63.1201 175.746 63.1201 173.196C63.1201 170.645 65.1881 168.577 67.7387 168.577H127.78C130.331 168.577 132.398 170.645 132.398 173.196C132.398 175.746 130.331 177.814 127.78 177.814H95.45ZM-19.2441 173.196C-19.2441 170.645 -17.1762 168.577 -14.6256 168.577H45.4157C47.9662 168.577 50.0342 170.645 50.0342 173.196C50.0342 175.746 47.9662 177.814 45.4157 177.814H-14.6256C-17.1762 177.814 -19.2441 175.746 -19.2441 173.196Z" fill="#D89D6D"/>
</g>
<mask id="mask4_178_2365" style="mask-type:alpha" maskUnits="userSpaceOnUse" x="0" y="0" width="224" height="224">
<path d="M112 224C173.856 224 224 173.856 224 112C224 50.1441 173.856 0 112 0C50.1441 0 0 50.1441 0 112C0 173.856 50.1441 224 112 224Z" fill="white"/>
</mask>
<g mask="url(#mask4_178_2365)">
<path fill-rule="evenodd" clip-rule="evenodd" d="M68.1233 85.4432C70.6739 85.4432 72.7419 87.5111 72.7419 90.0617C72.7419 92.6123 70.6739 94.6803 68.1233 94.6803H64.2745C61.7239 94.6803 59.656 96.7482 59.656 99.2988C59.656 101.849 61.7239 103.917 64.2745 103.917H98.5288C101.079 103.917 103.147 101.849 103.147 99.2988C103.147 96.7482 101.079 94.6803 98.5288 94.6803H94.68L94.6797 94.6764C92.2184 94.5752 90.2539 92.548 90.2539 90.0617C90.2539 87.5754 92.2184 85.5482 94.6797 85.447L94.68 85.4432H119.697C122.248 85.4432 124.316 83.3752 124.316 80.8246C124.316 78.274 122.248 76.2061 119.697 76.2061H43.1062C40.5556 76.2061 38.4876 78.274 38.4876 80.8246C38.4876 83.3752 40.5556 85.4432 43.1062 85.4432H68.1233ZM50.4189 99.2988C50.4189 96.7482 48.3509 94.6803 45.8003 94.6803H21.9378C19.3872 94.6803 17.3192 96.7482 17.3192 99.2988C17.3192 101.849 19.3872 103.917 21.9378 103.917H45.8003C48.3509 103.917 50.4189 101.849 50.4189 99.2988ZM3.46355 94.6803C6.01415 94.6803 8.08211 96.7482 8.08211 99.2988C8.08211 101.849 6.01415 103.917 3.46355 103.917H-7.31308C-9.86368 103.917 -11.9316 101.849 -11.9316 99.2988C-11.9316 96.7482 -9.86368 94.6803 -7.31308 94.6803H3.46355ZM186.281 99.2988C186.281 96.7482 184.213 94.6803 181.663 94.6803H117.003C114.452 94.6803 112.385 96.7482 112.385 99.2988C112.385 101.849 114.452 103.917 117.003 103.917H181.663C184.213 103.917 186.281 101.849 186.281 99.2988ZM210.914 94.6803C213.464 94.6803 215.532 96.7482 215.532 99.2988C215.532 101.849 213.464 103.917 210.914 103.917H200.137C197.586 103.917 195.519 101.849 195.519 99.2988C195.519 96.7482 197.586 94.6803 200.137 94.6803H210.914ZM197.443 80.8246C197.443 78.274 195.375 76.2061 192.824 76.2061H138.171C135.621 76.2061 133.553 78.274 133.553 80.8246C133.553 83.3752 135.621 85.4432 138.171 85.4432H192.824C195.375 85.4432 197.443 83.3752 197.443 80.8246ZM230.543 76.2061C233.093 76.2061 235.161 78.274 235.161 80.8246C235.161 83.3752 233.093 85.4432 230.543 85.4432H211.299C208.748 85.4432 206.68 83.3752 206.68 80.8246C206.68 78.274 208.748 76.2061 211.299 76.2061H230.543ZM20.0134 80.8246C20.0134 78.274 17.9454 76.2061 15.3948 76.2061H4.61819C2.06759 76.2061 -0.000368744 78.274 -0.000368744 80.8246C-0.000368744 83.3752 2.06759 85.4432 4.61819 85.4432H15.3948C17.9454 85.4432 20.0134 83.3752 20.0134 80.8246Z" fill="#D89D6D"/>
</g>
<mask id="mask5_178_2365" style="mask-type:alpha" maskUnits="userSpaceOnUse" x="0" y="0" width="224" height="224">
<path d="M112 224C173.856 224 224 173.856 224 112C224 50.1441 173.856 0 112 0C50.1441 0 0 50.1441 0 112C0 173.856 50.1441 224 112 224Z" fill="white"/>
</mask>
<g mask="url(#mask5_178_2365)">
<path opacity="0.078" d="M112 0H224.385V224H112V0Z" fill="black"/>
</g>
</g>
<defs>
<clipPath id="clip0_178_2365">
<rect width="224" height="224" fill="white"/>
</clipPath>
</defs>
</svg>
