<svg width="111" height="111" viewBox="0 0 111 111" fill="none" xmlns="http://www.w3.org/2000/svg">
<path d="M111 55.5C111 86.1518 86.1518 111 55.5 111C24.8482 111 0 86.1518 0 55.5C0 24.8482 24.8482 0 55.5 0C86.1518 0 111 24.8482 111 55.5Z" fill="#DEF4FC"/>
<mask id="mask0_184_3223" style="mask-type:alpha" maskUnits="userSpaceOnUse" x="0" y="0" width="111" height="111">
<path d="M111 55.5C111 86.1518 86.1518 111 55.5 111C24.8482 111 0 86.1518 0 55.5C0 24.8482 24.8482 0 55.5 0C86.1518 0 111 24.8482 111 55.5Z" fill="white"/>
</mask>
<g mask="url(#mask0_184_3223)">
<path fill-rule="evenodd" clip-rule="evenodd" d="M98.3694 9.56918C98.3694 7.03248 96.313 4.97607 93.7763 4.97607H71.5763C69.0396 4.97607 66.9832 7.03248 66.9832 9.56918C66.9832 12.1059 69.0396 14.1623 71.5763 14.1623H93.7763C96.313 14.1623 98.3694 12.1059 98.3694 9.56918ZM27.9418 50.9071C30.4785 50.9071 32.5349 52.9635 32.5349 55.5002C32.5349 58.0369 30.4785 60.0933 27.9418 60.0933H26.7935C24.2568 60.0933 22.2004 62.1497 22.2004 64.6864C22.2004 67.2231 24.2568 69.2795 26.7935 69.2795H74.2556C76.7923 69.2795 78.8487 67.2231 78.8487 64.6864C78.8487 62.1497 76.7923 60.0933 74.2556 60.0933H54.3522L54.3518 60.0894C51.9041 59.9888 49.9505 57.9726 49.9505 55.5002C49.9505 53.0278 51.9041 51.0116 54.3518 50.911L54.3522 50.9071H55.1177C57.6544 50.9071 59.7108 48.8507 59.7108 46.314C59.7108 43.7773 57.6544 41.7209 55.1177 41.7209H37.8935L37.8937 41.717C35.4457 41.6167 33.4918 39.6004 33.4918 37.1278C33.4918 34.6552 35.4457 32.6389 37.8937 32.5386L37.8935 32.5347H45.5487C48.0854 32.5347 50.1418 30.4783 50.1418 27.9416C50.1418 25.4049 48.0854 23.3485 45.5487 23.3485H17.6073C15.0706 23.3485 13.0142 25.4049 13.0142 27.9416C13.0142 30.4783 15.0706 32.5347 17.6073 32.5347H19.5211C22.0578 32.5347 24.1142 34.5911 24.1142 37.1278C24.1142 39.6645 22.0578 41.7209 19.5211 41.7209H0.765955C-1.77075 41.7209 -3.82715 43.7773 -3.82715 46.314C-3.82715 48.8507 -1.77075 50.9071 0.765955 50.9071H27.9418ZM49.7591 78.4657C52.2958 78.4657 54.3522 80.5221 54.3522 83.0588C54.3522 85.5955 52.2958 87.6519 49.7591 87.6519C47.2224 87.6519 45.166 85.5955 45.166 83.0588C45.166 80.5221 47.2224 78.4657 49.7591 78.4657ZM96.4556 83.0588C96.4556 80.5221 94.3992 78.4657 91.8625 78.4657H68.1315C65.5948 78.4657 63.5384 80.5221 63.5384 83.0588C63.5384 85.5955 65.5948 87.6519 68.1315 87.6519H91.8625C94.3992 87.6519 96.4556 85.5955 96.4556 83.0588ZM63.5384 101.431C63.5384 98.8945 61.482 96.8381 58.9453 96.8381H51.2901C48.7534 96.8381 46.697 98.8945 46.697 101.431C46.697 103.968 48.7534 106.024 51.2901 106.024H58.9453C61.482 106.024 63.5384 103.968 63.5384 101.431ZM93.7763 60.0933C96.313 60.0933 98.3694 62.1497 98.3694 64.6864C98.3694 67.2231 96.313 69.2795 93.7763 69.2795C91.2396 69.2795 89.1832 67.2231 89.1832 64.6864C89.1832 62.1497 91.2396 60.0933 93.7763 60.0933ZM13.0142 64.6864C13.0142 62.1497 10.9578 60.0933 8.42113 60.0933H0.765955C-1.77075 60.0933 -3.82715 62.1497 -3.82715 64.6864C-3.82715 67.2231 -1.77075 69.2795 0.765955 69.2795H8.42113C10.9578 69.2795 13.0142 67.2231 13.0142 64.6864ZM84.5901 23.3485C87.1268 23.3485 89.1832 25.4049 89.1832 27.9416C89.1832 30.4783 87.1268 32.5347 84.5901 32.5347H76.9349C74.3982 32.5347 72.3418 30.4783 72.3418 27.9416C72.3418 25.4049 74.3982 23.3485 76.9349 23.3485H84.5901Z" fill="#B1D5E2"/>
</g>
<mask id="mask1_184_3223" style="mask-type:alpha" maskUnits="userSpaceOnUse" x="0" y="0" width="111" height="111">
<path d="M111 55.5C111 86.1518 86.1518 111 55.5 111C24.8482 111 0 86.1518 0 55.5C0 24.8482 24.8482 0 55.5 0C86.1518 0 111 24.8482 111 55.5Z" fill="white"/>
</mask>
<g mask="url(#mask1_184_3223)">
<path opacity="0.0775757" d="M55.8828 0H111.383V111H55.8828V0Z" fill="black"/>
</g>
<path fill-rule="evenodd" clip-rule="evenodd" d="M55.8828 108.703C85.2663 108.703 109.086 84.8833 109.086 55.4998C109.086 26.1164 85.2663 2.29639 55.8828 2.29639V108.703Z" fill="#7A939C"/>
<mask id="mask2_184_3223" style="mask-type:alpha" maskUnits="userSpaceOnUse" x="55" y="2" width="55" height="107">
<path fill-rule="evenodd" clip-rule="evenodd" d="M55.8828 108.703C85.2663 108.703 109.086 84.8833 109.086 55.4998C109.086 26.1164 85.2663 2.29639 55.8828 2.29639V108.703Z" fill="white"/>
</mask>
<g mask="url(#mask2_184_3223)">
<path d="M106.407 55.8826C106.407 83.5749 83.9577 106.024 56.2654 106.024C28.5731 106.024 6.12402 83.5749 6.12402 55.8826C6.12402 28.1903 28.5731 5.74121 56.2654 5.74121C83.9577 5.74121 106.407 28.1903 106.407 55.8826Z" fill="#9AB2BB"/>
<path d="M92.6275 55.4998C92.6275 75.582 76.3476 91.8618 56.2654 91.8618C36.1832 91.8618 19.9033 75.582 19.9033 55.4998C19.9033 35.4175 36.1832 19.1377 56.2654 19.1377C76.3476 19.1377 92.6275 35.4175 92.6275 55.4998Z" fill="#E8903F"/>
<path d="M71.9584 55.6916C71.9584 64.4644 64.8467 71.5761 56.0739 71.5761C47.3012 71.5761 40.1895 64.4644 40.1895 55.6916C40.1895 46.9189 47.3012 39.8071 56.0739 39.8071C64.8467 39.8071 71.9584 46.9189 71.9584 55.6916Z" fill="#FFEA87"/>
</g>
</svg>
