<svg width="213" height="213" viewBox="0 0 213 213" fill="none" xmlns="http://www.w3.org/2000/svg">
<circle cx="106.5" cy="106.5" r="106.5" fill="#FF6A45"/>
<mask id="mask0_182_2700" style="mask-type:alpha" maskUnits="userSpaceOnUse" x="0" y="0" width="213" height="213">
<circle cx="106.5" cy="106.5" r="106.5" fill="white"/>
</mask>
<g mask="url(#mask0_182_2700)">
<path fill-rule="evenodd" clip-rule="evenodd" d="M57.0534 15.2143C61.2547 15.2143 64.6606 18.6201 64.6606 22.8214C64.6606 27.0227 61.2547 30.4286 57.0534 30.4286H25.9909C21.7896 30.4286 18.3838 33.8344 18.3838 38.0357C18.3838 42.237 21.7896 45.6429 25.9909 45.6429H106.5C110.701 45.6429 114.107 42.237 114.107 38.0357C114.107 33.8344 110.701 30.4286 106.5 30.4286H98.2587L98.2582 30.4221C94.2042 30.2555 90.9688 26.9163 90.9688 22.8214C90.9688 18.7266 94.2042 15.3874 98.2582 15.2208L98.2587 15.2143H133.759C137.96 15.2143 141.366 11.8085 141.366 7.60714C141.366 3.40583 137.96 0 133.759 0H34.8659C30.6646 0 27.2588 3.40583 27.2588 7.60714C27.2588 11.8085 30.6646 15.2143 34.8659 15.2143H57.0534ZM181.303 38.0357C181.303 33.8344 177.898 30.4286 173.696 30.4286H170.527C166.325 30.4286 162.92 33.8344 162.92 38.0357C162.92 42.237 166.325 45.6429 170.527 45.6429H173.696C177.898 45.6429 181.303 42.237 181.303 38.0357Z" fill="#FF9B6B"/>
</g>
<mask id="mask1_182_2700" style="mask-type:alpha" maskUnits="userSpaceOnUse" x="0" y="0" width="213" height="213">
<circle cx="106.5" cy="106.5" r="106.5" fill="white"/>
</mask>
<g mask="url(#mask1_182_2700)">
<path fill-rule="evenodd" clip-rule="evenodd" d="M124.884 197.786C129.085 197.786 132.491 201.191 132.491 205.393C132.491 209.594 129.085 213 124.884 213H93.821C89.6197 213 86.2139 216.406 86.2139 220.607C86.2139 224.808 89.6197 228.214 93.821 228.214H174.33C178.531 228.214 181.937 224.808 181.937 220.607C181.937 216.406 178.531 213 174.33 213H166.089L166.088 212.993C162.034 212.827 158.799 209.488 158.799 205.393C158.799 201.298 162.034 197.959 166.088 197.792L166.089 197.786H201.589C205.79 197.786 209.196 194.38 209.196 190.178C209.196 185.977 205.79 182.571 201.589 182.571H102.696C98.4947 182.571 95.0889 185.977 95.0889 190.178C95.0889 194.38 98.4947 197.786 102.696 197.786H124.884ZM249.134 220.607C249.134 216.406 245.728 213 241.526 213H238.357C234.155 213 230.75 216.406 230.75 220.607C230.75 224.808 234.155 228.214 238.357 228.214H241.526C245.728 228.214 249.134 224.808 249.134 220.607Z" fill="#FF9B6B"/>
</g>
<mask id="mask2_182_2700" style="mask-type:alpha" maskUnits="userSpaceOnUse" x="0" y="0" width="213" height="213">
<circle cx="106.5" cy="106.5" r="106.5" fill="white"/>
</mask>
<g mask="url(#mask2_182_2700)">
<path fill-rule="evenodd" clip-rule="evenodd" d="M88.1158 45.6431C92.3171 45.6431 95.7229 49.0489 95.7229 53.2502C95.7229 57.4515 92.3171 60.8574 88.1158 60.8574H62.7586C58.5573 60.8574 55.1515 57.4515 55.1515 53.2502C55.1515 49.0489 58.5573 45.6431 62.7586 45.6431H88.1158ZM166.723 106.5C170.924 106.5 174.33 109.906 174.33 114.107C174.33 118.309 170.924 121.714 166.723 121.714H70.9997L70.9991 121.721C66.9452 121.888 63.7097 125.227 63.7097 129.322C63.7097 133.417 66.9452 136.756 70.9991 136.922L70.9997 136.929H83.0444C87.2457 136.929 90.6515 140.335 90.6515 144.536C90.6515 148.737 87.2457 152.143 83.0444 152.143H6.97294C2.77163 152.143 -0.634206 148.737 -0.634206 144.536C-0.634206 140.335 2.77163 136.929 6.97294 136.929H27.2587C31.46 136.929 34.8658 133.523 34.8658 129.322C34.8658 125.12 31.46 121.714 27.2587 121.714H-13.3128C-17.5141 121.714 -20.9199 118.309 -20.9199 114.107C-20.9199 109.906 -17.5141 106.5 -13.3128 106.5H166.723ZM70.9997 174.964C70.9997 170.763 67.5939 167.357 63.3926 167.357H50.714C46.5127 167.357 43.1069 170.763 43.1069 174.964C43.1069 179.166 46.5127 182.572 50.714 182.572H63.3926C67.5939 182.572 70.9997 179.166 70.9997 174.964ZM145.169 174.964C145.169 170.763 141.764 167.357 137.562 167.357H98.2586C94.0573 167.357 90.6515 170.763 90.6515 174.964C90.6515 179.166 94.0573 182.572 98.2586 182.572H137.562C141.764 182.572 145.169 179.166 145.169 174.964ZM141.366 144.536C141.366 140.335 137.96 136.929 133.759 136.929H121.08C116.879 136.929 113.473 140.335 113.473 144.536C113.473 148.737 116.879 152.143 121.08 152.143H133.759C137.96 152.143 141.366 148.737 141.366 144.536ZM228.214 53.2502C228.214 49.0489 224.808 45.6431 220.607 45.6431H195.25C191.048 45.6431 187.643 49.0489 187.643 53.2502C187.643 57.4515 191.048 60.8574 195.25 60.8574H220.607C224.808 60.8574 228.214 57.4515 228.214 53.2502Z" fill="#D04237"/>
</g>
<mask id="mask3_182_2700" style="mask-type:alpha" maskUnits="userSpaceOnUse" x="0" y="0" width="213" height="213">
<circle cx="106.5" cy="106.5" r="106.5" fill="white"/>
</mask>
<g mask="url(#mask3_182_2700)">
<rect opacity="0.0775757" x="107.134" y="-10.1431" width="116.643" height="233.286" fill="black"/>
</g>
<path fill-rule="evenodd" clip-rule="evenodd" d="M107.134 208.562C163.501 208.562 209.196 162.868 209.196 106.5C209.196 50.1324 163.501 4.4375 107.134 4.4375V208.562Z" fill="#97271E"/>
<mask id="mask4_182_2700" style="mask-type:alpha" maskUnits="userSpaceOnUse" x="107" y="4" width="103" height="205">
<path fill-rule="evenodd" clip-rule="evenodd" d="M107.134 208.562C163.501 208.562 209.196 162.868 209.196 106.5C209.196 50.1324 163.501 4.4375 107.134 4.4375V208.562Z" fill="white"/>
</mask>
<g mask="url(#mask4_182_2700)">
<circle cx="107.768" cy="106.5" r="97.625" fill="#DC5D1C"/>
<circle cx="107.768" cy="106.5" r="50.0804" fill="#F8A053"/>
<circle cx="107.768" cy="106.5" r="34.2321" fill="#FFCA79"/>
<circle cx="107.768" cy="107.134" r="25.3571" fill="#FFF5C6"/>
</g>
</svg>
