<svg width="129" height="129" viewBox="0 0 129 129" fill="none" xmlns="http://www.w3.org/2000/svg">
<g clip-path="url(#clip0_178_2281)">
<path d="M64.5 129C100.122 129 129 100.122 129 64.5C129 28.8776 100.122 0 64.5 0C28.8776 0 0 28.8776 0 64.5C0 100.122 28.8776 129 64.5 129Z" fill="#FF6A45"/>
<mask id="mask0_178_2281" style="mask-type:alpha" maskUnits="userSpaceOnUse" x="0" y="0" width="129" height="129">
<path d="M64.5 129C100.122 129 129 100.122 129 64.5C129 28.8776 100.122 0 64.5 0C28.8776 0 0 28.8776 0 64.5C0 100.122 28.8776 129 64.5 129Z" fill="white"/>
</mask>
<g mask="url(#mask0_178_2281)">
<path d="M39.1606 13.8214C39.1606 11.2771 37.0977 9.21429 34.5534 9.21429H21.1159C18.5716 9.21429 16.5088 7.15144 16.5088 4.60714C16.5088 2.06285 18.5716 0 21.1159 0H81.0088C83.5531 0 85.6159 2.06285 85.6159 4.60714C85.6159 7.15144 83.5531 9.21429 81.0088 9.21429H59.5088L59.5084 9.21812C57.0532 9.3191 55.0936 11.3412 55.0936 13.8214C55.0936 16.3016 57.0532 18.3238 59.5088 18.4247V18.4286H64.4999C67.0442 18.4286 69.107 20.4914 69.107 23.0357C69.107 25.58 67.0442 27.6429 64.4999 27.6429H15.7409C13.1966 27.6429 11.1338 25.58 11.1338 23.0357C11.1338 20.4914 13.1966 18.4286 15.7409 18.4286H34.5534C37.0977 18.4286 39.1606 16.3657 39.1606 13.8214ZM105.196 18.4286C107.741 18.4286 109.803 20.4914 109.803 23.0357C109.803 25.58 107.741 27.6429 105.196 27.6429H103.277C100.732 27.6429 98.6695 25.58 98.6695 23.0357C98.6695 20.4914 100.732 18.4286 103.277 18.4286H105.196Z" fill="#FF9B6B"/>
</g>
<mask id="mask1_178_2281" style="mask-type:alpha" maskUnits="userSpaceOnUse" x="0" y="0" width="129" height="129">
<path d="M64.5 129C100.122 129 129 100.122 129 64.5C129 28.8776 100.122 0 64.5 0C28.8776 0 0 28.8776 0 64.5C0 100.122 28.8776 129 64.5 129Z" fill="white"/>
</mask>
<g mask="url(#mask1_178_2281)">
<path d="M80.2407 124.393C80.2407 121.848 78.1778 119.786 75.6335 119.786H62.196C59.6517 119.786 57.5889 117.723 57.5889 115.178C57.5889 112.634 59.6517 110.571 62.196 110.571H122.089C124.633 110.571 126.696 112.634 126.696 115.178C126.696 117.723 124.633 119.786 122.089 119.786H100.589L100.588 119.789C98.1333 119.89 96.1737 121.913 96.1737 124.393C96.1737 126.873 98.1333 128.895 100.588 128.996V129H105.58C108.124 129 110.187 131.063 110.187 133.607C110.187 136.151 108.124 138.214 105.58 138.214H56.821C54.2767 138.214 52.2139 136.151 52.2139 133.607C52.2139 131.063 54.2767 129 56.821 129H75.6335C78.1778 129 80.2407 126.937 80.2407 124.393ZM146.276 129C148.821 129 150.884 131.063 150.884 133.607C150.884 136.151 148.821 138.214 146.276 138.214H144.357C141.812 138.214 139.75 136.151 139.75 133.607C139.75 131.063 141.812 129 144.357 129H146.276Z" fill="#FF9B6B"/>
</g>
<mask id="mask2_178_2281" style="mask-type:alpha" maskUnits="userSpaceOnUse" x="0" y="0" width="129" height="129">
<path d="M64.5 129C100.122 129 129 100.122 129 64.5C129 28.8776 100.122 0 64.5 0C28.8776 0 0 28.8776 0 64.5C0 100.122 28.8776 129 64.5 129Z" fill="white"/>
</mask>
<g mask="url(#mask2_178_2281)">
<path d="M83.3122 101.357C85.8565 101.357 87.9194 103.42 87.9194 105.964C87.9194 108.509 85.8565 110.572 83.3122 110.572H59.5086C56.9644 110.572 54.9015 108.509 54.9015 105.964C54.9015 103.42 56.9644 101.357 59.5086 101.357H83.3122ZM38.3926 101.357C40.9369 101.357 42.9997 103.42 42.9997 105.964C42.9997 108.509 40.9369 110.572 38.3926 110.572H30.714C28.1697 110.572 26.1069 108.509 26.1069 105.964C26.1069 103.42 28.1697 101.357 30.714 101.357H38.3926ZM100.973 64.5002C103.517 64.5002 105.58 66.5631 105.58 69.1074C105.58 71.6516 103.517 73.7145 100.973 73.7145H42.9997L42.9993 73.7183C40.5441 73.8193 38.5845 75.8415 38.5845 78.3216C38.5845 80.8018 40.5441 82.824 42.9993 82.9249L42.9997 82.9288H50.2944C52.8387 82.9288 54.9015 84.9916 54.9015 87.5359C54.9015 90.0802 52.8387 92.1431 50.2944 92.1431H4.22294C1.67864 92.1431 -0.384208 90.0802 -0.384208 87.5359C-0.384208 84.9916 1.67864 82.9288 4.22294 82.9288H16.5086C19.0529 82.9288 21.1158 80.8659 21.1158 78.3216C21.1158 75.7773 19.0529 73.7145 16.5086 73.7145H-8.06278C-10.6071 73.7145 -12.6699 71.6516 -12.6699 69.1074C-12.6699 66.5631 -10.6071 64.5002 -8.06278 64.5002H100.973ZM81.0086 82.9288C83.5529 82.9288 85.6158 84.9916 85.6158 87.5359C85.6158 90.0802 83.5529 92.1431 81.0086 92.1431H73.3301C70.7858 92.1431 68.7229 90.0802 68.7229 87.5359C68.7229 84.9916 70.7858 82.9288 73.3301 82.9288H81.0086ZM53.3658 27.6431C55.9101 27.6431 57.9729 29.7059 57.9729 32.2502C57.9729 34.7945 55.9101 36.8574 53.3658 36.8574H38.0086C35.4644 36.8574 33.4015 34.7945 33.4015 32.2502C33.4015 29.7059 35.4644 27.6431 38.0086 27.6431H53.3658ZM133.607 27.6431C136.151 27.6431 138.214 29.7059 138.214 32.2502C138.214 34.7945 136.151 36.8574 133.607 36.8574H118.25C115.705 36.8574 113.643 34.7945 113.643 32.2502C113.643 29.7059 115.705 27.6431 118.25 27.6431H133.607Z" fill="#D04237"/>
</g>
<mask id="mask3_178_2281" style="mask-type:alpha" maskUnits="userSpaceOnUse" x="0" y="0" width="129" height="129">
<path d="M64.5 129C100.122 129 129 100.122 129 64.5C129 28.8776 100.122 0 64.5 0C28.8776 0 0 28.8776 0 64.5C0 100.122 28.8776 129 64.5 129Z" fill="white"/>
</mask>
<g mask="url(#mask3_178_2281)">
<path opacity="0.078" d="M64.8838 -6.14307H135.527V135.143H64.8838V-6.14307Z" fill="black"/>
</g>
</g>
<defs>
<clipPath id="clip0_178_2281">
<rect width="129" height="129" fill="white"/>
</clipPath>
</defs>
</svg>
