<svg width="290" height="290" viewBox="0 0 290 290" fill="none" xmlns="http://www.w3.org/2000/svg">
<circle cx="145" cy="145" r="145" fill="#65F0D5"/>
<mask id="mask0_182_2903" style="mask-type:alpha" maskUnits="userSpaceOnUse" x="0" y="0" width="290" height="290">
<circle cx="145" cy="145" r="145" fill="white"/>
</mask>
<g mask="url(#mask0_182_2903)">
<path fill-rule="evenodd" clip-rule="evenodd" d="M281.845 -94.9782C281.845 -90.7818 278.443 -87.38 274.246 -87.38C270.05 -87.38 266.648 -90.7818 266.648 -94.9782V-193.756C266.648 -197.952 270.05 -201.354 274.246 -201.354C278.443 -201.354 281.845 -197.952 281.845 -193.756V-94.9782ZM281.845 44.3231C281.845 48.5195 278.443 51.9214 274.246 51.9214C270.05 51.9214 266.648 48.5195 266.648 44.3231V-5.06554L266.642 -5.06529C266.476 -9.11501 263.14 -12.3472 259.05 -12.3472C254.96 -12.3472 251.624 -9.11501 251.458 -5.06529L251.452 -5.06554L251.452 96.2445C251.452 100.441 248.05 103.843 243.853 103.843C239.657 103.843 236.255 100.441 236.255 96.2445L236.255 -66.4848C236.255 -70.6812 239.657 -74.083 243.853 -74.083C248.05 -74.083 251.452 -70.6812 251.452 -66.4848V-35.4585C251.452 -31.2622 254.854 -27.8603 259.05 -27.8603C263.246 -27.8603 266.648 -31.2622 266.648 -35.4585V-54.4542C266.648 -58.6506 270.05 -62.0524 274.246 -62.0524C278.443 -62.0524 281.845 -58.6506 281.845 -54.4542V44.3231ZM221.059 -85.4804C221.059 -81.284 217.657 -77.8821 213.46 -77.8821C209.264 -77.8821 205.862 -81.284 205.862 -85.4804V-131.703C205.862 -135.9 209.264 -139.301 213.46 -139.301C217.657 -139.301 221.059 -135.9 221.059 -131.703V-85.4804ZM221.059 96.2445C221.059 100.441 217.657 103.843 213.46 103.843C209.264 103.843 205.862 100.441 205.862 96.2445V50.0218C205.862 45.8254 209.264 42.4235 213.46 42.4235C217.657 42.4235 221.059 45.8254 221.059 50.0218L221.059 96.2445ZM213.46 263.406C217.657 263.406 221.059 260.004 221.059 255.808V150.699C221.059 146.502 217.657 143.1 213.46 143.1C209.264 143.1 205.862 146.502 205.862 150.699V255.808C205.862 260.004 209.264 263.406 213.46 263.406ZM266.648 143.1C266.648 147.297 263.246 150.699 259.05 150.699C254.854 150.699 251.452 147.297 251.452 143.1V137.402C251.452 133.205 248.05 129.803 243.853 129.803C239.657 129.803 236.255 133.205 236.255 137.402V300.131C236.255 304.327 239.657 307.729 243.853 307.729C248.05 307.729 251.452 304.327 251.452 300.131V173.493L251.458 173.494C251.624 169.444 254.96 166.212 259.05 166.212C263.14 166.212 266.476 169.444 266.642 173.494L266.648 173.493V188.69C266.648 192.886 270.05 196.288 274.246 196.288C278.443 196.288 281.845 192.886 281.845 188.69V89.9126C281.845 85.7162 278.443 82.3144 274.246 82.3144C270.05 82.3144 266.648 85.7162 266.648 89.9126V143.1ZM274.246 331.79C278.443 331.79 281.845 328.389 281.845 324.192L281.845 225.415C281.845 221.218 278.443 217.817 274.246 217.817C270.05 217.817 266.648 221.218 266.648 225.415L266.648 324.192C266.648 328.389 270.05 331.79 274.246 331.79Z" fill="#49CBC2"/>
</g>
<mask id="mask1_182_2903" style="mask-type:alpha" maskUnits="userSpaceOnUse" x="0" y="0" width="290" height="290">
<circle cx="145" cy="145" r="145" fill="white"/>
</mask>
<g mask="url(#mask1_182_2903)">
<path fill-rule="evenodd" clip-rule="evenodd" d="M114.684 -139.301C114.684 -135.105 118.085 -131.703 122.282 -131.703C126.478 -131.703 129.88 -135.105 129.88 -139.301V-238.079C129.88 -242.275 126.478 -245.677 122.282 -245.677C118.085 -245.677 114.684 -242.275 114.684 -238.079V-139.301ZM114.684 9.15527e-05C114.684 4.19647 118.085 7.59833 122.282 7.59833C126.478 7.59833 129.88 4.19647 129.88 9.15527e-05V-49.3886L129.887 -49.3883C130.052 -53.438 133.388 -56.6702 137.478 -56.6702C141.569 -56.6702 144.904 -53.438 145.07 -49.3883L145.077 -49.3886L145.077 51.9215C145.077 56.1179 148.478 59.5197 152.675 59.5197C156.871 59.5197 160.273 56.1179 160.273 51.9215L160.273 -110.808C160.273 -115.004 156.871 -118.406 152.675 -118.406C148.478 -118.406 145.077 -115.004 145.077 -110.808V-79.7816C145.077 -75.5852 141.675 -72.1833 137.478 -72.1833C133.282 -72.1833 129.88 -75.5852 129.88 -79.7816V-98.7772C129.88 -102.974 126.478 -106.375 122.282 -106.375C118.085 -106.375 114.684 -102.974 114.684 -98.7772V9.15527e-05ZM175.47 -129.803C175.47 -125.607 178.871 -122.205 183.068 -122.205C187.264 -122.205 190.666 -125.607 190.666 -129.803V-176.026C190.666 -180.223 187.264 -183.624 183.068 -183.624C178.871 -183.624 175.47 -180.223 175.47 -176.026V-129.803ZM175.47 51.9215C175.47 56.1179 178.871 59.5197 183.068 59.5197C187.264 59.5197 190.666 56.1179 190.666 51.9215V5.69879C190.666 1.50238 187.264 -1.89948 183.068 -1.89948C178.871 -1.89948 175.47 1.50238 175.47 5.69879L175.47 51.9215ZM183.068 219.083C178.871 219.083 175.47 215.681 175.47 211.485V106.376C175.47 102.179 178.871 98.7774 183.068 98.7774C187.264 98.7774 190.666 102.179 190.666 106.376V211.485C190.666 215.681 187.264 219.083 183.068 219.083ZM129.88 98.7774C129.88 102.974 133.282 106.376 137.478 106.376C141.675 106.376 145.077 102.974 145.077 98.7774V93.0787C145.077 88.8823 148.478 85.4804 152.675 85.4804C156.871 85.4804 160.273 88.8823 160.273 93.0787V255.808C160.273 260.004 156.871 263.406 152.675 263.406C148.478 263.406 145.077 260.004 145.077 255.808V129.17L145.07 129.171C144.904 125.121 141.569 121.889 137.478 121.889C133.388 121.889 130.052 125.121 129.887 129.171L129.88 129.17V144.367C129.88 148.563 126.478 151.965 122.282 151.965C118.085 151.965 114.684 148.563 114.684 144.367L114.684 45.5896C114.684 41.3932 118.085 37.9914 122.282 37.9914C126.478 37.9914 129.88 41.3932 129.88 45.5896V98.7774ZM122.282 287.467C118.085 287.467 114.684 284.066 114.684 279.869V181.092C114.684 176.895 118.085 173.494 122.282 173.494C126.478 173.494 129.88 176.895 129.88 181.092V279.869C129.88 284.066 126.478 287.467 122.282 287.467Z" fill="#50DECD"/>
</g>
<mask id="mask2_182_2903" style="mask-type:alpha" maskUnits="userSpaceOnUse" x="0" y="0" width="290" height="290">
<circle cx="145" cy="145" r="145" fill="white"/>
</mask>
<g mask="url(#mask2_182_2903)">
<path fill-rule="evenodd" clip-rule="evenodd" d="M99.4863 -160.196C99.4863 -156 96.0845 -152.598 91.8881 -152.598C87.6917 -152.598 84.2898 -156 84.2898 -160.196V-258.974C84.2898 -263.17 87.6917 -266.572 91.8881 -266.572C96.0845 -266.572 99.4863 -263.17 99.4863 -258.974V-160.196ZM99.4863 -20.8951C99.4863 -16.6988 96.0845 -13.2969 91.8881 -13.2969C87.6917 -13.2969 84.2898 -16.6988 84.2898 -20.8951V-70.2838L84.2834 -70.2836C84.1175 -74.3333 80.782 -77.5655 76.6916 -77.5655C72.6011 -77.5655 69.2656 -74.3333 69.0998 -70.2836L69.0933 -70.2838V31.0262C69.0933 35.2226 65.6915 38.6245 61.4951 38.6245C57.2987 38.6245 53.8968 35.2226 53.8968 31.0262L53.8968 -131.703C53.8968 -135.899 57.2987 -139.301 61.4951 -139.301C65.6915 -139.301 69.0933 -135.899 69.0933 -131.703L69.0933 -100.677C69.0933 -96.4804 72.4952 -93.0786 76.6916 -93.0786C80.888 -93.0786 84.2898 -96.4804 84.2898 -100.677V-119.672C84.2898 -123.869 87.6917 -127.271 91.8881 -127.271C96.0845 -127.271 99.4863 -123.869 99.4863 -119.672V-20.8951ZM38.7003 -150.699C38.7003 -146.502 35.2984 -143.1 31.1021 -143.1C26.9056 -143.1 23.5038 -146.502 23.5038 -150.699V-196.921C23.5038 -201.118 26.9056 -204.52 31.1021 -204.52C35.2984 -204.52 38.7003 -201.118 38.7003 -196.921V-150.699ZM38.7003 31.0262C38.7003 35.2226 35.2984 38.6245 31.1021 38.6245C26.9056 38.6245 23.5038 35.2226 23.5038 31.0262V-15.1965C23.5038 -19.3929 26.9056 -22.7947 31.1021 -22.7947C35.2984 -22.7947 38.7003 -19.3929 38.7003 -15.1965L38.7003 31.0262ZM31.1021 198.188C35.2984 198.188 38.7003 194.786 38.7003 190.59L38.7003 85.4804C38.7003 81.284 35.2984 77.8821 31.1021 77.8821C26.9056 77.8821 23.5038 81.284 23.5038 85.4804V190.59C23.5038 194.786 26.9056 198.188 31.1021 198.188ZM84.2898 77.8821C84.2898 82.0785 80.888 85.4804 76.6916 85.4804C72.4952 85.4804 69.0933 82.0785 69.0933 77.8821V72.1834C69.0933 67.987 65.6915 64.5852 61.4951 64.5852C57.2987 64.5852 53.8968 67.987 53.8968 72.1834L53.8968 234.913C53.8968 239.109 57.2987 242.511 61.4951 242.511C65.6915 242.511 69.0933 239.109 69.0933 234.913V108.275L69.0998 108.275C69.2656 104.226 72.6011 100.993 76.6916 100.993C80.782 100.993 84.1175 104.226 84.2834 108.275L84.2898 108.275V123.472C84.2898 127.668 87.6917 131.07 91.8881 131.07C96.0845 131.07 99.4863 127.668 99.4863 123.472L99.4863 24.6944C99.4863 20.498 96.0845 17.0961 91.8881 17.0961C87.6917 17.0961 84.2898 20.498 84.2898 24.6944L84.2898 77.8821ZM91.8881 266.572C96.0845 266.572 99.4863 263.17 99.4863 258.974V160.197C99.4863 156 96.0845 152.598 91.8881 152.598C87.6917 152.598 84.2898 156 84.2898 160.197V258.974C84.2898 263.17 87.6917 266.572 91.8881 266.572Z" fill="#77FFF5"/>
</g>
<mask id="mask3_182_2903" style="mask-type:alpha" maskUnits="userSpaceOnUse" x="0" y="0" width="290" height="290">
<circle cx="145" cy="145" r="145" fill="white"/>
</mask>
<g mask="url(#mask3_182_2903)">
<rect opacity="0.0775757" x="145" width="145" height="290" fill="black"/>
</g>
<path fill-rule="evenodd" clip-rule="evenodd" d="M145 284.934C222.284 284.934 284.934 222.284 284.934 145C284.934 67.7162 222.284 5.06543 145 5.06543V284.934Z" fill="#138B83"/>
<mask id="mask4_182_2903" style="mask-type:alpha" maskUnits="userSpaceOnUse" x="145" y="5" width="140" height="280">
<path fill-rule="evenodd" clip-rule="evenodd" d="M145 284.934C222.284 284.934 284.934 222.284 284.934 145C284.934 67.7162 222.284 5.06543 145 5.06543V284.934Z" fill="white"/>
</mask>
<g mask="url(#mask4_182_2903)">
<circle cx="145.634" cy="145" r="91.8122" fill="#1BB9AE"/>
<circle cx="144.683" cy="145.316" r="20.5786" fill="#06504C"/>
</g>
</svg>
