<svg width="285" height="285" viewBox="0 0 285 285" fill="none" xmlns="http://www.w3.org/2000/svg">
<g clip-path="url(#clip0_178_2062)">
<path d="M142.5 285C221.201 285 285 221.201 285 142.5C285 63.7994 221.201 0 142.5 0C63.7994 0 0 63.7994 0 142.5C0 221.201 63.7994 285 142.5 285Z" fill="#545BFE"/>
<mask id="mask0_178_2062" style="mask-type:alpha" maskUnits="userSpaceOnUse" x="0" y="0" width="285" height="285">
<path d="M142.5 285C221.201 285 285 221.201 285 142.5C285 63.7994 221.201 0 142.5 0C63.7994 0 0 63.7994 0 142.5C0 221.201 63.7994 285 142.5 285Z" fill="white"/>
</mask>
<g mask="url(#mask0_178_2062)">
<path d="M84.8665 222.3C89.0636 222.3 92.4665 218.897 92.4665 214.7C92.4665 210.503 89.0636 207.1 84.8665 207.1H72.8332C68.6361 207.1 65.2332 203.697 65.2332 199.5C65.2332 195.303 68.6361 191.9 72.8332 191.9H71.5665C75.7636 191.9 79.1665 188.497 79.1665 184.3C79.1665 180.103 75.7636 176.7 71.5665 176.7H65.2332C61.0361 176.7 57.6332 173.297 57.6332 169.1C57.6332 164.903 61.0361 161.5 65.2332 161.5C69.4303 161.5 72.8332 158.097 72.8332 153.9C72.8332 149.703 69.4303 146.3 65.2332 146.3C61.0361 146.3 57.6332 142.897 57.6332 138.7C57.6332 134.503 61.0361 131.1 65.2332 131.1H96.2665C100.464 131.1 103.867 134.503 103.867 138.7C103.867 142.897 100.464 146.3 96.2665 146.3H97.5332V146.306C93.483 146.473 90.2499 149.809 90.2499 153.9C90.2499 157.991 93.483 161.327 97.5332 161.494V161.5H129.833C134.03 161.5 137.433 164.903 137.433 169.1C137.433 173.297 134.03 176.7 129.833 176.7H126.033V176.706C121.983 176.872 118.75 180.209 118.75 184.3C118.75 188.391 121.983 191.728 126.033 191.894V191.9C130.23 191.9 133.633 195.303 133.633 199.5C133.633 203.697 130.23 207.1 126.033 207.1H108.933V207.106C104.883 207.272 101.65 210.609 101.65 214.7C101.65 218.791 104.883 222.128 108.933 222.294V222.3H106.4C110.597 222.3 114 225.703 114 229.9C114 234.097 110.597 237.5 106.4 237.5H88.0332C83.8361 237.5 80.4332 234.097 80.4332 229.9C80.4332 225.703 83.8361 222.3 88.0332 222.3H84.8665ZM31.0332 115.9C35.2303 115.9 38.6332 119.303 38.6332 123.5C38.6332 127.697 35.2303 131.1 31.0332 131.1H8.86654C4.66944 131.1 1.26654 127.697 1.26654 123.5C1.26654 119.303 4.66944 115.9 8.86654 115.9H31.0332ZM62.0665 100.7C66.2636 100.7 69.6665 104.103 69.6665 108.3C69.6665 112.497 66.2636 115.9 62.0665 115.9C57.8694 115.9 54.4665 112.497 54.4665 108.3C54.4665 104.103 57.8694 100.7 62.0665 100.7ZM111.467 9.5C115.664 9.5 119.067 12.9029 119.067 17.1C119.067 21.2971 115.664 24.7 111.467 24.7H110.833V24.7063C106.783 24.8729 103.55 28.2087 103.55 32.3C103.55 36.3913 106.783 39.7271 110.833 39.8937V39.9H115.267C119.464 39.9 122.867 43.3029 122.867 47.5C122.867 51.6971 119.464 55.1 115.267 55.1H71.5665V55.1063C67.5164 55.2729 64.2832 58.6087 64.2832 62.7C64.2832 66.7913 67.5164 70.1277 71.5665 70.2937V70.3H74.7332C78.9303 70.3 82.3332 73.7029 82.3332 77.9C82.3332 82.0971 78.9303 85.5 74.7332 85.5H-0.633464C-4.83056 85.5 -8.23346 82.0971 -8.23346 77.9C-8.23346 73.7029 -4.83056 70.3 -0.633464 70.3H5.69987C9.89697 70.3 13.2999 66.8971 13.2999 62.7C13.2999 58.5029 9.89697 55.1 5.69987 55.1H8.2332C4.0361 55.1 0.633203 51.6971 0.633203 47.5C0.633203 43.3029 4.0361 39.9 8.2332 39.9H12.0332C16.2303 39.9 19.6332 36.4971 19.6332 32.3C19.6332 28.1029 16.2303 24.7 12.0332 24.7H-18.3668C-22.5639 24.7 -25.9668 21.2971 -25.9668 17.1C-25.9668 12.9029 -22.5639 9.5 -18.3668 9.5H111.467Z" fill="#4FCDF9"/>
</g>
<mask id="mask1_178_2062" style="mask-type:alpha" maskUnits="userSpaceOnUse" x="0" y="0" width="285" height="285">
<path d="M142.5 285C221.201 285 285 221.201 285 142.5C285 63.7994 221.201 0 142.5 0C63.7994 0 0 63.7994 0 142.5C0 221.201 63.7994 285 142.5 285Z" fill="white"/>
</mask>
<g mask="url(#mask1_178_2062)">
<path d="M247 207.1C251.197 207.1 254.6 203.697 254.6 199.5C254.6 195.303 251.197 191.9 247 191.9C242.803 191.9 239.4 188.497 239.4 184.3C239.4 180.103 242.803 176.7 247 176.7H245.1C249.297 176.7 252.7 173.297 252.7 169.1C252.7 164.903 249.297 161.5 245.1 161.5H216.6C212.403 161.5 209 158.097 209 153.9C209 149.703 212.403 146.3 216.6 146.3C220.797 146.3 224.2 142.897 224.2 138.7C224.2 134.503 220.797 131.1 216.6 131.1H195.067C190.87 131.1 187.467 127.697 187.467 123.5C187.467 119.303 190.87 115.9 195.067 115.9H211.533C215.731 115.9 219.133 112.497 219.133 108.3C219.133 104.103 215.731 100.7 211.533 100.7C207.336 100.7 203.933 97.2973 203.933 93.1002C203.933 88.9031 207.336 85.5002 211.533 85.5002H247C251.197 85.5002 254.6 88.9031 254.6 93.1002C254.6 97.2973 251.197 100.7 247 100.7L246.999 100.707C242.949 100.873 239.717 104.209 239.717 108.3C239.717 112.392 242.949 115.727 246.999 115.894L247 115.9H304.633C308.831 115.9 312.233 119.303 312.233 123.5C312.233 127.697 308.831 131.1 304.633 131.1H291.967V131.107C287.917 131.273 284.683 134.609 284.683 138.7C284.683 142.792 287.917 146.127 291.967 146.294V146.3H298.3C302.497 146.3 305.9 149.703 305.9 153.9C305.9 158.097 302.497 161.5 298.3 161.5H288.8L288.799 161.507C284.749 161.673 281.517 165.009 281.517 169.1C281.517 173.192 284.749 176.527 288.799 176.694L288.8 176.7H287.533C291.731 176.7 295.133 180.103 295.133 184.3C295.133 188.497 291.731 191.9 287.533 191.9H274.867V191.907C270.817 192.072 267.583 195.409 267.583 199.5C267.583 203.592 270.817 206.928 274.867 207.094V207.1H272.333C276.531 207.1 279.933 210.503 279.933 214.7C279.933 218.897 276.531 222.3 272.333 222.3H249.533C245.336 222.3 241.933 218.897 241.933 214.7C241.933 210.503 245.336 207.1 249.533 207.1H247ZM304 191.9C308.197 191.9 311.6 195.303 311.6 199.5C311.6 203.697 308.197 207.1 304 207.1C299.803 207.1 296.4 203.697 296.4 199.5C296.4 195.303 299.803 191.9 304 191.9ZM292.6 85.5002C296.797 85.5002 300.2 88.9031 300.2 93.1002C300.2 97.2973 296.797 100.7 292.6 100.7H283.733C279.536 100.7 276.133 97.2973 276.133 93.1002C276.133 88.9031 279.536 85.5002 283.733 85.5002H292.6ZM418 39.9002C422.197 39.9002 425.6 43.3031 425.6 47.5002C425.6 51.6973 422.197 55.1002 418 55.1002H413.567V55.1065C409.517 55.2731 406.283 58.6089 406.283 62.7002C406.283 66.7915 409.517 70.1279 413.567 70.2939V70.3002H423.7C427.897 70.3002 431.3 73.7031 431.3 77.9002C431.3 82.0973 427.897 85.5002 423.7 85.5002H313.5C309.303 85.5002 305.9 82.0973 305.9 77.9002C305.9 73.7031 309.303 70.3002 313.5 70.3002H310.333C314.531 70.3002 317.933 66.8973 317.933 62.7002C317.933 58.5031 314.531 55.1002 310.333 55.1002H284.367C280.17 55.1002 276.767 51.6973 276.767 47.5002C276.767 43.3031 280.17 39.9002 284.367 39.9002H418ZM227.367 55.1002C231.564 55.1002 234.967 58.5031 234.967 62.7002C234.967 66.8973 231.564 70.3002 227.367 70.3002H212.167C207.97 70.3002 204.567 66.8973 204.567 62.7002C204.567 58.5031 207.97 55.1002 212.167 55.1002H227.367ZM251.433 55.1002C255.631 55.1002 259.033 58.5031 259.033 62.7002C259.033 66.8973 255.631 70.3002 251.433 70.3002H249.533C245.336 70.3002 241.933 66.8973 241.933 62.7002C241.933 58.5031 245.336 55.1002 249.533 55.1002H251.433ZM259.667 24.7002C263.864 24.7002 267.267 28.1031 267.267 32.3002C267.267 36.4973 263.864 39.9002 259.667 39.9002H244.467C240.27 39.9002 236.867 36.4973 236.867 32.3002C236.867 28.1031 240.27 24.7002 244.467 24.7002H259.667Z" fill="#4FCDF9"/>
</g>
<mask id="mask2_178_2062" style="mask-type:alpha" maskUnits="userSpaceOnUse" x="0" y="0" width="285" height="285">
<path d="M142.5 285C221.201 285 285 221.201 285 142.5C285 63.7994 221.201 0 142.5 0C63.7994 0 0 63.7994 0 142.5C0 221.201 63.7994 285 142.5 285Z" fill="white"/>
</mask>
<g mask="url(#mask2_178_2062)">
<path d="M261.567 70.3001C265.764 70.3001 269.167 73.703 269.167 77.9001C269.167 82.0972 265.764 85.5001 261.567 85.5001H222.3C218.103 85.5001 214.7 82.0972 214.7 77.9001C214.7 73.703 218.103 70.3001 222.3 70.3001H261.567ZM194.433 32.3001C194.433 28.103 191.03 24.7001 186.833 24.7001H110.833C106.636 24.7001 103.233 21.2972 103.233 17.1001C103.233 12.903 106.636 9.5001 110.833 9.5001H141.867C146.064 9.5001 149.467 6.0972 149.467 1.9001C149.467 -2.297 146.064 -5.6999 141.867 -5.6999H131.733C127.536 -5.6999 124.133 -9.1028 124.133 -13.2999C124.133 -17.497 127.536 -20.8999 131.733 -20.8999H171C175.197 -20.8999 178.6 -17.497 178.6 -13.2999C178.6 -9.1028 175.197 -5.6999 171 -5.6999H172.267V-5.69357C168.217 -5.52764 164.983 -2.19124 164.983 1.9001C164.983 5.99143 168.217 9.32783 172.267 9.49376V9.5001H273.6C277.797 9.5001 281.2 12.903 281.2 17.1001C281.2 21.2972 277.797 24.7001 273.6 24.7001H230.533L230.533 24.7064C226.483 24.873 223.25 28.2088 223.25 32.3001C223.25 36.3914 226.483 39.7272 230.533 39.8938V39.9001H232.433C236.63 39.9001 240.033 43.303 240.033 47.5001C240.033 51.6972 236.63 55.1001 232.433 55.1001H184.3C180.103 55.1001 176.7 51.6972 176.7 47.5001C176.7 43.303 180.103 39.9001 184.3 39.9001H186.833C191.03 39.9001 194.433 36.4972 194.433 32.3001ZM275.5 39.9001C279.697 39.9001 283.1 43.303 283.1 47.5001C283.1 51.6972 279.697 55.1001 275.5 55.1001H262.833C258.636 55.1001 255.233 51.6972 255.233 47.5001C255.233 43.303 258.636 39.9001 262.833 39.9001H275.5ZM153.9 39.9001C158.097 39.9001 161.5 43.303 161.5 47.5001C161.5 51.6972 158.097 55.1001 153.9 55.1001H141.233C137.036 55.1001 133.633 51.6972 133.633 47.5001C133.633 43.303 137.036 39.9001 141.233 39.9001H153.9ZM300.2 -20.8999C304.397 -20.8999 307.8 -17.497 307.8 -13.2999C307.8 -9.1028 304.397 -5.6999 300.2 -5.6999H201.4C197.203 -5.6999 193.8 -9.1028 193.8 -13.2999C193.8 -17.497 197.203 -20.8999 201.4 -20.8999H300.2Z" fill="white"/>
</g>
<mask id="mask3_178_2062" style="mask-type:alpha" maskUnits="userSpaceOnUse" x="0" y="0" width="285" height="285">
<path d="M142.5 285C221.201 285 285 221.201 285 142.5C285 63.7994 221.201 0 142.5 0C63.7994 0 0 63.7994 0 142.5C0 221.201 63.7994 285 142.5 285Z" fill="white"/>
</mask>
<g mask="url(#mask3_178_2062)">
<path d="M61.4337 229.9C61.4337 225.703 58.0308 222.3 53.8337 222.3H10.767C6.56989 222.3 3.16699 218.897 3.16699 214.7C3.16699 210.503 6.56989 207.1 10.767 207.1H74.7337C78.9308 207.1 82.3337 203.697 82.3337 199.5C82.3337 195.303 78.9308 191.9 74.7337 191.9H60.167C55.9699 191.9 52.567 188.497 52.567 184.3C52.567 180.103 55.9699 176.7 60.167 176.7H134.9C139.097 176.7 142.5 180.103 142.5 184.3C142.5 188.497 139.097 191.9 134.9 191.9H105.134V191.907C101.083 192.072 97.8503 195.409 97.8503 199.5C97.8503 203.592 101.083 206.928 105.134 207.094V207.1H114C118.197 207.1 121.6 210.503 121.6 214.7C121.6 218.897 118.197 222.3 114 222.3H97.5337L97.533 222.307C93.4829 222.473 90.2503 225.809 90.2503 229.9C90.2503 233.992 93.4829 237.327 97.533 237.494L97.5337 237.5H99.4337C103.631 237.5 107.034 240.903 107.034 245.1C107.034 249.297 103.631 252.7 99.4337 252.7H51.3003C47.1032 252.7 43.7003 249.297 43.7003 245.1C43.7003 240.903 47.1032 237.5 51.3003 237.5H53.8337C58.0308 237.5 61.4337 234.097 61.4337 229.9ZM157.067 207.1C161.264 207.1 164.667 210.503 164.667 214.7C164.667 218.897 161.264 222.3 157.067 222.3H144.4C140.203 222.3 136.8 218.897 136.8 214.7C136.8 210.503 140.203 207.1 144.4 207.1H157.067Z" fill="white"/>
</g>
<mask id="mask4_178_2062" style="mask-type:alpha" maskUnits="userSpaceOnUse" x="0" y="0" width="285" height="285">
<path d="M142.5 285C221.201 285 285 221.201 285 142.5C285 63.7994 221.201 0 142.5 0C63.7994 0 0 63.7994 0 142.5C0 221.201 63.7994 285 142.5 285Z" fill="white"/>
</mask>
<g mask="url(#mask4_178_2062)">
<path d="M221.033 290.7C221.033 286.503 217.63 283.1 213.433 283.1H170.367C166.17 283.1 162.767 279.697 162.767 275.5C162.767 271.303 166.17 267.9 170.367 267.9H234.333C238.53 267.9 241.933 264.497 241.933 260.3C241.933 256.103 238.53 252.7 234.333 252.7H219.767C215.57 252.7 212.167 249.297 212.167 245.1C212.167 240.903 215.57 237.5 219.767 237.5H294.5C298.697 237.5 302.1 240.903 302.1 245.1C302.1 249.297 298.697 252.7 294.5 252.7H264.733V252.706C260.683 252.872 257.45 256.209 257.45 260.3C257.45 264.391 260.683 267.728 264.733 267.894V267.9H273.6C277.797 267.9 281.2 271.303 281.2 275.5C281.2 279.697 277.797 283.1 273.6 283.1H257.133L257.133 283.106C253.082 283.273 249.85 286.609 249.85 290.7C249.85 294.791 253.082 298.127 257.133 298.294L257.133 298.3H259.033C263.23 298.3 266.633 301.703 266.633 305.9C266.633 310.097 263.23 313.5 259.033 313.5H210.9C206.703 313.5 203.3 310.097 203.3 305.9C203.3 301.703 206.703 298.3 210.9 298.3H213.433C217.63 298.3 221.033 294.897 221.033 290.7ZM316.667 267.9C320.864 267.9 324.267 271.303 324.267 275.5C324.267 279.697 320.864 283.1 316.667 283.1H304C299.803 283.1 296.4 279.697 296.4 275.5C296.4 271.303 299.803 267.9 304 267.9H316.667Z" fill="white"/>
</g>
<mask id="mask5_178_2062" style="mask-type:alpha" maskUnits="userSpaceOnUse" x="0" y="0" width="285" height="285">
<path d="M142.5 285C221.201 285 285 221.201 285 142.5C285 63.7994 221.201 0 142.5 0C63.7994 0 0 63.7994 0 142.5C0 221.201 63.7994 285 142.5 285Z" fill="white"/>
</mask>
<g mask="url(#mask5_178_2062)">
<path opacity="0.078" d="M142.807 -15.8335H301.447V300.833H142.807V-15.8335Z" fill="black"/>
</g>
</g>
<defs>
<clipPath id="clip0_178_2062">
<rect width="285" height="285" fill="white"/>
</clipPath>
</defs>
</svg>
