<svg width="369" height="369" viewBox="0 0 369 369" fill="none" xmlns="http://www.w3.org/2000/svg">
<g clip-path="url(#clip0_178_2083)">
<path d="M184.5 369C286.397 369 369 286.397 369 184.5C369 82.6035 286.397 0 184.5 0C82.6035 0 0 82.6035 0 184.5C0 286.397 82.6035 369 184.5 369Z" fill="#ECAD7A"/>
<mask id="mask0_178_2083" style="mask-type:alpha" maskUnits="userSpaceOnUse" x="0" y="0" width="369" height="369">
<path d="M184.5 369C286.397 369 369 286.397 369 184.5C369 82.6035 286.397 0 184.5 0C82.6035 0 0 82.6035 0 184.5C0 286.397 82.6035 369 184.5 369Z" fill="white"/>
</mask>
<g mask="url(#mask0_178_2083)">
<path fill-rule="evenodd" clip-rule="evenodd" d="M24.0926 186.402C28.2943 186.402 31.7009 189.808 31.7009 194.01C31.7009 198.212 28.2943 201.618 24.0926 201.618H-74.8146C-79.0163 201.618 -82.4229 198.212 -82.4229 194.01C-82.4229 189.808 -79.0163 186.402 -74.8146 186.402H24.0926ZM163.577 186.402C167.779 186.402 171.185 189.808 171.185 194.01C171.185 198.212 167.779 201.618 163.577 201.618H114.124V201.625C110.069 201.791 106.832 205.131 106.832 209.227C106.832 213.322 110.069 216.662 114.124 216.828V216.835H215.567C219.768 216.835 223.175 220.241 223.175 224.443C223.175 228.645 219.768 232.051 215.567 232.051H52.6235C48.4219 232.051 45.0153 228.645 45.0153 224.443C45.0153 220.241 48.4219 216.835 52.6235 216.835H83.6905C87.8922 216.835 91.2988 213.428 91.2988 209.227C91.2988 205.025 87.8922 201.618 83.6905 201.618H64.6699C60.4683 201.618 57.0617 198.212 57.0617 194.01C57.0617 189.808 60.4683 186.402 64.6699 186.402H163.577ZM33.6029 247.268C37.8046 247.268 41.2112 250.674 41.2112 254.876C41.2112 259.078 37.8046 262.484 33.6029 262.484H-12.6806C-16.8822 262.484 -20.2888 259.078 -20.2888 254.876C-20.2888 250.674 -16.8822 247.268 -12.6806 247.268H33.6029ZM215.567 247.268C219.768 247.268 223.175 250.674 223.175 254.876C223.175 259.078 219.768 262.484 215.567 262.484H169.283C165.082 262.484 161.675 259.078 161.675 254.876C161.675 250.674 165.082 247.268 169.283 247.268H215.567ZM382.948 254.876C382.948 250.674 379.542 247.268 375.34 247.268H270.093C265.891 247.268 262.484 250.674 262.484 254.876C262.484 259.078 265.891 262.484 270.093 262.484H375.34C379.542 262.484 382.948 259.078 382.948 254.876ZM262.484 201.618C266.686 201.618 270.093 205.025 270.093 209.227C270.093 213.428 266.686 216.835 262.484 216.835H256.778C252.576 216.835 249.17 220.241 249.17 224.443C249.17 228.645 252.576 232.051 256.778 232.051H419.721C423.923 232.051 427.33 228.645 427.33 224.443C427.33 220.241 423.923 216.835 419.721 216.835H292.917V216.828C288.863 216.662 285.626 213.322 285.626 209.227C285.626 205.131 288.863 201.791 292.917 201.625V201.618H308.134C312.335 201.618 315.742 198.212 315.742 194.01C315.742 189.808 312.335 186.402 308.134 186.402H209.227C205.025 186.402 201.618 189.808 201.618 194.01C201.618 198.212 205.025 201.618 209.227 201.618H262.484ZM451.422 194.01C451.422 189.808 448.016 186.402 443.814 186.402H344.907C340.705 186.402 337.299 189.808 337.299 194.01C337.299 198.212 340.705 201.618 344.907 201.618H443.814C448.016 201.618 451.422 198.212 451.422 194.01Z" fill="#F0D29F"/>
</g>
<mask id="mask1_178_2083" style="mask-type:alpha" maskUnits="userSpaceOnUse" x="0" y="0" width="369" height="369">
<path d="M184.5 369C286.397 369 369 286.397 369 184.5C369 82.6035 286.397 0 184.5 0C82.6035 0 0 82.6035 0 184.5C0 286.397 82.6035 369 184.5 369Z" fill="white"/>
</mask>
<g mask="url(#mask1_178_2083)">
<path d="M100.809 254.876C100.809 250.675 97.4026 247.268 93.2009 247.268H74.8143C70.6126 247.268 67.2061 243.862 67.2061 239.66C67.2061 235.458 70.6126 232.052 74.8143 232.052H138.85C143.052 232.052 146.459 235.458 146.459 239.66C146.459 243.862 143.052 247.268 138.85 247.268H136.948L136.948 247.275C132.893 247.441 129.657 250.781 129.657 254.876C129.657 258.972 132.893 262.312 136.948 262.478L136.948 262.485H138.85C143.052 262.485 146.459 265.891 146.459 270.093C146.459 274.295 143.052 277.701 138.85 277.701H90.6648C86.4632 277.701 83.0566 274.295 83.0566 270.093C83.0566 265.891 86.4632 262.485 90.6648 262.485H93.2009C97.4026 262.485 100.809 259.078 100.809 254.876Z" fill="#D86534"/>
</g>
<mask id="mask2_178_2083" style="mask-type:alpha" maskUnits="userSpaceOnUse" x="0" y="0" width="369" height="369">
<path d="M184.5 369C286.397 369 369 286.397 369 184.5C369 82.6035 286.397 0 184.5 0C82.6035 0 0 82.6035 0 184.5C0 286.397 82.6035 369 184.5 369Z" fill="white"/>
</mask>
<g mask="url(#mask2_178_2083)">
<path fill-rule="evenodd" clip-rule="evenodd" d="M295.454 34.2373C291.252 34.2373 287.846 37.6439 287.846 41.8456C287.846 46.0472 291.252 49.4538 295.454 49.4538H394.361C398.563 49.4538 401.969 46.0472 401.969 41.8456C401.969 37.6439 398.563 34.2373 394.361 34.2373H295.454ZM155.969 34.2373C151.768 34.2373 148.361 37.6439 148.361 41.8456C148.361 46.0472 151.768 49.4538 155.969 49.4538H205.423V49.4601C209.478 49.6263 212.714 52.9663 212.714 57.062C212.714 61.1578 209.478 64.4978 205.423 64.664V64.6703H103.98C99.778 64.6703 96.3714 68.0769 96.3714 72.2785C96.3714 76.4802 99.778 79.8868 103.98 79.8868H266.923C271.125 79.8868 274.531 76.4802 274.531 72.2785C274.531 68.0769 271.125 64.6703 266.923 64.6703H235.856C231.654 64.6703 228.248 61.2637 228.248 57.062C228.248 52.8604 231.654 49.4538 235.856 49.4538H254.877C259.078 49.4538 262.485 46.0472 262.485 41.8456C262.485 37.6439 259.078 34.2373 254.877 34.2373H155.969ZM285.944 95.1033C281.742 95.1033 278.335 98.5099 278.335 102.712C278.335 106.913 281.742 110.32 285.944 110.32H332.227C336.429 110.32 339.835 106.913 339.835 102.712C339.835 98.5099 336.429 95.1033 332.227 95.1033H285.944ZM103.98 95.1033C99.778 95.1033 96.3714 98.5099 96.3714 102.712C96.3714 106.913 99.778 110.32 103.98 110.32H150.263C154.465 110.32 157.871 106.913 157.871 102.712C157.871 98.5099 154.465 95.1033 150.263 95.1033H103.98ZM-63.4018 102.712C-63.4018 98.5099 -59.9952 95.1033 -55.7935 95.1033H49.4539C53.6556 95.1033 57.0622 98.5099 57.0622 102.712C57.0622 106.913 53.6556 110.32 49.4539 110.32H-55.7935C-59.9952 110.32 -63.4018 106.913 -63.4018 102.712ZM57.0622 49.4538C52.8605 49.4538 49.4539 52.8604 49.4539 57.062C49.4539 61.2637 52.8605 64.6703 57.0622 64.6703H62.7683C66.97 64.6703 70.3766 68.0769 70.3766 72.2785C70.3766 76.4802 66.97 79.8868 62.7683 79.8868H-100.175C-104.377 79.8868 -107.783 76.4802 -107.783 72.2785C-107.783 68.0769 -104.377 64.6703 -100.175 64.6703H26.6292V64.664C30.6837 64.4978 33.9204 61.1578 33.9204 57.062C33.9204 52.9663 30.6837 49.6263 26.6292 49.4601V49.4538H11.4127C7.21102 49.4538 3.80442 46.0472 3.80442 41.8456C3.80442 37.6439 7.21102 34.2373 11.4127 34.2373H110.32C114.522 34.2373 117.928 37.6439 117.928 41.8456C117.928 46.0472 114.522 49.4538 110.32 49.4538H57.0622ZM-131.876 41.8456C-131.876 37.6439 -128.469 34.2373 -124.268 34.2373H-25.3605C-21.1589 34.2373 -17.7523 37.6439 -17.7523 41.8456C-17.7523 46.0472 -21.1589 49.4538 -25.3605 49.4538H-124.268C-128.469 49.4538 -131.876 46.0472 -131.876 41.8456Z" fill="#DC8E61"/>
</g>
<mask id="mask3_178_2083" style="mask-type:alpha" maskUnits="userSpaceOnUse" x="0" y="0" width="369" height="369">
<path d="M184.5 369C286.397 369 369 286.397 369 184.5C369 82.6035 286.397 0 184.5 0C82.6035 0 0 82.6035 0 184.5C0 286.397 82.6035 369 184.5 369Z" fill="white"/>
</mask>
<g mask="url(#mask3_178_2083)">
<path fill-rule="evenodd" clip-rule="evenodd" d="M395.629 277.701C391.427 277.701 388.02 281.108 388.02 285.309C388.02 289.511 391.427 292.918 395.629 292.918H494.536C498.738 292.918 502.144 289.511 502.144 285.309C502.144 281.108 498.738 277.701 494.536 277.701H395.629ZM256.144 277.701C251.943 277.701 248.536 281.108 248.536 285.309C248.536 289.511 251.943 292.918 256.144 292.918H305.598V292.924C309.652 293.09 312.889 296.43 312.889 300.526C312.889 304.622 309.652 307.962 305.598 308.128V308.134H204.154C199.953 308.134 196.546 311.541 196.546 315.742C196.546 319.944 199.953 323.351 204.154 323.351H367.098C371.299 323.351 374.706 319.944 374.706 315.742C374.706 311.541 371.299 308.134 367.098 308.134H336.031C331.829 308.134 328.423 304.728 328.423 300.526C328.423 296.324 331.829 292.918 336.031 292.918H355.051C359.253 292.918 362.66 289.511 362.66 285.309C362.66 281.108 359.253 277.701 355.051 277.701H256.144ZM386.118 338.567C381.917 338.567 378.51 341.974 378.51 346.175C378.51 350.377 381.917 353.784 386.118 353.784H432.402C436.604 353.784 440.01 350.377 440.01 346.175C440.01 341.974 436.604 338.567 432.402 338.567H386.118ZM204.154 338.567C199.953 338.567 196.546 341.974 196.546 346.175C196.546 350.377 199.953 353.784 204.154 353.784H250.438C254.64 353.784 258.046 350.377 258.046 346.175C258.046 341.974 254.64 338.567 250.438 338.567H204.154ZM36.773 346.175C36.773 341.974 40.1796 338.567 44.3813 338.567H149.629C153.83 338.567 157.237 341.974 157.237 346.175C157.237 350.377 153.83 353.784 149.629 353.784H44.3813C40.1796 353.784 36.773 350.377 36.773 346.175ZM157.237 292.918C153.035 292.918 149.629 296.324 149.629 300.526C149.629 304.728 153.035 308.134 157.237 308.134H162.943C167.145 308.134 170.551 311.541 170.551 315.742C170.551 319.944 167.145 323.351 162.943 323.351H-0.000143528C-4.2018 323.351 -7.60839 319.944 -7.60839 315.742C-7.60839 311.541 -4.2018 308.134 -0.000143528 308.134H126.804V308.128C130.859 307.962 134.095 304.622 134.095 300.526C134.095 296.43 130.859 293.09 126.804 292.924V292.918H111.587C107.386 292.918 103.979 289.511 103.979 285.309C103.979 281.108 107.386 277.701 111.587 277.701H210.495C214.696 277.701 218.103 281.108 218.103 285.309C218.103 289.511 214.696 292.918 210.495 292.918H157.237ZM-31.7012 285.309C-31.7012 281.108 -28.2946 277.701 -24.0929 277.701H74.8143C79.0159 277.701 82.4225 281.108 82.4225 285.309C82.4225 289.511 79.0159 292.918 74.8143 292.918H-24.0929C-28.2946 292.918 -31.7012 289.511 -31.7012 285.309Z" fill="#D89D6D"/>
</g>
<mask id="mask4_178_2083" style="mask-type:alpha" maskUnits="userSpaceOnUse" x="0" y="0" width="369" height="369">
<path d="M184.5 369C286.397 369 369 286.397 369 184.5C369 82.6035 286.397 0 184.5 0C82.6035 0 0 82.6035 0 184.5C0 286.397 82.6035 369 184.5 369Z" fill="white"/>
</mask>
<g mask="url(#mask4_178_2083)">
<path fill-rule="evenodd" clip-rule="evenodd" d="M112.222 140.753C116.424 140.753 119.83 144.159 119.83 148.361C119.83 152.563 116.424 155.969 112.222 155.969H105.882C101.68 155.969 98.2735 159.376 98.2735 163.577C98.2735 167.779 101.68 171.186 105.882 171.186H162.31C166.511 171.186 169.918 167.779 169.918 163.577C169.918 159.376 166.511 155.969 162.31 155.969H155.969L155.969 155.963C151.914 155.796 148.678 152.457 148.678 148.361C148.678 144.265 151.914 140.926 155.969 140.759L155.969 140.753H197.181C201.382 140.753 204.789 137.346 204.789 133.144C204.789 128.943 201.382 125.536 197.181 125.536H71.0107C66.809 125.536 63.4024 128.943 63.4024 133.144C63.4024 137.346 66.809 140.753 71.0107 140.753H112.222ZM83.057 163.577C83.057 159.376 79.6505 155.969 75.4488 155.969H36.1395C31.9379 155.969 28.5313 159.376 28.5313 163.577C28.5313 167.779 31.9379 171.186 36.1395 171.186H75.4488C79.6505 171.186 83.057 167.779 83.057 163.577ZM5.70653 155.969C9.90818 155.969 13.3148 159.376 13.3148 163.577C13.3148 167.779 9.90818 171.186 5.70653 171.186H-12.046C-16.2477 171.186 -19.6543 167.779 -19.6543 163.577C-19.6543 159.376 -16.2477 155.969 -12.046 155.969H5.70653ZM306.866 163.577C306.866 159.376 303.46 155.969 299.258 155.969H192.743C188.541 155.969 185.134 159.376 185.134 163.577C185.134 167.779 188.541 171.186 192.743 171.186H299.258C303.46 171.186 306.866 167.779 306.866 163.577ZM347.444 155.969C351.645 155.969 355.052 159.376 355.052 163.577C355.052 167.779 351.645 171.186 347.444 171.186H329.691C325.489 171.186 322.083 167.779 322.083 163.577C322.083 159.376 325.489 155.969 329.691 155.969H347.444ZM325.253 133.144C325.253 128.943 321.846 125.536 317.645 125.536H227.614C223.412 125.536 220.005 128.943 220.005 133.144C220.005 137.346 223.412 140.753 227.614 140.753H317.645C321.846 140.753 325.253 137.346 325.253 133.144ZM379.779 125.536C383.98 125.536 387.387 128.943 387.387 133.144C387.387 137.346 383.98 140.753 379.779 140.753H348.078C343.876 140.753 340.469 137.346 340.469 133.144C340.469 128.943 343.876 125.536 348.078 125.536H379.779ZM32.9694 133.144C32.9694 128.943 29.5628 125.536 25.3612 125.536H7.60859C3.40694 125.536 0.000342548 128.943 0.000342548 133.144C0.000342548 137.346 3.40694 140.753 7.60859 140.753H25.3612C29.5628 140.753 32.9694 137.346 32.9694 133.144Z" fill="#D89D6D"/>
</g>
<mask id="mask5_178_2083" style="mask-type:alpha" maskUnits="userSpaceOnUse" x="0" y="0" width="369" height="369">
<path d="M184.5 369C286.397 369 369 286.397 369 184.5C369 82.6035 286.397 0 184.5 0C82.6035 0 0 82.6035 0 184.5C0 286.397 82.6035 369 184.5 369Z" fill="white"/>
</mask>
<g mask="url(#mask5_178_2083)">
<path opacity="0.078" d="M184.5 0H369.634V369H184.5V0Z" fill="black"/>
</g>
</g>
<defs>
<clipPath id="clip0_178_2083">
<rect width="369" height="369" fill="white"/>
</clipPath>
</defs>
</svg>
