<svg width="176" height="176" viewBox="0 0 176 176" fill="none" xmlns="http://www.w3.org/2000/svg">
<circle cx="88" cy="88" r="88" fill="#65F0D5"/>
<mask id="mask0_184_2905" style="mask-type:alpha" maskUnits="userSpaceOnUse" x="0" y="0" width="176" height="176">
<circle cx="88" cy="88" r="88" fill="white"/>
</mask>
<g mask="url(#mask0_184_2905)">
<path fill-rule="evenodd" clip-rule="evenodd" d="M171.051 -57.6417C171.051 -55.0949 168.986 -53.0304 166.439 -53.0304C163.893 -53.0304 161.828 -55.0949 161.828 -57.6417V-117.589C161.828 -120.136 163.893 -122.201 166.439 -122.201C168.986 -122.201 171.051 -120.136 171.051 -117.589V-57.6417ZM171.051 26.8997C171.051 29.4465 168.986 31.5111 166.439 31.5111C163.893 31.5111 161.828 29.4465 161.828 26.8997V-3.07404L161.824 -3.07391C161.723 -5.53165 159.699 -7.49326 157.217 -7.49326C154.734 -7.49326 152.71 -5.53165 152.609 -3.07391L152.605 -3.07404V58.4107C152.605 60.9575 150.541 63.022 147.994 63.022C145.447 63.022 143.383 60.9575 143.383 58.4107V-40.3492C143.383 -42.8959 145.447 -44.9605 147.994 -44.9605C150.541 -44.9605 152.605 -42.8959 152.605 -40.3492V-21.5195C152.605 -18.9727 154.67 -16.9081 157.217 -16.9081C159.763 -16.9081 161.828 -18.9727 161.828 -21.5195V-33.0479C161.828 -35.5946 163.893 -37.6592 166.439 -37.6592C168.986 -37.6592 171.051 -35.5946 171.051 -33.0479V26.8997ZM134.16 -51.8776C134.16 -49.3308 132.095 -47.2662 129.549 -47.2662C127.002 -47.2662 124.937 -49.3308 124.937 -51.8776V-79.9299C124.937 -82.4767 127.002 -84.5413 129.549 -84.5413C132.095 -84.5413 134.16 -82.4767 134.16 -79.9299V-51.8776ZM134.16 58.4107C134.16 60.9575 132.095 63.022 129.549 63.022C127.002 63.022 124.937 60.9575 124.937 58.4107L124.937 30.3583C124.937 27.8115 127.002 25.7469 129.549 25.7469C132.095 25.7469 134.16 27.8115 134.16 30.3583V58.4107ZM129.549 159.86C132.095 159.86 134.16 157.796 134.16 155.249V91.4587C134.16 88.9119 132.095 86.8474 129.549 86.8474C127.002 86.8474 124.937 88.9119 124.937 91.4587V155.249C124.937 157.796 127.002 159.86 129.549 159.86ZM161.828 86.8474C161.828 89.3941 159.763 91.4587 157.217 91.4587C154.67 91.4587 152.605 89.3941 152.605 86.8474V83.3888C152.605 80.842 150.541 78.7775 147.994 78.7775C145.447 78.7775 143.383 80.842 143.383 83.3888L143.383 182.149C143.383 184.695 145.447 186.76 147.994 186.76C150.541 186.76 152.605 184.695 152.605 182.149L152.605 105.293L152.609 105.293C152.71 102.835 154.734 100.874 157.217 100.874C159.699 100.874 161.723 102.835 161.824 105.293L161.828 105.293V114.515C161.828 117.062 163.893 119.127 166.439 119.127C168.986 119.127 171.051 117.062 171.051 114.515L171.051 54.5679C171.051 52.0211 168.986 49.9565 166.439 49.9565C163.893 49.9565 161.828 52.0211 161.828 54.5679V86.8474ZM166.439 201.363C168.986 201.363 171.051 199.298 171.051 196.751V136.804C171.051 134.257 168.986 132.192 166.439 132.192C163.893 132.192 161.828 134.257 161.828 136.804V196.751C161.828 199.298 163.893 201.363 166.439 201.363Z" fill="#49CBC2"/>
</g>
<mask id="mask1_184_2905" style="mask-type:alpha" maskUnits="userSpaceOnUse" x="0" y="0" width="176" height="176">
<circle cx="88" cy="88" r="88" fill="white"/>
</mask>
<g mask="url(#mask1_184_2905)">
<path fill-rule="evenodd" clip-rule="evenodd" d="M69.6006 -84.5416C69.6006 -81.9948 71.6652 -79.9303 74.2119 -79.9303C76.7587 -79.9303 78.8233 -81.9948 78.8233 -84.5416V-144.489C78.8233 -147.036 76.7587 -149.101 74.2119 -149.101C71.6652 -149.101 69.6006 -147.036 69.6006 -144.489V-84.5416ZM69.6006 -0.000152588C69.6006 2.54663 71.6652 4.61121 74.2119 4.61121C76.7587 4.61121 78.8233 2.54663 78.8233 -0.000152588L78.8233 -29.9739L78.8272 -29.9738C78.9279 -32.4315 80.9522 -34.3932 83.4346 -34.3932C85.9171 -34.3932 87.9414 -32.4315 88.0421 -29.9738L88.046 -29.9739L88.046 31.5108C88.046 34.0576 90.1106 36.1221 92.6574 36.1221C95.2041 36.1221 97.2687 34.0576 97.2687 31.5108L97.2687 -67.2491C97.2687 -69.7958 95.2041 -71.8604 92.6574 -71.8604C90.1106 -71.8604 88.046 -69.7958 88.046 -67.2491V-48.4194C88.046 -45.8726 85.9814 -43.808 83.4346 -43.808C80.8879 -43.808 78.8233 -45.8726 78.8233 -48.4194V-59.9478C78.8233 -62.4945 76.7587 -64.5591 74.2119 -64.5591C71.6652 -64.5591 69.6006 -62.4945 69.6006 -59.9478L69.6006 -0.000152588ZM106.491 -78.7774C106.491 -76.2307 108.556 -74.1661 111.103 -74.1661C113.65 -74.1661 115.714 -76.2307 115.714 -78.7774V-106.83C115.714 -109.377 113.65 -111.441 111.103 -111.441C108.556 -111.441 106.491 -109.377 106.491 -106.83V-78.7774ZM106.491 31.5108C106.491 34.0576 108.556 36.1221 111.103 36.1221C113.65 36.1221 115.714 34.0576 115.714 31.5108L115.714 3.45837C115.714 0.911591 113.65 -1.15298 111.103 -1.15298C108.556 -1.15298 106.491 0.911591 106.491 3.45837L106.491 31.5108ZM111.103 132.961C108.556 132.961 106.491 130.896 106.491 128.349V64.5588C106.491 62.012 108.556 59.9474 111.103 59.9474C113.65 59.9474 115.714 62.012 115.714 64.5588V128.349C115.714 130.896 113.65 132.961 111.103 132.961ZM78.8233 59.9474C78.8233 62.4942 80.8879 64.5588 83.4346 64.5588C85.9814 64.5588 88.046 62.4942 88.046 59.9474V56.4889C88.046 53.9421 90.1106 51.8776 92.6574 51.8776C95.2041 51.8776 97.2687 53.9421 97.2687 56.4889V155.249C97.2687 157.796 95.2041 159.86 92.6574 159.86C90.1106 159.86 88.046 157.796 88.046 155.249V78.3929L88.0421 78.393C87.9414 75.9353 85.9171 73.9736 83.4346 73.9736C80.9522 73.9736 78.9279 75.9353 78.8272 78.393L78.8233 78.3929V87.6156C78.8233 90.1624 76.7587 92.2269 74.2119 92.2269C71.6652 92.2269 69.6006 90.1624 69.6006 87.6156V27.668C69.6006 25.1212 71.6652 23.0566 74.2119 23.0566C76.7587 23.0566 78.8233 25.1212 78.8233 27.668V59.9474ZM74.2119 174.463C71.6652 174.463 69.6006 172.398 69.6006 169.851V109.904C69.6006 107.357 71.6652 105.292 74.2119 105.292C76.7587 105.292 78.8233 107.357 78.8233 109.904V169.851C78.8233 172.398 76.7587 174.463 74.2119 174.463Z" fill="#50DECD"/>
</g>
<mask id="mask2_184_2905" style="mask-type:alpha" maskUnits="userSpaceOnUse" x="0" y="0" width="176" height="176">
<circle cx="88" cy="88" r="88" fill="white"/>
</mask>
<g mask="url(#mask2_184_2905)">
<path fill-rule="evenodd" clip-rule="evenodd" d="M60.3779 -97.2228C60.3779 -94.676 58.3134 -92.6115 55.7666 -92.6115C53.2198 -92.6115 51.1552 -94.676 51.1552 -97.2228V-157.17C51.1552 -159.717 53.2198 -161.782 55.7666 -161.782C58.3134 -161.782 60.3779 -159.717 60.3779 -157.17L60.3779 -97.2228ZM60.3779 -12.6813C60.3779 -10.1345 58.3134 -8.06995 55.7666 -8.06995C53.2198 -8.06995 51.1552 -10.1345 51.1552 -12.6813V-42.6551L51.1513 -42.655C51.0506 -45.1127 49.0263 -47.0743 46.5439 -47.0743C44.0614 -47.0743 42.0371 -45.1127 41.9364 -42.655L41.9325 -42.6551L41.9325 18.8296C41.9325 21.3764 39.8679 23.441 37.3212 23.441C34.7744 23.441 32.7098 21.3764 32.7098 18.8296L32.7098 -79.9302C32.7098 -82.477 34.7744 -84.5416 37.3212 -84.5416C39.8679 -84.5416 41.9325 -82.477 41.9325 -79.9302L41.9325 -61.1005C41.9325 -58.5537 43.9971 -56.4892 46.5439 -56.4892C49.0907 -56.4892 51.1552 -58.5537 51.1552 -61.1005V-72.6289C51.1552 -75.1757 53.2198 -77.2403 55.7666 -77.2403C58.3134 -77.2403 60.3779 -75.1757 60.3779 -72.6289V-12.6813ZM23.4871 -91.4586C23.4871 -88.9118 21.4225 -86.8473 18.8757 -86.8473C16.329 -86.8473 14.2644 -88.9118 14.2644 -91.4586L14.2644 -119.511C14.2644 -122.058 16.329 -124.122 18.8757 -124.122C21.4225 -124.122 23.4871 -122.058 23.4871 -119.511L23.4871 -91.4586ZM23.4871 18.8296C23.4871 21.3764 21.4225 23.4409 18.8757 23.4409C16.329 23.4409 14.2644 21.3764 14.2644 18.8296L14.2644 -9.22281C14.2644 -11.7696 16.329 -13.8342 18.8757 -13.8342C21.4225 -13.8342 23.4871 -11.7696 23.4871 -9.22281L23.4871 18.8296ZM18.8757 120.279C21.4225 120.279 23.4871 118.215 23.4871 115.668V51.8777C23.4871 49.3309 21.4225 47.2663 18.8757 47.2663C16.329 47.2663 14.2644 49.3309 14.2644 51.8777V115.668C14.2644 118.215 16.329 120.279 18.8757 120.279ZM51.1552 47.2663C51.1552 49.8131 49.0907 51.8777 46.5439 51.8777C43.9971 51.8777 41.9325 49.8131 41.9325 47.2663V43.8078C41.9325 41.261 39.8679 39.1964 37.3212 39.1964C34.7744 39.1964 32.7098 41.261 32.7098 43.8078V142.568C32.7098 145.114 34.7744 147.179 37.3212 147.179C39.8679 147.179 41.9325 145.114 41.9325 142.568V65.7117L41.9364 65.7119C42.0371 63.2541 44.0614 61.2925 46.5439 61.2925C49.0263 61.2925 51.0506 63.2541 51.1513 65.7119L51.1552 65.7117V74.9344C51.1552 77.4812 53.2198 79.5458 55.7666 79.5458C58.3134 79.5458 60.3779 77.4812 60.3779 74.9344V14.9868C60.3779 12.44 58.3134 10.3755 55.7666 10.3755C53.2198 10.3755 51.1552 12.44 51.1552 14.9868V47.2663ZM55.7666 161.782C58.3134 161.782 60.3779 159.717 60.3779 157.17L60.3779 97.2226C60.3779 94.6758 58.3134 92.6112 55.7666 92.6112C53.2198 92.6112 51.1552 94.6758 51.1552 97.2226L51.1552 157.17C51.1552 159.717 53.2198 161.782 55.7666 161.782Z" fill="#77FFF5"/>
</g>
<mask id="mask3_184_2905" style="mask-type:alpha" maskUnits="userSpaceOnUse" x="0" y="0" width="176" height="176">
<circle cx="88" cy="88" r="88" fill="white"/>
</mask>
<g mask="url(#mask3_184_2905)">
<rect opacity="0.0775757" x="88" width="88" height="176" fill="black"/>
</g>
<path fill-rule="evenodd" clip-rule="evenodd" d="M88 172.926C134.903 172.926 172.926 134.903 172.926 88C172.926 41.0968 134.903 3.07422 88 3.07422V172.926Z" fill="#138B83"/>
<mask id="mask4_184_2905" style="mask-type:alpha" maskUnits="userSpaceOnUse" x="88" y="3" width="85" height="170">
<path fill-rule="evenodd" clip-rule="evenodd" d="M88 172.926C134.903 172.926 172.926 134.903 172.926 88C172.926 41.0968 134.903 3.07422 88 3.07422V172.926Z" fill="white"/>
</mask>
<g mask="url(#mask4_184_2905)">
<circle cx="88.3846" cy="87.9998" r="55.7205" fill="#1BB9AE"/>
<circle cx="87.8074" cy="88.1922" r="12.4891" fill="#06504C"/>
</g>
</svg>
