<svg width="285" height="285" viewBox="0 0 285 285" fill="none" xmlns="http://www.w3.org/2000/svg">
<circle cx="142.5" cy="142.5" r="142.5" fill="#497EFA"/>
<mask id="mask0_182_2904" style="mask-type:alpha" maskUnits="userSpaceOnUse" x="0" y="0" width="285" height="285">
<circle cx="142.5" cy="142.5" r="142.5" fill="white"/>
</mask>
<g mask="url(#mask0_182_2904)">
<path fill-rule="evenodd" clip-rule="evenodd" d="M9.61192 105.133C13.8093 105.133 17.2119 108.536 17.2119 112.733C17.2119 116.931 13.8093 120.333 9.61192 120.333H-89.1881C-93.3854 120.333 -96.7881 116.931 -96.7881 112.733C-96.7881 108.536 -93.3854 105.133 -89.1881 105.133H9.61192ZM148.945 105.133C153.143 105.133 156.545 108.536 156.545 112.733C156.545 116.931 153.143 120.333 148.945 120.333H99.5452L99.5455 120.34C95.4949 120.506 92.2619 123.842 92.2619 127.933C92.2619 132.025 95.4949 135.361 99.5455 135.527L99.5452 135.533H200.879C205.076 135.533 208.479 138.936 208.479 143.133C208.479 147.331 205.076 150.733 200.879 150.733H38.1119C33.9145 150.733 30.5119 147.331 30.5119 143.133C30.5119 138.936 33.9145 135.533 38.1119 135.533H69.1452C73.3426 135.533 76.7453 132.131 76.7453 127.933C76.7453 123.736 73.3426 120.333 69.1452 120.333H50.1452C45.9479 120.333 42.5453 116.931 42.5453 112.733C42.5453 108.536 45.9479 105.133 50.1452 105.133H148.945ZM19.1119 165.933C23.3093 165.933 26.7119 169.336 26.7119 173.533C26.7119 177.731 23.3093 181.133 19.1119 181.133H-27.1214C-31.3188 181.133 -34.7214 177.731 -34.7214 173.533C-34.7214 169.336 -31.3188 165.933 -27.1214 165.933H19.1119ZM200.879 165.933C205.076 165.933 208.479 169.336 208.479 173.533C208.479 177.731 205.076 181.133 200.879 181.133H154.645C150.448 181.133 147.045 177.731 147.045 173.533C147.045 169.336 150.448 165.933 154.645 165.933H200.879ZM368.079 173.533C368.079 169.336 364.676 165.933 360.479 165.933H255.345C251.148 165.933 247.745 169.336 247.745 173.533C247.745 177.731 251.148 181.133 255.345 181.133H360.479C364.676 181.133 368.079 177.731 368.079 173.533ZM247.745 120.333C251.943 120.333 255.345 123.736 255.345 127.933C255.345 132.131 251.943 135.533 247.745 135.533H242.045C237.848 135.533 234.445 138.936 234.445 143.133C234.445 147.331 237.848 150.733 242.045 150.733H404.812C409.009 150.733 412.412 147.331 412.412 143.133C412.412 138.936 409.009 135.533 404.812 135.533H278.145L278.145 135.527C274.095 135.361 270.862 132.025 270.862 127.933C270.862 123.842 274.095 120.506 278.145 120.34L278.145 120.333H293.345C297.543 120.333 300.945 116.931 300.945 112.733C300.945 108.536 297.543 105.133 293.345 105.133H194.545C190.348 105.133 186.945 108.536 186.945 112.733C186.945 116.931 190.348 120.333 194.545 120.333H247.745ZM436.479 112.733C436.479 108.536 433.076 105.133 428.879 105.133H330.079C325.881 105.133 322.479 108.536 322.479 112.733C322.479 116.931 325.881 120.333 330.079 120.333H428.879C433.076 120.333 436.479 116.931 436.479 112.733Z" fill="#356CEE"/>
</g>
<mask id="mask1_182_2904" style="mask-type:alpha" maskUnits="userSpaceOnUse" x="0" y="0" width="285" height="285">
<circle cx="142.5" cy="142.5" r="142.5" fill="white"/>
</mask>
<g mask="url(#mask1_182_2904)">
<path opacity="0.4" fill-rule="evenodd" clip-rule="evenodd" d="M9.61192 13.9331C13.8093 13.9331 17.2119 17.3357 17.2119 21.5331C17.2119 25.7305 13.8093 29.1331 9.61192 29.1331H-89.1881C-93.3854 29.1331 -96.7881 25.7305 -96.7881 21.5331C-96.7881 17.3357 -93.3854 13.9331 -89.1881 13.9331H9.61192ZM148.945 13.9331C153.143 13.9331 156.545 17.3357 156.545 21.5331C156.545 25.7305 153.143 29.1331 148.945 29.1331H99.5452L99.5455 29.1396C95.4949 29.3055 92.2619 32.6417 92.2619 36.7331C92.2619 40.8245 95.4949 44.1607 99.5455 44.3266L99.5452 44.3331H200.879C205.076 44.3331 208.479 47.7357 208.479 51.9331C208.479 56.1305 205.076 59.5331 200.879 59.5331H38.1119C33.9145 59.5331 30.5119 56.1305 30.5119 51.9331C30.5119 47.7357 33.9145 44.3331 38.1119 44.3331H69.1452C73.3426 44.3331 76.7453 40.9305 76.7453 36.7331C76.7453 32.5357 73.3426 29.1331 69.1452 29.1331H50.1452C45.9479 29.1331 42.5453 25.7305 42.5453 21.5331C42.5453 17.3357 45.9479 13.9331 50.1452 13.9331H148.945ZM19.1119 74.7331C23.3093 74.7331 26.7119 78.1357 26.7119 82.3331C26.7119 86.5305 23.3093 89.9331 19.1119 89.9331H-27.1214C-31.3188 89.9331 -34.7214 86.5305 -34.7214 82.3331C-34.7214 78.1357 -31.3188 74.7331 -27.1214 74.7331H19.1119ZM200.879 74.7331C205.076 74.7331 208.479 78.1357 208.479 82.3331C208.479 86.5305 205.076 89.9331 200.879 89.9331H154.645C150.448 89.9331 147.045 86.5305 147.045 82.3331C147.045 78.1357 150.448 74.7331 154.645 74.7331H200.879ZM368.079 82.3331C368.079 78.1357 364.676 74.7331 360.479 74.7331H255.345C251.148 74.7331 247.745 78.1357 247.745 82.3331C247.745 86.5305 251.148 89.9331 255.345 89.9331H360.479C364.676 89.9331 368.079 86.5305 368.079 82.3331ZM247.745 29.1331C251.943 29.1331 255.345 32.5357 255.345 36.7331C255.345 40.9305 251.943 44.3331 247.745 44.3331H242.045C237.848 44.3331 234.445 47.7357 234.445 51.9331C234.445 56.1305 237.848 59.5331 242.045 59.5331H404.812C409.009 59.5331 412.412 56.1305 412.412 51.9331C412.412 47.7357 409.009 44.3331 404.812 44.3331H278.145L278.145 44.3266C274.095 44.1607 270.862 40.8245 270.862 36.7331C270.862 32.6417 274.095 29.3055 278.145 29.1396L278.145 29.1331H293.345C297.543 29.1331 300.945 25.7305 300.945 21.5331C300.945 17.3357 297.543 13.9331 293.345 13.9331H194.545C190.348 13.9331 186.945 17.3357 186.945 21.5331C186.945 25.7305 190.348 29.1331 194.545 29.1331H247.745ZM436.479 21.5331C436.479 17.3357 433.076 13.9331 428.879 13.9331H330.079C325.881 13.9331 322.479 17.3357 322.479 21.5331C322.479 25.7305 325.881 29.1331 330.079 29.1331H428.879C433.076 29.1331 436.479 25.7305 436.479 21.5331Z" fill="#356CEE"/>
</g>
<mask id="mask2_182_2904" style="mask-type:alpha" maskUnits="userSpaceOnUse" x="0" y="0" width="285" height="285">
<circle cx="142.5" cy="142.5" r="142.5" fill="white"/>
</mask>
<g mask="url(#mask2_182_2904)">
<path opacity="0.4" fill-rule="evenodd" clip-rule="evenodd" d="M9.61192 211.533C13.8093 211.533 17.2119 214.936 17.2119 219.133C17.2119 223.331 13.8093 226.733 9.61192 226.733H-89.1881C-93.3854 226.733 -96.7881 223.331 -96.7881 219.133C-96.7881 214.936 -93.3854 211.533 -89.1881 211.533H9.61192ZM148.945 211.533C153.143 211.533 156.545 214.936 156.545 219.133C156.545 223.331 153.143 226.733 148.945 226.733H99.5452L99.5455 226.74C95.4949 226.906 92.2619 230.242 92.2619 234.333C92.2619 238.425 95.4949 241.761 99.5455 241.927L99.5452 241.933H200.879C205.076 241.933 208.479 245.336 208.479 249.533C208.479 253.731 205.076 257.133 200.879 257.133H38.1119C33.9145 257.133 30.5119 253.731 30.5119 249.533C30.5119 245.336 33.9145 241.933 38.1119 241.933H69.1452C73.3426 241.933 76.7453 238.531 76.7453 234.333C76.7453 230.136 73.3426 226.733 69.1452 226.733H50.1452C45.9479 226.733 42.5453 223.331 42.5453 219.133C42.5453 214.936 45.9479 211.533 50.1452 211.533H148.945ZM19.1119 272.333C23.3093 272.333 26.7119 275.736 26.7119 279.933C26.7119 284.131 23.3093 287.533 19.1119 287.533H-27.1214C-31.3188 287.533 -34.7214 284.131 -34.7214 279.933C-34.7214 275.736 -31.3188 272.333 -27.1214 272.333H19.1119ZM200.879 272.333C205.076 272.333 208.479 275.736 208.479 279.933C208.479 284.131 205.076 287.533 200.879 287.533H154.645C150.448 287.533 147.045 284.131 147.045 279.933C147.045 275.736 150.448 272.333 154.645 272.333H200.879ZM368.079 279.933C368.079 275.736 364.676 272.333 360.479 272.333H255.345C251.148 272.333 247.745 275.736 247.745 279.933C247.745 284.131 251.148 287.533 255.345 287.533H360.479C364.676 287.533 368.079 284.131 368.079 279.933ZM247.745 226.733C251.943 226.733 255.345 230.136 255.345 234.333C255.345 238.531 251.943 241.933 247.745 241.933H242.045C237.848 241.933 234.445 245.336 234.445 249.533C234.445 253.731 237.848 257.133 242.045 257.133H404.812C409.009 257.133 412.412 253.731 412.412 249.533C412.412 245.336 409.009 241.933 404.812 241.933H278.145L278.145 241.927C274.095 241.761 270.862 238.425 270.862 234.333C270.862 230.242 274.095 226.906 278.145 226.74L278.145 226.733H293.345C297.543 226.733 300.945 223.331 300.945 219.133C300.945 214.936 297.543 211.533 293.345 211.533H194.545C190.348 211.533 186.945 214.936 186.945 219.133C186.945 223.331 190.348 226.733 194.545 226.733H247.745ZM436.479 219.133C436.479 214.936 433.076 211.533 428.879 211.533H330.079C325.881 211.533 322.479 214.936 322.479 219.133C322.479 223.331 325.881 226.733 330.079 226.733H428.879C433.076 226.733 436.479 223.331 436.479 219.133Z" fill="#356CEE"/>
</g>
<mask id="mask3_182_2904" style="mask-type:alpha" maskUnits="userSpaceOnUse" x="0" y="0" width="285" height="285">
<circle cx="142.5" cy="142.5" r="142.5" fill="white"/>
</mask>
<g mask="url(#mask3_182_2904)">
<path d="M93.8456 173.533C93.8456 169.336 90.443 165.933 86.2456 165.933H74.2123C70.0149 165.933 66.6123 162.531 66.6123 158.333C66.6123 154.136 70.0149 150.733 74.2123 150.733H124.246C128.443 150.733 131.846 154.136 131.846 158.333C131.846 162.531 128.443 165.933 124.246 165.933H122.346L122.346 165.94C118.295 166.106 115.062 169.442 115.062 173.533C115.062 177.625 118.295 180.961 122.346 181.127L122.346 181.133H124.246C128.443 181.133 131.846 184.536 131.846 188.733C131.846 192.931 128.443 196.333 124.246 196.333H85.6123C81.4149 196.333 78.0123 192.931 78.0123 188.733C78.0123 184.536 81.4149 181.133 85.6123 181.133H86.2456C90.443 181.133 93.8456 177.731 93.8456 173.533Z" fill="#2255CA"/>
</g>
<mask id="mask4_182_2904" style="mask-type:alpha" maskUnits="userSpaceOnUse" x="0" y="0" width="285" height="285">
<circle cx="142.5" cy="142.5" r="142.5" fill="white"/>
</mask>
<g mask="url(#mask4_182_2904)">
<rect opacity="0.0775757" x="142.5" y="6.9668" width="136.391" height="271.067" fill="black"/>
</g>
<path fill-rule="evenodd" clip-rule="evenodd" d="M142.5 280.566C218.752 280.566 280.567 218.752 280.567 142.5C280.567 66.2477 218.752 4.43311 142.5 4.43311V280.566Z" fill="#94D5FF"/>
<mask id="mask5_182_2904" style="mask-type:alpha" maskUnits="userSpaceOnUse" x="142" y="4" width="139" height="277">
<path fill-rule="evenodd" clip-rule="evenodd" d="M142.5 280.566C218.752 280.566 280.567 218.752 280.567 142.5C280.567 66.2477 218.752 4.43311 142.5 4.43311V280.566Z" fill="white"/>
</mask>
<g mask="url(#mask5_182_2904)">
<circle cx="142.5" cy="142.5" r="133.633" fill="#2959C9"/>
<circle cx="142.5" cy="142.5" r="93.1" fill="#6593FF"/>
<circle cx="142.5" cy="142.5" r="51.9333" fill="#4A7AE9"/>
<circle cx="142.5" cy="142.5" r="20.2667" fill="#042570"/>
</g>
</svg>
