<svg width="154" height="154" viewBox="0 0 154 154" fill="none" xmlns="http://www.w3.org/2000/svg">
<circle cx="77" cy="77" r="77" fill="#F7CC7F"/>
<mask id="mask0_184_3138" style="mask-type:alpha" maskUnits="userSpaceOnUse" x="0" y="0" width="154" height="154">
<circle cx="77" cy="77" r="77" fill="white"/>
</mask>
<g mask="url(#mask0_184_3138)">
<path fill-rule="evenodd" clip-rule="evenodd" d="M118.965 13.475C118.965 10.9234 116.896 8.85498 114.345 8.85498H15.3997C12.8482 8.85498 10.7797 10.9234 10.7797 13.475C10.7797 16.0265 12.8482 18.095 15.3997 18.095H61.5997C64.1513 18.095 66.2197 20.1634 66.2197 22.715C66.2197 25.2665 64.1513 27.335 61.5997 27.335H60.0597C57.5082 27.335 55.4397 29.4034 55.4397 31.955C55.4397 34.5065 57.5082 36.575 60.0597 36.575H89.3197C91.8713 36.575 93.9397 34.5065 93.9397 31.955C93.9397 29.4034 91.8713 27.335 89.3197 27.335H88.1647L88.1643 27.331C85.7023 27.2299 83.7373 25.2019 83.7373 22.715C83.7373 20.2281 85.7023 18.2001 88.1643 18.0989L88.1647 18.095H114.345C116.896 18.095 118.965 16.0265 118.965 13.475ZM111.65 50.435C111.65 47.8834 109.581 45.815 107.03 45.815H83.1597C80.6082 45.815 78.5397 47.8834 78.5397 50.435C78.5397 52.9865 80.6082 55.055 83.1597 55.055H107.03C109.581 55.055 111.65 52.9865 111.65 50.435ZM-3.65777 64.295C-1.10622 64.295 0.962226 66.3634 0.962226 68.915C0.962226 71.4665 -1.10622 73.535 -3.65777 73.535H-20.5978C-23.1493 73.535 -25.2178 71.4665 -25.2178 68.915C-25.2178 66.3634 -23.1493 64.295 -20.5978 64.295H-3.65777ZM116.27 68.915C116.27 66.3634 114.201 64.295 111.65 64.295H22.7147C20.1632 64.295 18.0947 66.3634 18.0947 68.915C18.0947 71.4665 20.1632 73.535 22.7147 73.535H49.6647C52.2163 73.535 54.2847 75.6034 54.2847 78.155C54.2847 80.7065 52.2163 82.775 49.6647 82.775H46.1997C43.6482 82.775 41.5797 84.8434 41.5797 87.395C41.5797 89.9465 43.6482 92.015 46.1997 92.015H100.87C103.421 92.015 105.49 94.0834 105.49 96.635C105.49 99.1865 103.421 101.255 100.87 101.255H98.5597C96.0082 101.255 93.9397 103.323 93.9397 105.875C93.9397 108.427 96.0082 110.495 98.5597 110.495H127.82C130.371 110.495 132.44 108.427 132.44 105.875C132.44 103.323 130.371 101.255 127.82 101.255H127.435L127.434 101.251C124.972 101.15 123.007 99.1219 123.007 96.635C123.007 94.1481 124.972 92.1201 127.434 92.0189L127.435 92.015H135.135C137.686 92.015 139.755 89.9465 139.755 87.395C139.755 84.8434 137.686 82.775 135.135 82.775H104.335V82.771C101.872 82.6701 99.9073 80.642 99.9073 78.155C99.9073 75.6679 101.872 73.6399 104.335 73.5389V73.535H111.65C114.201 73.535 116.27 71.4665 116.27 68.915ZM123.97 124.355C123.97 121.803 121.901 119.735 119.35 119.735H30.4147C27.8632 119.735 25.7947 121.803 25.7947 124.355C25.7947 126.907 27.8632 128.975 30.4147 128.975H46.1997C48.7513 128.975 50.8197 131.043 50.8197 133.595C50.8197 136.147 48.7513 138.215 46.1997 138.215H44.6597C42.1082 138.215 40.0397 140.283 40.0397 142.835C40.0397 145.387 42.1082 147.455 44.6597 147.455H73.9197C76.4713 147.455 78.5397 145.387 78.5397 142.835C78.5397 140.283 76.4713 138.215 73.9197 138.215H72.7647L72.7643 138.211C70.3023 138.11 68.3373 136.082 68.3373 133.595C68.3373 131.108 70.3023 129.08 72.7643 128.979L72.7647 128.975H119.35C121.901 128.975 123.97 126.907 123.97 124.355ZM45.0447 101.255C47.5963 101.255 49.6647 103.323 49.6647 105.875C49.6647 108.427 47.5963 110.495 45.0447 110.495H15.7847C13.2332 110.495 11.1647 108.427 11.1647 105.875C11.1647 103.323 13.2332 101.255 15.7847 101.255H45.0447ZM175.175 87.395C175.175 84.8434 173.106 82.775 170.555 82.775H154.77C152.218 82.775 150.15 84.8434 150.15 87.395C150.15 89.9465 152.218 92.015 154.77 92.015H170.555C173.106 92.015 175.175 89.9465 175.175 87.395ZM53.5147 45.815C56.0663 45.815 58.1347 47.8834 58.1347 50.435C58.1347 52.9865 56.0663 55.055 53.5147 55.055H45.8147C43.2632 55.055 41.1947 52.9865 41.1947 50.435C41.1947 47.8834 43.2632 45.815 45.8147 45.815H53.5147ZM115.5 27.335C118.051 27.335 120.12 29.4034 120.12 31.955C120.12 34.5065 118.051 36.575 115.5 36.575H107.8C105.248 36.575 103.18 34.5065 103.18 31.955C103.18 29.4034 105.248 27.335 107.8 27.335H115.5ZM46.1997 31.955C46.1997 29.4034 44.1313 27.335 41.5797 27.335H33.8797C31.3282 27.335 29.2597 29.4034 29.2597 31.955C29.2597 34.5065 31.3282 36.575 33.8797 36.575H41.5797C44.1313 36.575 46.1997 34.5065 46.1997 31.955Z" fill="#FFE6AE"/>
</g>
<mask id="mask1_184_3138" style="mask-type:alpha" maskUnits="userSpaceOnUse" x="0" y="0" width="154" height="154">
<circle cx="77" cy="77" r="77" fill="white"/>
</mask>
<g mask="url(#mask1_184_3138)">
<path fill-rule="evenodd" clip-rule="evenodd" d="M33.4952 73.5349C36.0468 73.5349 38.1152 75.6034 38.1152 78.1549C38.1152 80.7065 36.0468 82.7749 33.4952 82.7749H31.9552C29.4037 82.7749 27.3352 84.8434 27.3352 87.3949C27.3352 89.9465 29.4037 92.0149 31.9552 92.0149H61.2152C63.7668 92.0149 65.8352 89.9465 65.8352 87.3949C65.8352 84.8434 63.7668 82.7749 61.2152 82.7749H60.0602L60.0599 82.771C57.5978 82.6698 55.6328 80.6419 55.6328 78.1549C55.6328 75.668 57.5978 73.6401 60.0599 73.5389L60.0602 73.5349H86.2402C88.7918 73.5349 90.8602 71.4665 90.8602 68.9149C90.8602 66.3634 88.7918 64.2949 86.2402 64.2949H24.6402L24.6404 64.291C22.178 64.1902 20.2127 62.1621 20.2127 59.6749C20.2127 57.1878 22.178 55.1597 24.6404 55.0589L24.6402 55.0549H54.6702C57.2218 55.0549 59.2902 52.9865 59.2902 50.4349C59.2902 47.8834 57.2218 45.8149 54.6702 45.8149H-5.38977C-7.94132 45.8149 -10.0098 47.8834 -10.0098 50.4349C-10.0098 52.9865 -7.94132 55.0549 -5.38977 55.0549H6.16023C8.71179 55.0549 10.7802 57.1234 10.7802 59.6749C10.7802 62.2265 8.71179 64.2949 6.16023 64.2949H0.770234C-1.78132 64.2949 -3.84977 66.3634 -3.84977 68.9149C-3.84977 71.4665 -1.78132 73.5349 0.770234 73.5349H33.4952ZM83.5452 105.875C83.5452 103.323 81.4768 101.255 78.9252 101.255H55.0552C52.5037 101.255 50.4352 103.323 50.4352 105.875C50.4352 108.426 52.5037 110.495 55.0552 110.495H78.9252C81.4768 110.495 83.5452 108.426 83.5452 105.875ZM87.3952 82.7749C89.9468 82.7749 92.0152 84.8434 92.0152 87.3949C92.0152 89.9465 89.9468 92.0149 87.3952 92.0149H79.6952C77.1437 92.0149 75.0752 89.9465 75.0752 87.3949C75.0752 84.8434 77.1437 82.7749 79.6952 82.7749H87.3952ZM159.775 87.3949C159.775 84.8434 157.707 82.7749 155.155 82.7749H116.27C113.719 82.7749 111.65 84.8434 111.65 87.3949C111.65 89.9465 113.719 92.0149 116.27 92.0149H155.155C157.707 92.0149 159.775 89.9465 159.775 87.3949ZM13.4752 82.7749C16.0268 82.7749 18.0952 84.8434 18.0952 87.3949C18.0952 89.9465 16.0268 92.0149 13.4752 92.0149H5.77523C3.22368 92.0149 1.15523 89.9465 1.15523 87.3949C1.15523 84.8434 3.22368 82.7749 5.77523 82.7749H13.4752ZM138.6 68.9149C138.6 66.3634 136.532 64.2949 133.98 64.2949H126.28C123.729 64.2949 121.66 66.3634 121.66 68.9149C121.66 71.4665 123.729 73.5349 126.28 73.5349H133.98C136.532 73.5349 138.6 71.4665 138.6 68.9149Z" fill="#E29F58"/>
</g>
<mask id="mask2_184_3138" style="mask-type:alpha" maskUnits="userSpaceOnUse" x="0" y="0" width="154" height="154">
<circle cx="77" cy="77" r="77" fill="white"/>
</mask>
<g mask="url(#mask2_184_3138)">
<rect opacity="0.0775757" x="77.3848" y="-9.625" width="86.625" height="173.25" fill="black"/>
</g>
<path fill-rule="evenodd" clip-rule="evenodd" d="M77.3848 151.305C118.422 151.305 151.69 118.037 151.69 76.9998C151.69 35.9623 118.422 2.69482 77.3848 2.69482V151.305Z" fill="#C08240"/>
<mask id="mask3_184_3138" style="mask-type:alpha" maskUnits="userSpaceOnUse" x="77" y="2" width="75" height="150">
<path fill-rule="evenodd" clip-rule="evenodd" d="M77.3848 151.305C118.422 151.305 151.69 118.037 151.69 76.9998C151.69 35.9623 118.422 2.69482 77.3848 2.69482V151.305Z" fill="white"/>
</mask>
<g mask="url(#mask3_184_3138)">
<circle cx="77.7699" cy="77.3852" r="71.225" fill="#A34D28"/>
<circle cx="77.7704" cy="76.9999" r="31.955" fill="#FAD14C"/>
</g>
</svg>
