<svg width="129" height="129" viewBox="0 0 129 129" fill="none" xmlns="http://www.w3.org/2000/svg">
<circle cx="64.5" cy="64.5" r="64.5" fill="#FF6A45"/>
<mask id="mask0_184_3052" style="mask-type:alpha" maskUnits="userSpaceOnUse" x="0" y="0" width="129" height="129">
<circle cx="64.5" cy="64.5" r="64.5" fill="white"/>
</mask>
<g mask="url(#mask0_184_3052)">
<path fill-rule="evenodd" clip-rule="evenodd" d="M34.5534 9.21429C37.0979 9.21429 39.1606 11.277 39.1606 13.8214C39.1606 16.3659 37.0979 18.4286 34.5534 18.4286H15.7409C13.1965 18.4286 11.1338 20.4913 11.1338 23.0357C11.1338 25.5802 13.1965 27.6429 15.7409 27.6429H64.4999C67.0443 27.6429 69.107 25.5802 69.107 23.0357C69.107 20.4913 67.0443 18.4286 64.4999 18.4286H59.5087L59.5084 18.4246C57.0532 18.3237 55.0937 16.3014 55.0937 13.8214C55.0937 11.3414 57.0532 9.31912 59.5084 9.21823L59.5087 9.21429H81.0088C83.5532 9.21429 85.6159 7.1516 85.6159 4.60714C85.6159 2.06269 83.5532 0 81.0088 0H21.1159C18.5715 0 16.5088 2.06269 16.5088 4.60714C16.5088 7.1516 18.5715 9.21429 21.1159 9.21429H34.5534ZM109.803 23.0357C109.803 20.4913 107.741 18.4286 105.196 18.4286H103.277C100.732 18.4286 98.6695 20.4913 98.6695 23.0357C98.6695 25.5802 100.732 27.6429 103.277 27.6429H105.196C107.741 27.6429 109.803 25.5802 109.803 23.0357Z" fill="#FF9B6B"/>
</g>
<mask id="mask1_184_3052" style="mask-type:alpha" maskUnits="userSpaceOnUse" x="0" y="0" width="129" height="129">
<circle cx="64.5" cy="64.5" r="64.5" fill="white"/>
</mask>
<g mask="url(#mask1_184_3052)">
<path fill-rule="evenodd" clip-rule="evenodd" d="M75.6335 119.786C78.178 119.786 80.2407 121.848 80.2407 124.393C80.2407 126.937 78.178 129 75.6335 129H56.821C54.2766 129 52.2139 131.063 52.2139 133.607C52.2139 136.151 54.2766 138.214 56.821 138.214H105.58C108.124 138.214 110.187 136.151 110.187 133.607C110.187 131.063 108.124 129 105.58 129H100.589L100.588 128.996C98.1333 128.895 96.1738 126.873 96.1738 124.393C96.1738 121.913 98.1333 119.89 100.588 119.79L100.589 119.786H122.089C124.633 119.786 126.696 117.723 126.696 115.178C126.696 112.634 124.633 110.571 122.089 110.571H62.196C59.6516 110.571 57.5889 112.634 57.5889 115.178C57.5889 117.723 59.6516 119.786 62.196 119.786H75.6335ZM150.884 133.607C150.884 131.063 148.821 129 146.276 129H144.357C141.812 129 139.75 131.063 139.75 133.607C139.75 136.151 141.812 138.214 144.357 138.214H146.276C148.821 138.214 150.884 136.151 150.884 133.607Z" fill="#FF9B6B"/>
</g>
<mask id="mask2_184_3052" style="mask-type:alpha" maskUnits="userSpaceOnUse" x="0" y="0" width="129" height="129">
<circle cx="64.5" cy="64.5" r="64.5" fill="white"/>
</mask>
<g mask="url(#mask2_184_3052)">
<path fill-rule="evenodd" clip-rule="evenodd" d="M53.3658 27.6431C55.9103 27.6431 57.9729 29.7058 57.9729 32.2502C57.9729 34.7947 55.9103 36.8574 53.3658 36.8574H38.0086C35.4642 36.8574 33.4015 34.7947 33.4015 32.2502C33.4015 29.7058 35.4642 27.6431 38.0086 27.6431H53.3658ZM100.973 64.5002C103.517 64.5002 105.58 66.5629 105.58 69.1074C105.58 71.6518 103.517 73.7145 100.973 73.7145H42.9997L42.9993 73.7184C40.5441 73.8193 38.5846 75.8417 38.5846 78.3216C38.5846 80.8016 40.5441 82.8239 42.9993 82.9248L42.9997 82.9288H50.2944C52.8388 82.9288 54.9015 84.9915 54.9015 87.5359C54.9015 90.0804 52.8388 92.1431 50.2944 92.1431H4.22293C1.67848 92.1431 -0.384209 90.0804 -0.384209 87.5359C-0.384209 84.9915 1.67848 82.9288 4.22293 82.9288H16.5086C19.0531 82.9288 21.1158 80.8661 21.1158 78.3216C21.1158 75.7772 19.0531 73.7145 16.5086 73.7145H-8.06278C-10.6072 73.7145 -12.6699 71.6518 -12.6699 69.1074C-12.6699 66.5629 -10.6072 64.5002 -8.06278 64.5002H100.973ZM42.9997 105.964C42.9997 103.42 40.937 101.357 38.3926 101.357H30.714C28.1696 101.357 26.1069 103.42 26.1069 105.964C26.1069 108.509 28.1696 110.572 30.714 110.572H38.3926C40.937 110.572 42.9997 108.509 42.9997 105.964ZM87.9194 105.964C87.9194 103.42 85.8567 101.357 83.3122 101.357H59.5086C56.9642 101.357 54.9015 103.42 54.9015 105.964C54.9015 108.509 56.9642 110.572 59.5086 110.572H83.3122C85.8567 110.572 87.9194 108.509 87.9194 105.964ZM85.6158 87.5359C85.6158 84.9915 83.5531 82.9288 81.0086 82.9288H73.3301C70.7856 82.9288 68.7229 84.9915 68.7229 87.5359C68.7229 90.0804 70.7856 92.1431 73.3301 92.1431H81.0086C83.5531 92.1431 85.6158 90.0804 85.6158 87.5359ZM138.214 32.2502C138.214 29.7058 136.151 27.6431 133.607 27.6431H118.25C115.705 27.6431 113.643 29.7058 113.643 32.2502C113.643 34.7947 115.705 36.8574 118.25 36.8574H133.607C136.151 36.8574 138.214 34.7947 138.214 32.2502Z" fill="#D04237"/>
</g>
<mask id="mask3_184_3052" style="mask-type:alpha" maskUnits="userSpaceOnUse" x="0" y="0" width="129" height="129">
<circle cx="64.5" cy="64.5" r="64.5" fill="white"/>
</mask>
<g mask="url(#mask3_184_3052)">
<rect opacity="0.0775757" x="64.8838" y="-6.14307" width="70.6429" height="141.286" fill="black"/>
</g>
<path fill-rule="evenodd" clip-rule="evenodd" d="M64.8838 126.312C99.0219 126.312 126.696 98.6381 126.696 64.5C126.696 30.3619 99.0219 2.6875 64.8838 2.6875V126.312Z" fill="#97271E"/>
<mask id="mask4_184_3052" style="mask-type:alpha" maskUnits="userSpaceOnUse" x="64" y="2" width="63" height="125">
<path fill-rule="evenodd" clip-rule="evenodd" d="M64.8838 126.312C99.0219 126.312 126.696 98.6381 126.696 64.5C126.696 30.3619 99.0219 2.6875 64.8838 2.6875V126.312Z" fill="white"/>
</mask>
<g mask="url(#mask4_184_3052)">
<circle cx="65.2676" cy="64.5" r="59.125" fill="#DC5D1C"/>
<circle cx="65.2679" cy="64.4998" r="30.3304" fill="#F8A053"/>
<circle cx="65.2683" cy="64.5002" r="20.7321" fill="#FFCA79"/>
<circle cx="65.2683" cy="64.884" r="15.3571" fill="#FFF5C6"/>
</g>
</svg>
