<svg width="422" height="422" viewBox="0 0 422 422" fill="none" xmlns="http://www.w3.org/2000/svg">
<path fill-rule="evenodd" clip-rule="evenodd" d="M33.0606 33.0596C33.1319 32.9831 33.2045 32.9078 33.2785 32.8338C51.4122 14.7001 145.511 79.3986 243.454 177.342C341.398 275.285 406.096 369.384 387.962 387.518C387.888 387.592 387.813 387.664 387.737 387.736L358.978 358.977C359.055 358.906 359.13 358.834 359.204 358.76C374.397 343.566 320.191 264.727 238.13 182.666C156.069 100.606 77.2297 46.3989 62.0366 61.592C61.9626 61.666 61.8903 61.7415 61.8195 61.8186L33.0606 33.0596ZM68.7931 68.7921C83.251 54.3341 158.27 105.913 236.354 183.996C314.437 262.079 366.015 337.099 351.557 351.556L340.727 340.726C340.805 340.656 340.881 340.584 340.955 340.51C354.31 327.155 306.784 257.976 234.802 185.994C162.821 114.012 93.6415 66.4864 80.2863 79.8416C80.2123 79.9157 80.1401 79.9914 80.0698 80.0689L68.7931 68.7921Z" fill="#B87D43"/>
<circle cx="210.398" cy="200.291" r="131.401" fill="#FCCB6B"/>
<mask id="mask0_182_2807" style="mask-type:alpha" maskUnits="userSpaceOnUse" x="78" y="68" width="264" height="264">
<circle cx="210.398" cy="200.291" r="131.401" fill="white"/>
</mask>
<g mask="url(#mask0_182_2807)">
<path fill-rule="evenodd" clip-rule="evenodd" d="M340.769 326.936C337.808 323.975 333.009 323.975 330.048 326.936C327.088 329.896 327.088 334.696 330.048 337.657L399.734 407.343C402.695 410.303 407.494 410.303 410.455 407.343C413.415 404.382 413.415 399.582 410.455 396.622L340.769 326.936ZM242.494 228.661C239.533 225.7 234.733 225.7 231.773 228.661C228.812 231.621 228.812 236.421 231.773 239.382L266.616 274.225L266.611 274.229C269.351 277.203 269.278 281.837 266.393 284.722C263.507 287.608 258.873 287.681 255.899 284.941L255.895 284.946L184.422 213.473C181.462 210.512 176.662 210.512 173.701 213.473C170.741 216.433 170.741 221.233 173.701 224.194L288.504 338.997C291.465 341.958 296.265 341.957 299.225 338.997C302.186 336.036 302.186 331.237 299.225 328.276L277.337 306.388C274.376 303.427 274.376 298.627 277.337 295.667C280.297 292.706 285.097 292.706 288.058 295.667L301.459 309.068C304.419 312.028 309.219 312.028 312.18 309.068C315.14 306.107 315.14 301.307 312.18 298.347L242.494 228.661ZM291.185 363.119C288.224 360.159 283.424 360.159 280.464 363.119C277.503 366.08 277.503 370.879 280.464 373.84L313.073 406.449C316.034 409.41 320.834 409.41 323.794 406.449C326.755 403.489 326.755 398.689 323.794 395.729L291.185 363.119ZM162.98 234.915C160.02 231.954 155.22 231.954 152.259 234.915C149.299 237.875 149.299 242.675 152.259 245.636L184.869 278.245C187.829 281.206 192.629 281.206 195.59 278.245C198.55 275.285 198.55 270.485 195.59 267.524L162.98 234.915ZM39.6897 122.345C42.6502 119.384 47.4501 119.385 50.4106 122.345L124.564 196.498C127.524 199.459 127.524 204.258 124.564 207.219C121.603 210.179 116.803 210.179 113.843 207.219L39.6897 133.066C36.7292 130.105 36.7292 125.305 39.6897 122.345ZM162.087 169.696C159.126 166.735 154.326 166.735 151.366 169.696C148.405 172.656 148.405 177.456 151.366 180.417L155.386 184.437C158.347 187.397 158.347 192.197 155.386 195.158C152.426 198.118 147.626 198.118 144.665 195.158L29.8621 80.3547C26.9016 77.3942 26.9017 72.5943 29.8622 69.6338C32.8227 66.6733 37.6226 66.6733 40.5831 69.6338L129.924 158.975L129.929 158.97C132.903 161.71 137.536 161.637 140.422 158.751C143.307 155.866 143.38 151.232 140.64 148.258L140.645 148.254L129.924 137.533C126.964 134.572 126.964 129.773 129.924 126.812C132.885 123.852 137.685 123.852 140.645 126.812L210.331 196.498C213.292 199.459 213.292 204.258 210.331 207.219C207.371 210.179 202.571 210.179 199.61 207.219L162.087 169.696ZM34.3292 31.2171C37.2897 28.2566 42.0896 28.2566 45.0502 31.2172L114.736 100.903C117.697 103.864 117.697 108.664 114.736 111.624C111.776 114.585 106.976 114.585 104.015 111.624L34.3292 41.9381C31.3687 38.9775 31.3687 34.1776 34.3292 31.2171Z" fill="#ECB55A"/>
</g>
<mask id="mask1_182_2807" style="mask-type:alpha" maskUnits="userSpaceOnUse" x="78" y="68" width="264" height="264">
<circle cx="210.398" cy="200.291" r="131.401" fill="white"/>
</mask>
<g mask="url(#mask1_182_2807)">
<rect opacity="0.0775757" x="210.398" y="68.8896" width="132.089" height="262.802" fill="black"/>
</g>
<path fill-rule="evenodd" clip-rule="evenodd" d="M33.0599 33.0603C32.9834 33.1316 32.9081 33.2042 32.8341 33.2782C14.7004 51.4119 79.3989 145.511 177.342 243.454C275.285 341.397 369.384 406.096 387.518 387.962C387.592 387.888 387.665 387.813 387.736 387.736L358.977 358.977C358.906 359.054 358.834 359.13 358.76 359.204C343.567 374.397 264.727 320.19 182.667 238.13C100.606 156.069 46.3992 77.2294 61.5923 62.0364C61.6663 61.9623 61.7418 61.89 61.8188 61.8192L33.0599 33.0603ZM68.7924 68.7928C54.3344 83.2507 105.913 158.27 183.996 236.353C262.079 314.437 337.099 366.015 351.557 351.557C351.557 351.557 351.557 351.557 351.557 351.557C366.015 337.099 314.436 262.08 236.353 183.997C158.27 105.913 83.2503 54.3348 68.7924 68.7928M68.7924 68.7928L80.0691 80.0695C79.9917 80.1398 79.916 80.212 79.8419 80.286C66.4867 93.6412 114.013 162.82 185.994 234.802C257.976 306.783 327.155 354.31 340.51 340.954C340.584 340.88 340.656 340.805 340.727 340.727L351.557 351.557" fill="#B87D43"/>
<path fill-rule="evenodd" clip-rule="evenodd" d="M210.368 327.871C280.831 327.871 337.955 270.762 337.979 200.305V200.216C337.955 129.759 280.831 72.6499 210.368 72.6499V327.871Z" fill="#9C4925"/>
<mask id="mask2_182_2807" style="mask-type:alpha" maskUnits="userSpaceOnUse" x="210" y="72" width="128" height="256">
<path fill-rule="evenodd" clip-rule="evenodd" d="M210.368 327.871C280.831 327.871 337.955 270.762 337.979 200.305V200.216C337.955 129.759 280.831 72.6499 210.368 72.6499V327.871Z" fill="white"/>
</mask>
<g mask="url(#mask2_182_2807)">
<circle cx="211" cy="200.261" r="72.018" fill="#E09B7F"/>
<circle cx="210.685" cy="200.576" r="21.7949" fill="#FFEECC"/>
</g>
</svg>
