<svg width="256" height="256" viewBox="0 0 256 256" fill="none" xmlns="http://www.w3.org/2000/svg">
<path fill-rule="evenodd" clip-rule="evenodd" d="M20.0551 20.0551C20.0984 20.0087 20.1424 19.963 20.1873 19.9182C31.1878 8.91762 88.2716 48.166 147.687 107.582C207.103 166.998 246.352 224.081 235.351 235.082C235.306 235.127 235.26 235.171 235.214 235.214L217.768 217.768C217.815 217.725 217.86 217.681 217.905 217.636C227.122 208.419 194.238 160.593 144.457 110.812C94.6766 61.0309 46.8497 28.1472 37.633 37.3639C37.5881 37.4088 37.5442 37.4546 37.5013 37.5013L20.0551 20.0551ZM41.7317 41.7317C50.5024 32.961 96.0118 64.2503 143.38 111.618C190.748 158.986 222.037 204.496 213.266 213.266L206.697 206.697C206.744 206.654 206.79 206.61 206.834 206.565C214.936 198.464 186.105 156.497 142.439 112.831C98.7721 69.164 56.8057 40.333 48.7039 48.4347C48.659 48.4797 48.6152 48.5256 48.5726 48.5726L41.7317 41.7317Z" fill="#B87D43"/>
<circle cx="127.634" cy="121.504" r="79.7126" fill="#FCCB6B"/>
<mask id="mask0_184_2949" style="mask-type:alpha" maskUnits="userSpaceOnUse" x="47" y="41" width="161" height="161">
<circle cx="127.634" cy="121.504" r="79.7126" fill="white"/>
</mask>
<g mask="url(#mask0_184_2949)">
<path fill-rule="evenodd" clip-rule="evenodd" d="M206.722 198.331C204.926 196.535 202.014 196.535 200.219 198.331C198.423 200.127 198.423 203.039 200.219 204.835L242.493 247.109C244.288 248.905 247.2 248.905 248.996 247.109C250.792 245.313 250.792 242.401 248.996 240.605L206.722 198.331ZM147.105 138.714C145.309 136.918 142.397 136.918 140.601 138.714C138.805 140.51 138.805 143.422 140.601 145.218L161.738 166.355L161.736 166.357C163.398 168.161 163.353 170.972 161.603 172.723C159.852 174.473 157.041 174.518 155.237 172.855L155.235 172.858L111.877 129.5C110.081 127.704 107.169 127.704 105.373 129.5C103.577 131.296 103.577 134.208 105.373 136.004L175.017 205.648C176.813 207.444 179.724 207.444 181.52 205.648C183.316 203.852 183.316 200.94 181.52 199.144L168.242 185.866C166.446 184.07 166.446 181.158 168.242 179.362C170.038 177.566 172.95 177.566 174.746 179.362L182.875 187.492C184.671 189.288 187.583 189.288 189.379 187.492C191.175 185.696 191.175 182.784 189.379 180.988L147.105 138.714ZM176.643 220.281C174.847 218.485 171.935 218.485 170.139 220.281C168.343 222.077 168.343 224.989 170.139 226.785L189.921 246.567C191.717 248.363 194.629 248.363 196.425 246.567C198.221 244.771 198.221 241.859 196.425 240.063L176.643 220.281ZM98.8694 142.508C97.0734 140.712 94.1616 140.712 92.3657 142.508C90.5698 144.304 90.5698 147.216 92.3657 149.011L112.148 168.794C113.944 170.589 116.855 170.589 118.651 168.794C120.447 166.998 120.447 164.086 118.651 162.29L98.8694 142.508ZM24.0769 74.219C25.8729 72.4231 28.7847 72.4231 30.5806 74.219L75.5645 119.203C77.3604 120.999 77.3604 123.911 75.5645 125.707C73.7685 127.503 70.8567 127.503 69.0608 125.707L24.077 80.7227C22.281 78.9268 22.281 76.015 24.0769 74.219ZM98.3274 102.944C96.5315 101.148 93.6196 101.148 91.8237 102.944C90.0278 104.74 90.0278 107.651 91.8237 109.447L94.2626 111.886C96.0585 113.682 96.0585 116.594 94.2626 118.39C92.4667 120.186 89.5549 120.186 87.7589 118.39L18.1152 48.7462C16.3193 46.9503 16.3193 44.0385 18.1152 42.2426C19.9112 40.4466 22.823 40.4466 24.6189 42.2426L78.8163 96.44L78.819 96.4371C80.6231 98.0993 83.4339 98.0551 85.1845 96.3045C86.9351 94.5539 86.9793 91.7431 85.3171 89.9389L85.32 89.9363L78.8163 83.4326C77.0204 81.6366 77.0204 78.7248 78.8163 76.9289C80.6123 75.1329 83.5241 75.1329 85.32 76.9289L127.594 119.203C129.39 120.999 129.39 123.911 127.594 125.707C125.798 127.503 122.886 127.503 121.09 125.707L98.3274 102.944ZM20.8251 18.9377C22.621 17.1417 25.5328 17.1417 27.3288 18.9377L69.6028 61.2117C71.3987 63.0076 71.3987 65.9194 69.6028 67.7154C67.8068 69.5113 64.895 69.5113 63.0991 67.7153L20.8251 25.4414C19.0292 23.6454 19.0292 20.7336 20.8251 18.9377Z" fill="#ECB55A"/>
</g>
<mask id="mask1_184_2949" style="mask-type:alpha" maskUnits="userSpaceOnUse" x="47" y="41" width="161" height="161">
<circle cx="127.634" cy="121.504" r="79.7126" fill="white"/>
</mask>
<g mask="url(#mask1_184_2949)">
<rect opacity="0.0775757" x="127.635" y="41.791" width="80.1299" height="159.425" fill="black"/>
</g>
<path fill-rule="evenodd" clip-rule="evenodd" d="M20.0551 20.0556C20.0087 20.0988 19.963 20.1429 19.9182 20.1878C8.91762 31.1883 48.166 88.2721 107.582 147.688C166.998 207.104 224.081 246.352 235.082 235.352C235.127 235.307 235.171 235.261 235.214 235.215L217.768 217.768C217.725 217.815 217.681 217.861 217.636 217.906C208.419 227.122 160.593 194.239 110.812 144.458C61.0309 94.6771 28.1472 46.8502 37.3639 37.6335C37.4088 37.5886 37.4546 37.5447 37.5013 37.5018L20.0551 20.0556ZM41.7317 41.7322C32.961 50.5029 64.2503 96.0123 111.618 143.38C158.986 190.748 204.496 222.038 213.266 213.267L206.697 206.697C206.654 206.744 206.61 206.79 206.565 206.835C198.464 214.937 156.497 186.106 112.831 142.439C69.164 98.7726 40.333 56.8061 48.4347 48.7044C48.4797 48.6595 48.5256 48.6157 48.5726 48.5731L41.7317 41.7322Z" fill="#B87D43"/>
<path fill-rule="evenodd" clip-rule="evenodd" d="M127.617 198.898C170.371 198.898 205.03 164.239 205.03 121.485C205.03 78.7308 170.371 44.0718 127.617 44.0718V198.898Z" fill="#9C4925"/>
<mask id="mask2_184_2949" style="mask-type:alpha" maskUnits="userSpaceOnUse" x="127" y="44" width="79" height="155">
<path fill-rule="evenodd" clip-rule="evenodd" d="M127.617 198.898C170.371 198.898 205.03 164.239 205.03 121.485C205.03 78.7308 170.371 44.0718 127.617 44.0718V198.898Z" fill="white"/>
</mask>
<g mask="url(#mask2_184_2949)">
<circle cx="128" cy="121.485" r="43.6886" fill="#E09B7F"/>
<circle cx="127.808" cy="121.677" r="13.2216" fill="#FFEECC"/>
</g>
</svg>
