<svg width="173" height="173" viewBox="0 0 173 173" fill="none" xmlns="http://www.w3.org/2000/svg">
<circle cx="86.5" cy="86.5" r="86.5" fill="#497EFA"/>
<mask id="mask0_184_3174" style="mask-type:alpha" maskUnits="userSpaceOnUse" x="0" y="0" width="173" height="173">
<circle cx="86.5" cy="86.5" r="86.5" fill="white"/>
</mask>
<g mask="url(#mask0_184_3174)">
<path fill-rule="evenodd" clip-rule="evenodd" d="M5.83471 63.8179C8.38258 63.8179 10.448 65.8833 10.448 68.4312C10.448 70.9791 8.38258 73.0445 5.83471 73.0445H-54.1386C-56.6865 73.0445 -58.752 70.9791 -58.752 68.4312C-58.752 65.8833 -56.6865 63.8179 -54.1386 63.8179H5.83471ZM90.4125 63.8179C92.9604 63.8179 95.0258 65.8833 95.0258 68.4312C95.0258 70.9791 92.9604 73.0445 90.4125 73.0445H60.4258L60.426 73.0485C57.9672 73.1492 56.0047 75.1743 56.0047 77.6579C56.0047 80.1414 57.9672 82.1666 60.426 82.2673L60.4258 82.2712H121.937C124.485 82.2712 126.55 84.3367 126.55 86.8845C126.55 89.4324 124.485 91.4979 121.937 91.4979H23.1347C20.5868 91.4979 18.5214 89.4324 18.5214 86.8845C18.5214 84.3367 20.5868 82.2712 23.1347 82.2712H41.9725C44.5204 82.2712 46.5858 80.2057 46.5858 77.6579C46.5858 75.11 44.5204 73.0445 41.9725 73.0445H30.4392C27.8913 73.0445 25.8258 70.9791 25.8258 68.4312C25.8258 65.8833 27.8913 63.8179 30.4392 63.8179H90.4125ZM11.6014 100.725C14.1493 100.725 16.2147 102.79 16.2147 105.338C16.2147 107.886 14.1493 109.951 11.6014 109.951H-16.4631C-19.0109 109.951 -21.0764 107.886 -21.0764 105.338C-21.0764 102.79 -19.0109 100.725 -16.4631 100.725H11.6014ZM121.937 100.725C124.485 100.725 126.55 102.79 126.55 105.338C126.55 107.886 124.485 109.951 121.937 109.951H93.8725C91.3246 109.951 89.2592 107.886 89.2592 105.338C89.2592 102.79 91.3246 100.725 93.8725 100.725H121.937ZM223.43 105.338C223.43 102.79 221.365 100.725 218.817 100.725H154.999C152.451 100.725 150.386 102.79 150.386 105.338C150.386 107.886 152.451 109.951 154.999 109.951H218.817C221.365 109.951 223.43 107.886 223.43 105.338ZM150.386 73.0445C152.934 73.0445 154.999 75.11 154.999 77.6579C154.999 80.2057 152.934 82.2712 150.386 82.2712H146.926C144.378 82.2712 142.313 84.3367 142.313 86.8845C142.313 89.4324 144.378 91.4979 146.926 91.4979H245.728C248.276 91.4979 250.341 89.4324 250.341 86.8845C250.341 84.3367 248.276 82.2712 245.728 82.2712H168.839L168.839 82.2673C166.381 82.1666 164.418 80.1414 164.418 77.6579C164.418 75.1743 166.381 73.1492 168.839 73.0485L168.839 73.0445H178.066C180.614 73.0445 182.679 70.9791 182.679 68.4312C182.679 65.8833 180.614 63.8179 178.066 63.8179H118.093C115.545 63.8179 113.479 65.8833 113.479 68.4312C113.479 70.9791 115.545 73.0445 118.093 73.0445H150.386ZM264.95 68.4312C264.95 65.8833 262.885 63.8179 260.337 63.8179H200.364C197.816 63.8179 195.75 65.8833 195.75 68.4312C195.75 70.9791 197.816 73.0445 200.364 73.0445H260.337C262.885 73.0445 264.95 70.9791 264.95 68.4312Z" fill="#356CEE"/>
</g>
<mask id="mask1_184_3174" style="mask-type:alpha" maskUnits="userSpaceOnUse" x="0" y="0" width="173" height="173">
<circle cx="86.5" cy="86.5" r="86.5" fill="white"/>
</mask>
<g mask="url(#mask1_184_3174)">
<path opacity="0.4" fill-rule="evenodd" clip-rule="evenodd" d="M5.83471 8.45801C8.38258 8.45801 10.448 10.5235 10.448 13.0713C10.448 15.6192 8.38258 17.6847 5.83471 17.6847H-54.1386C-56.6865 17.6847 -58.752 15.6192 -58.752 13.0713C-58.752 10.5235 -56.6865 8.45801 -54.1386 8.45801H5.83471ZM90.4125 8.45801C92.9604 8.45801 95.0258 10.5235 95.0258 13.0713C95.0258 15.6192 92.9604 17.6847 90.4125 17.6847H60.4258L60.426 17.6886C57.9672 17.7893 56.0047 19.8145 56.0047 22.298C56.0047 24.7815 57.9672 26.8067 60.426 26.9074L60.4258 26.9113H121.937C124.485 26.9113 126.55 28.9768 126.55 31.5247C126.55 34.0725 124.485 36.138 121.937 36.138H23.1347C20.5868 36.138 18.5214 34.0725 18.5214 31.5247C18.5214 28.9768 20.5868 26.9113 23.1347 26.9113H41.9725C44.5204 26.9113 46.5858 24.8459 46.5858 22.298C46.5858 19.7501 44.5204 17.6847 41.9725 17.6847H30.4392C27.8913 17.6847 25.8258 15.6192 25.8258 13.0713C25.8258 10.5235 27.8913 8.45801 30.4392 8.45801H90.4125ZM11.6014 45.3647C14.1493 45.3647 16.2147 47.4301 16.2147 49.978C16.2147 52.5259 14.1493 54.5913 11.6014 54.5913H-16.4631C-19.0109 54.5913 -21.0764 52.5259 -21.0764 49.978C-21.0764 47.4301 -19.0109 45.3647 -16.4631 45.3647H11.6014ZM121.937 45.3647C124.485 45.3647 126.55 47.4301 126.55 49.978C126.55 52.5259 124.485 54.5913 121.937 54.5913H93.8725C91.3246 54.5913 89.2592 52.5259 89.2592 49.978C89.2592 47.4301 91.3246 45.3647 93.8725 45.3647H121.937ZM223.43 49.978C223.43 47.4301 221.365 45.3647 218.817 45.3647H154.999C152.451 45.3647 150.386 47.4301 150.386 49.978C150.386 52.5259 152.451 54.5913 154.999 54.5913H218.817C221.365 54.5913 223.43 52.5259 223.43 49.978ZM150.386 17.6847C152.934 17.6847 154.999 19.7501 154.999 22.298C154.999 24.8459 152.934 26.9113 150.386 26.9113H146.926C144.378 26.9113 142.313 28.9768 142.313 31.5247C142.313 34.0725 144.378 36.138 146.926 36.138H245.728C248.276 36.138 250.341 34.0725 250.341 31.5247C250.341 28.9768 248.276 26.9113 245.728 26.9113H168.839L168.839 26.9074C166.381 26.8067 164.418 24.7815 164.418 22.298C164.418 19.8145 166.381 17.7893 168.839 17.6886L168.839 17.6847H178.066C180.614 17.6847 182.679 15.6192 182.679 13.0713C182.679 10.5235 180.614 8.45801 178.066 8.45801H118.093C115.545 8.45801 113.479 10.5235 113.479 13.0713C113.479 15.6192 115.545 17.6847 118.093 17.6847H150.386ZM264.95 13.0713C264.95 10.5235 262.885 8.45801 260.337 8.45801H200.364C197.816 8.45801 195.75 10.5235 195.75 13.0713C195.75 15.6192 197.816 17.6847 200.364 17.6847H260.337C262.885 17.6847 264.95 15.6192 264.95 13.0713Z" fill="#356CEE"/>
</g>
<mask id="mask2_184_3174" style="mask-type:alpha" maskUnits="userSpaceOnUse" x="0" y="0" width="173" height="173">
<circle cx="86.5" cy="86.5" r="86.5" fill="white"/>
</mask>
<g mask="url(#mask2_184_3174)">
<path opacity="0.4" fill-rule="evenodd" clip-rule="evenodd" d="M5.83471 128.404C8.38258 128.404 10.448 130.47 10.448 133.018C10.448 135.566 8.38258 137.631 5.83471 137.631H-54.1386C-56.6865 137.631 -58.752 135.566 -58.752 133.018C-58.752 130.47 -56.6865 128.404 -54.1386 128.404H5.83471ZM90.4125 128.404C92.9604 128.404 95.0258 130.47 95.0258 133.018C95.0258 135.566 92.9604 137.631 90.4125 137.631H60.4258L60.426 137.635C57.9672 137.736 56.0047 139.761 56.0047 142.244C56.0047 144.728 57.9672 146.753 60.426 146.854L60.4258 146.858H121.937C124.485 146.858 126.55 148.923 126.55 151.471C126.55 154.019 124.485 156.084 121.937 156.084H23.1347C20.5868 156.084 18.5214 154.019 18.5214 151.471C18.5214 148.923 20.5868 146.858 23.1347 146.858H41.9725C44.5204 146.858 46.5858 144.792 46.5858 142.244C46.5858 139.696 44.5204 137.631 41.9725 137.631H30.4392C27.8913 137.631 25.8258 135.566 25.8258 133.018C25.8258 130.47 27.8913 128.404 30.4392 128.404H90.4125ZM11.6014 165.311C14.1493 165.311 16.2147 167.376 16.2147 169.924C16.2147 172.472 14.1493 174.538 11.6014 174.538H-16.4631C-19.0109 174.538 -21.0764 172.472 -21.0764 169.924C-21.0764 167.376 -19.0109 165.311 -16.4631 165.311H11.6014ZM121.937 165.311C124.485 165.311 126.55 167.376 126.55 169.924C126.55 172.472 124.485 174.538 121.937 174.538H93.8725C91.3246 174.538 89.2592 172.472 89.2592 169.924C89.2592 167.376 91.3246 165.311 93.8725 165.311H121.937ZM223.43 169.924C223.43 167.376 221.365 165.311 218.817 165.311H154.999C152.451 165.311 150.386 167.376 150.386 169.924C150.386 172.472 152.451 174.538 154.999 174.538H218.817C221.365 174.538 223.43 172.472 223.43 169.924ZM150.386 137.631C152.934 137.631 154.999 139.696 154.999 142.244C154.999 144.792 152.934 146.858 150.386 146.858H146.926C144.378 146.858 142.313 148.923 142.313 151.471C142.313 154.019 144.378 156.084 146.926 156.084H245.728C248.276 156.084 250.341 154.019 250.341 151.471C250.341 148.923 248.276 146.858 245.728 146.858H168.839L168.839 146.854C166.381 146.753 164.418 144.728 164.418 142.244C164.418 139.761 166.381 137.736 168.839 137.635L168.839 137.631H178.066C180.614 137.631 182.679 135.566 182.679 133.018C182.679 130.47 180.614 128.404 178.066 128.404H118.093C115.545 128.404 113.479 130.47 113.479 133.018C113.479 135.566 115.545 137.631 118.093 137.631H150.386ZM264.95 133.018C264.95 130.47 262.885 128.404 260.337 128.404H200.364C197.816 128.404 195.75 130.47 195.75 133.018C195.75 135.566 197.816 137.631 200.364 137.631H260.337C262.885 137.631 264.95 135.566 264.95 133.018Z" fill="#356CEE"/>
</g>
<mask id="mask3_184_3174" style="mask-type:alpha" maskUnits="userSpaceOnUse" x="0" y="0" width="173" height="173">
<circle cx="86.5" cy="86.5" r="86.5" fill="white"/>
</mask>
<g mask="url(#mask3_184_3174)">
<path d="M56.9657 105.338C56.9657 102.79 54.9002 100.724 52.3523 100.724H45.0479C42.5 100.724 40.4346 98.6588 40.4346 96.1109C40.4346 93.563 42.5 91.4976 45.0479 91.4976H75.419C77.9669 91.4976 80.0323 93.563 80.0323 96.1109C80.0323 98.6588 77.9669 100.724 75.419 100.724H74.2657L74.2657 100.728C71.807 100.829 69.8447 102.854 69.8447 105.338C69.8447 107.821 71.807 109.846 74.2657 109.947L74.2657 109.951H75.419C77.9669 109.951 80.0323 112.016 80.0323 114.564C80.0323 117.112 77.9669 119.178 75.419 119.178H51.9679C49.42 119.178 47.3546 117.112 47.3546 114.564C47.3546 112.016 49.42 109.951 51.9679 109.951H52.3523C54.9002 109.951 56.9657 107.885 56.9657 105.338Z" fill="#2255CA"/>
</g>
<mask id="mask4_184_3174" style="mask-type:alpha" maskUnits="userSpaceOnUse" x="0" y="0" width="173" height="173">
<circle cx="86.5" cy="86.5" r="86.5" fill="white"/>
</mask>
<g mask="url(#mask4_184_3174)">
<rect opacity="0.0775757" x="86.5" y="4.229" width="82.7918" height="164.542" fill="black"/>
</g>
<path fill-rule="evenodd" clip-rule="evenodd" d="M86.5 170.309C132.774 170.309 170.289 132.806 170.309 86.536V86.4637C170.289 40.1939 132.774 2.69092 86.5 2.69092V170.309Z" fill="#94D5FF"/>
<mask id="mask5_184_3174" style="mask-type:alpha" maskUnits="userSpaceOnUse" x="86" y="2" width="85" height="169">
<path fill-rule="evenodd" clip-rule="evenodd" d="M86.5 170.309C132.774 170.309 170.289 132.806 170.309 86.536V86.4637C170.289 40.1939 132.774 2.69092 86.5 2.69092V170.309Z" fill="white"/>
</mask>
<g mask="url(#mask5_184_3174)">
<circle cx="86.4996" cy="86.5001" r="81.1178" fill="#2959C9"/>
<circle cx="86.4997" cy="86.5002" r="56.5133" fill="#6593FF"/>
<circle cx="86.5" cy="86.5" r="31.5244" fill="#4A7AE9"/>
<circle cx="86.5005" cy="86.5" r="12.3022" fill="#042570"/>
</g>
</svg>
