<svg width="290" height="290" viewBox="0 0 290 290" fill="none" xmlns="http://www.w3.org/2000/svg">
<g clip-path="url(#clip0_178_2032)">
<path d="M145 290C225.081 290 290 225.081 290 145C290 64.9187 225.081 0 145 0C64.9187 0 0 64.9187 0 145C0 225.081 64.9187 290 145 290Z" fill="#65F0D5"/>
<mask id="mask0_178_2032" style="mask-type:alpha" maskUnits="userSpaceOnUse" x="0" y="0" width="290" height="290">
<path d="M145 290C225.081 290 290 225.081 290 145C290 64.9187 225.081 0 145 0C64.9187 0 0 64.9187 0 145C0 225.081 64.9187 290 145 290Z" fill="white"/>
</mask>
<g mask="url(#mask0_178_2032)">
<path fill-rule="evenodd" clip-rule="evenodd" d="M281.845 -94.978C281.845 -90.7818 278.443 -87.3797 274.247 -87.3797C270.05 -87.3797 266.648 -90.7818 266.648 -94.978V-193.755C266.648 -197.951 270.05 -201.354 274.247 -201.354C278.443 -201.354 281.845 -197.951 281.845 -193.755V-94.978ZM281.845 44.3233C281.845 48.5195 278.443 51.9216 274.247 51.9216C270.05 51.9216 266.648 48.5195 266.648 44.3233V-5.06531H266.642C266.476 -9.11454 263.14 -12.347 259.05 -12.347C254.96 -12.347 251.624 -9.11454 251.458 -5.06531H251.452V96.2447C251.452 100.441 248.05 103.843 243.854 103.843C239.657 103.843 236.255 100.441 236.255 96.2447V-66.4845C236.255 -70.6807 239.657 -74.0828 243.854 -74.0828C248.05 -74.0828 251.452 -70.6807 251.452 -66.4845V-35.4583C251.452 -31.2622 254.854 -27.8601 259.05 -27.8601C263.247 -27.8601 266.648 -31.2622 266.648 -35.4583V-54.454C266.648 -58.6501 270.05 -62.0522 274.247 -62.0522C278.443 -62.0522 281.845 -58.6501 281.845 -54.454V44.3233ZM221.059 -85.4802C221.059 -81.284 217.657 -77.8819 213.461 -77.8819C209.264 -77.8819 205.862 -81.284 205.862 -85.4802V-131.703C205.862 -135.899 209.264 -139.301 213.461 -139.301C217.657 -139.301 221.059 -135.899 221.059 -131.703V-85.4802ZM221.059 96.2447C221.059 100.441 217.657 103.843 213.461 103.843C209.264 103.843 205.862 100.441 205.862 96.2447V50.022C205.862 45.8259 209.264 42.4238 213.461 42.4238C217.657 42.4238 221.059 45.8259 221.059 50.022V96.2447ZM213.461 263.406C217.657 263.406 221.059 260.004 221.059 255.808V150.699C221.059 146.503 217.657 143.101 213.461 143.101C209.264 143.101 205.862 146.503 205.862 150.699V255.808C205.862 260.004 209.264 263.406 213.461 263.406ZM266.648 143.101C266.648 147.297 263.247 150.699 259.05 150.699C254.854 150.699 251.452 147.297 251.452 143.101V137.402C251.452 133.206 248.05 129.804 243.854 129.804C239.657 129.804 236.255 133.206 236.255 137.402V300.131C236.255 304.327 239.657 307.729 243.854 307.729C248.05 307.729 251.452 304.327 251.452 300.131V173.494H251.458C251.624 169.444 254.96 166.212 259.05 166.212C263.14 166.212 266.476 169.444 266.642 173.494H266.648V188.69C266.648 192.886 270.05 196.288 274.247 196.288C278.443 196.288 281.845 192.886 281.845 188.69V89.9129C281.845 85.7167 278.443 82.3146 274.247 82.3146C270.05 82.3146 266.648 85.7167 266.648 89.9129V143.101ZM274.247 331.791C278.443 331.791 281.845 328.388 281.845 324.192V225.415C281.845 221.219 278.443 217.817 274.247 217.817C270.05 217.817 266.648 221.219 266.648 225.415V324.192C266.648 328.388 270.05 331.791 274.247 331.791Z" fill="#49CBC2"/>
</g>
<mask id="mask1_178_2032" style="mask-type:alpha" maskUnits="userSpaceOnUse" x="0" y="0" width="290" height="290">
<path d="M145 290C225.081 290 290 225.081 290 145C290 64.9187 225.081 0 145 0C64.9187 0 0 64.9187 0 145C0 225.081 64.9187 290 145 290Z" fill="white"/>
</mask>
<g mask="url(#mask1_178_2032)">
<path fill-rule="evenodd" clip-rule="evenodd" d="M114.683 -139.301C114.683 -135.105 118.085 -131.703 122.281 -131.703C126.478 -131.703 129.879 -135.105 129.879 -139.301V-238.079C129.879 -242.275 126.478 -245.677 122.281 -245.677C118.085 -245.677 114.683 -242.275 114.683 -238.079V-139.301ZM114.683 9.72748e-05C114.683 4.19623 118.085 7.59835 122.281 7.59835C126.478 7.59835 129.879 4.19623 129.879 9.72748e-05V-49.3885H129.885C130.051 -53.4378 133.387 -56.6702 137.477 -56.6702C141.568 -56.6702 144.903 -53.4378 145.069 -49.3885H145.076V51.9215C145.076 56.1176 148.478 59.5197 152.674 59.5197C156.871 59.5197 160.272 56.1176 160.272 51.9215V-110.808C160.272 -115.004 156.871 -118.406 152.674 -118.406C148.478 -118.406 145.076 -115.004 145.076 -110.808V-79.7816C145.076 -75.5854 141.674 -72.1833 137.477 -72.1833C133.281 -72.1833 129.879 -75.5854 129.879 -79.7816V-98.7772C129.879 -102.973 126.478 -106.375 122.281 -106.375C118.085 -106.375 114.683 -102.973 114.683 -98.7772V9.72748e-05ZM175.469 -129.803C175.469 -125.607 178.871 -122.205 183.067 -122.205C187.264 -122.205 190.665 -125.607 190.665 -129.803V-176.026C190.665 -180.222 187.264 -183.624 183.067 -183.624C178.871 -183.624 175.469 -180.222 175.469 -176.026V-129.803ZM175.469 51.9215C175.469 56.1176 178.871 59.5197 183.067 59.5197C187.264 59.5197 190.665 56.1176 190.665 51.9215V5.69879C190.665 1.50265 187.264 -1.89947 183.067 -1.89947C178.871 -1.89947 175.469 1.50265 175.469 5.69879V51.9215ZM183.067 219.083C178.871 219.083 175.469 215.681 175.469 211.485V106.376C175.469 102.18 178.871 98.7774 183.067 98.7774C187.264 98.7774 190.665 102.18 190.665 106.376V211.485C190.665 215.681 187.264 219.083 183.067 219.083ZM129.879 98.7774C129.879 102.974 133.281 106.376 137.477 106.376C141.674 106.376 145.076 102.974 145.076 98.7774V93.0787C145.076 88.8826 148.478 85.4804 152.674 85.4804C156.871 85.4804 160.272 88.8826 160.272 93.0787V255.808C160.272 260.004 156.871 263.406 152.674 263.406C148.478 263.406 145.076 260.004 145.076 255.808V129.17H145.069C144.903 125.121 141.568 121.889 137.477 121.889C133.387 121.889 130.051 125.121 129.885 129.17H129.879V144.367C129.879 148.563 126.478 151.965 122.281 151.965C118.085 151.965 114.683 148.563 114.683 144.367V45.5896C114.683 41.3935 118.085 37.9914 122.281 37.9914C126.478 37.9914 129.879 41.3935 129.879 45.5896V98.7774ZM122.281 287.467C118.085 287.467 114.683 284.065 114.683 279.869V181.092C114.683 176.896 118.085 173.494 122.281 173.494C126.478 173.494 129.879 176.896 129.879 181.092V279.869C129.879 284.065 126.478 287.467 122.281 287.467Z" fill="#50DECD"/>
</g>
<mask id="mask2_178_2032" style="mask-type:alpha" maskUnits="userSpaceOnUse" x="0" y="0" width="290" height="290">
<path d="M145 290C225.081 290 290 225.081 290 145C290 64.9187 225.081 0 145 0C64.9187 0 0 64.9187 0 145C0 225.081 64.9187 290 145 290Z" fill="white"/>
</mask>
<g mask="url(#mask2_178_2032)">
<path fill-rule="evenodd" clip-rule="evenodd" d="M99.4864 -160.197C99.4864 -156.001 96.085 -152.598 91.8882 -152.598C87.6921 -152.598 84.2899 -156.001 84.2899 -160.197V-258.974C84.2899 -263.17 87.6921 -266.572 91.8882 -266.572C96.085 -266.572 99.4864 -263.17 99.4864 -258.974V-160.197ZM99.4864 -20.8954C99.4864 -16.6993 96.085 -13.2972 91.8882 -13.2972C87.6921 -13.2972 84.2899 -16.6993 84.2899 -20.8954V-70.2841H84.2836C84.1177 -74.3333 80.7821 -77.5657 76.6917 -77.5657C72.6013 -77.5657 69.2657 -74.3333 69.0998 -70.2841H69.0934V31.026C69.0934 35.2221 65.6919 38.6242 61.4952 38.6242C57.299 38.6242 53.8969 35.2221 53.8969 31.026V-131.703C53.8969 -135.899 57.299 -139.302 61.4952 -139.302C65.6919 -139.302 69.0934 -135.899 69.0934 -131.703V-100.677C69.0934 -96.4809 72.4955 -93.0788 76.6917 -93.0788C80.8885 -93.0788 84.2899 -96.4809 84.2899 -100.677V-119.673C84.2899 -123.869 87.6921 -127.271 91.8882 -127.271C96.085 -127.271 99.4864 -123.869 99.4864 -119.673V-20.8954ZM38.7004 -150.699C38.7004 -146.503 35.2989 -143.101 31.1022 -143.101C26.906 -143.101 23.5039 -146.503 23.5039 -150.699V-196.922C23.5039 -201.118 26.906 -204.52 31.1022 -204.52C35.2989 -204.52 38.7004 -201.118 38.7004 -196.922V-150.699ZM38.7004 31.026C38.7004 35.2221 35.2989 38.6242 31.1022 38.6242C26.906 38.6242 23.5039 35.2221 23.5039 31.026V-15.1967C23.5039 -19.3929 26.906 -22.795 31.1022 -22.795C35.2989 -22.795 38.7004 -19.3929 38.7004 -15.1967V31.026ZM31.1022 198.188C35.2989 198.188 38.7004 194.785 38.7004 190.589V85.4801C38.7004 81.284 35.2989 77.8819 31.1022 77.8819C26.906 77.8819 23.5039 81.284 23.5039 85.4801V190.589C23.5039 194.785 26.906 198.188 31.1022 198.188ZM84.2899 77.8819C84.2899 82.078 80.8885 85.4801 76.6917 85.4801C72.4955 85.4801 69.0934 82.078 69.0934 77.8819V72.1832C69.0934 67.9871 65.6919 64.5849 61.4952 64.5849C57.299 64.5849 53.8969 67.9871 53.8969 72.1832V234.912C53.8969 239.109 57.299 242.511 61.4952 242.511C65.6919 242.511 69.0934 239.109 69.0934 234.912V108.275H69.0998C69.2657 104.226 72.6013 100.993 76.6917 100.993C80.7821 100.993 84.1177 104.226 84.2836 108.275H84.2899V123.471C84.2899 127.668 87.6921 131.07 91.8882 131.07C96.085 131.07 99.4864 127.668 99.4864 123.471V24.6941C99.4864 20.498 96.085 17.0959 91.8882 17.0959C87.6921 17.0959 84.2899 20.498 84.2899 24.6941V77.8819ZM91.8882 266.572C96.085 266.572 99.4864 263.17 99.4864 258.974V160.196C99.4864 156 96.085 152.598 91.8882 152.598C87.6921 152.598 84.2899 156 84.2899 160.196V258.974C84.2899 263.17 87.6921 266.572 91.8882 266.572Z" fill="#77FFF5"/>
</g>
<mask id="mask3_178_2032" style="mask-type:alpha" maskUnits="userSpaceOnUse" x="0" y="0" width="290" height="290">
<path d="M145 290C225.081 290 290 225.081 290 145C290 64.9187 225.081 0 145 0C64.9187 0 0 64.9187 0 145C0 225.081 64.9187 290 145 290Z" fill="white"/>
</mask>
<g mask="url(#mask3_178_2032)">
<path opacity="0.078" d="M145 0H290V290H145V0Z" fill="black"/>
</g>
</g>
<defs>
<clipPath id="clip0_178_2032">
<rect width="290" height="290" fill="white"/>
</clipPath>
</defs>
</svg>
