<svg width="224" height="224" viewBox="0 0 224 224" fill="none" xmlns="http://www.w3.org/2000/svg">
<circle cx="112" cy="112" r="112" fill="#ECAD7A"/>
<mask id="mask0_184_2992" style="mask-type:alpha" maskUnits="userSpaceOnUse" x="0" y="0" width="224" height="224">
<circle cx="112" cy="112" r="112" fill="white"/>
</mask>
<g mask="url(#mask0_184_2992)">
<path fill-rule="evenodd" clip-rule="evenodd" d="M14.6256 113.155C17.1764 113.155 19.2442 115.223 19.2442 117.773C19.2442 120.324 17.1764 122.392 14.6256 122.392H-45.4156C-47.9664 122.392 -50.0342 120.324 -50.0342 117.773C-50.0342 115.223 -47.9664 113.155 -45.4156 113.155H14.6256ZM99.2991 113.155C101.85 113.155 103.918 115.223 103.918 117.773C103.918 120.324 101.85 122.392 99.2991 122.392H69.2785L69.2787 122.396C66.8171 122.497 64.8524 124.524 64.8524 127.01C64.8524 129.497 66.8171 131.524 69.2787 131.625L69.2785 131.629H130.859C133.41 131.629 135.478 133.697 135.478 136.248C135.478 138.798 133.41 140.866 130.859 140.866H31.9452C29.3944 140.866 27.3266 138.798 27.3266 136.248C27.3266 133.697 29.3944 131.629 31.9452 131.629H50.8043C53.3551 131.629 55.4229 129.561 55.4229 127.01C55.4229 124.46 53.3551 122.392 50.8043 122.392H39.2579C36.7072 122.392 34.6394 120.324 34.6394 117.773C34.6394 115.223 36.7072 113.155 39.2579 113.155H99.2991ZM20.3988 150.103C22.9496 150.103 25.0174 152.171 25.0174 154.722C25.0174 157.273 22.9496 159.34 20.3988 159.34H-7.69742C-10.2482 159.34 -12.316 157.273 -12.316 154.722C-12.316 152.171 -10.2482 150.103 -7.69742 150.103H20.3988ZM130.859 150.103C133.41 150.103 135.478 152.171 135.478 154.722C135.478 157.273 133.41 159.34 130.859 159.34H102.763C100.212 159.34 98.1445 157.273 98.1445 154.722C98.1445 152.171 100.212 150.103 102.763 150.103H130.859ZM232.468 154.722C232.468 152.171 230.4 150.103 227.849 150.103H163.959C161.408 150.103 159.34 152.171 159.34 154.722C159.34 157.273 161.408 159.34 163.959 159.34H227.849C230.4 159.34 232.468 157.273 232.468 154.722ZM159.34 122.392C161.891 122.392 163.959 124.46 163.959 127.01C163.959 129.561 161.891 131.629 159.34 131.629H155.876C153.326 131.629 151.258 133.697 151.258 136.248C151.258 138.798 153.326 140.866 155.876 140.866H254.791C257.341 140.866 259.409 138.798 259.409 136.248C259.409 133.697 257.341 131.629 254.791 131.629H177.815L177.815 131.625C175.353 131.524 173.388 129.497 173.388 127.01C173.388 124.524 175.353 122.497 177.815 122.396L177.815 122.392H187.052C189.602 122.392 191.67 120.324 191.67 117.773C191.67 115.223 189.602 113.155 187.052 113.155H127.01C124.46 113.155 122.392 115.223 122.392 117.773C122.392 120.324 124.46 122.392 127.01 122.392H159.34ZM274.035 117.773C274.035 115.223 271.967 113.155 269.416 113.155H209.375C206.824 113.155 204.756 115.223 204.756 117.773C204.756 120.324 206.824 122.392 209.375 122.392H269.416C271.967 122.392 274.035 120.324 274.035 117.773Z" fill="#F0D29F"/>
</g>
<mask id="mask1_184_2992" style="mask-type:alpha" maskUnits="userSpaceOnUse" x="0" y="0" width="224" height="224">
<circle cx="112" cy="112" r="112" fill="white"/>
</mask>
<g mask="url(#mask1_184_2992)">
<path d="M61.1955 154.722C61.1955 152.171 59.1277 150.103 56.5769 150.103H45.4154C42.8647 150.103 40.7969 148.036 40.7969 145.485C40.7969 142.934 42.8647 140.866 45.4154 140.866H84.2883C86.839 140.866 88.9068 142.934 88.9068 145.485C88.9068 148.036 86.839 150.103 84.2883 150.103H83.1336L83.1333 150.107C80.672 150.208 78.7076 152.236 78.7076 154.722C78.7076 157.208 80.672 159.235 83.1333 159.336L83.1336 159.34H84.2883C86.839 159.34 88.9068 161.408 88.9068 163.959C88.9068 166.51 86.839 168.578 84.2883 168.578H55.0374C52.4867 168.578 50.4189 166.51 50.4189 163.959C50.4189 161.408 52.4867 159.34 55.0374 159.34H56.5769C59.1277 159.34 61.1955 157.273 61.1955 154.722Z" fill="#D86534"/>
</g>
<mask id="mask2_184_2992" style="mask-type:alpha" maskUnits="userSpaceOnUse" x="0" y="0" width="224" height="224">
<circle cx="112" cy="112" r="112" fill="white"/>
</mask>
<g mask="url(#mask2_184_2992)">
<path fill-rule="evenodd" clip-rule="evenodd" d="M179.354 20.7837C176.803 20.7837 174.735 22.8515 174.735 25.4022C174.735 27.953 176.803 30.0208 179.354 30.0208H239.395C241.946 30.0208 244.014 27.953 244.014 25.4022C244.014 22.8515 241.946 20.7837 239.395 20.7837H179.354ZM94.6804 20.7837C92.1296 20.7837 90.0618 22.8515 90.0618 25.4022C90.0618 27.953 92.1296 30.0208 94.6804 30.0208H124.701L124.701 30.0247C127.162 30.1255 129.127 32.153 129.127 34.6394C129.127 37.1257 127.162 39.1532 124.701 39.254L124.701 39.2579H63.1202C60.5695 39.2579 58.5016 41.3257 58.5016 43.8765C58.5016 46.4272 60.5695 48.495 63.1202 48.495H162.034C164.585 48.495 166.653 46.4272 166.653 43.8765C166.653 41.3257 164.585 39.2579 162.034 39.2579H143.175C140.624 39.2579 138.557 37.1901 138.557 34.6394C138.557 32.0886 140.624 30.0208 143.175 30.0208H154.722C157.272 30.0208 159.34 27.953 159.34 25.4022C159.34 22.8515 157.272 20.7837 154.722 20.7837H94.6804ZM173.581 57.7321C171.03 57.7321 168.962 59.7999 168.962 62.3507C168.962 64.9015 171.03 66.9693 173.581 66.9693H201.677C204.228 66.9693 206.295 64.9015 206.295 62.3507C206.295 59.7999 204.228 57.7321 201.677 57.7321H173.581ZM63.1202 57.7321C60.5694 57.7321 58.5016 59.7999 58.5016 62.3507C58.5016 64.9015 60.5694 66.9693 63.1202 66.9693H91.2164C93.7672 66.9693 95.835 64.9015 95.835 62.3507C95.835 59.7999 93.7672 57.7321 91.2164 57.7321H63.1202ZM-38.488 62.3507C-38.488 59.7999 -36.4202 57.7321 -33.8695 57.7321H30.0206C32.5713 57.7321 34.6391 59.7999 34.6391 62.3507C34.6391 64.9015 32.5713 66.9693 30.0206 66.9693H-33.8695C-36.4202 66.9693 -38.488 64.9015 -38.488 62.3507ZM34.6392 30.0208C32.0884 30.0208 30.0206 32.0886 30.0206 34.6394C30.0206 37.1901 32.0884 39.2579 34.6392 39.2579H38.103C40.6538 39.2579 42.7216 41.3257 42.7216 43.8765C42.7216 46.4272 40.6538 48.495 38.103 48.495H-60.811C-63.3618 48.495 -65.4296 46.4272 -65.4296 43.8765C-65.4296 41.3257 -63.3618 39.2579 -60.811 39.2579H16.1649L16.1647 39.254C18.6263 39.1532 20.591 37.1257 20.591 34.6394C20.591 32.153 18.6263 30.1255 16.1647 30.0247L16.1649 30.0208H6.9278C4.37701 30.0208 2.30927 27.953 2.30927 25.4022C2.30927 22.8515 4.37701 20.7837 6.9278 20.7837H66.9691C69.5198 20.7837 71.5876 22.8515 71.5876 25.4022C71.5876 27.953 69.5198 30.0208 66.9691 30.0208H34.6392ZM-80.0551 25.4022C-80.0551 22.8515 -77.9872 20.7837 -75.4365 20.7837H-15.3952C-12.8445 20.7837 -10.7767 22.8515 -10.7767 25.4022C-10.7767 27.953 -12.8445 30.0208 -15.3952 30.0208H-75.4365C-77.9872 30.0208 -80.0551 27.953 -80.0551 25.4022Z" fill="#DC8E61"/>
</g>
<mask id="mask3_184_2992" style="mask-type:alpha" maskUnits="userSpaceOnUse" x="0" y="0" width="224" height="224">
<circle cx="112" cy="112" r="112" fill="white"/>
</mask>
<g mask="url(#mask3_184_2992)">
<path fill-rule="evenodd" clip-rule="evenodd" d="M240.165 168.577C237.615 168.577 235.547 170.645 235.547 173.196C235.547 175.746 237.615 177.814 240.165 177.814H300.207C302.757 177.814 304.825 175.746 304.825 173.196C304.825 170.645 302.757 168.577 300.207 168.577H240.165ZM155.492 168.577C152.941 168.577 150.873 170.645 150.873 173.196C150.873 175.746 152.941 177.814 155.492 177.814H185.512L185.512 177.818C187.974 177.919 189.939 179.946 189.939 182.433C189.939 184.919 187.974 186.947 185.512 187.047L185.512 187.051H123.932C121.381 187.051 119.313 189.119 119.313 191.67C119.313 194.221 121.381 196.288 123.932 196.288H222.846C225.397 196.288 227.464 194.221 227.464 191.67C227.464 189.119 225.397 187.051 222.846 187.051H203.987C201.436 187.051 199.368 184.984 199.368 182.433C199.368 179.882 201.436 177.814 203.987 177.814H215.533C218.084 177.814 220.152 175.746 220.152 173.196C220.152 170.645 218.084 168.577 215.533 168.577H155.492ZM234.392 205.526C231.841 205.526 229.774 207.593 229.774 210.144C229.774 212.695 231.841 214.763 234.392 214.763H262.488C265.039 214.763 267.107 212.695 267.107 210.144C267.107 207.593 265.039 205.526 262.488 205.526H234.392ZM123.932 205.526C121.381 205.526 119.313 207.593 119.313 210.144C119.313 212.695 121.381 214.763 123.932 214.763H152.028C154.579 214.763 156.647 212.695 156.647 210.144C156.647 207.593 154.579 205.526 152.028 205.526H123.932ZM22.3235 210.144C22.3235 207.593 24.3913 205.526 26.942 205.526H90.8321C93.3828 205.526 95.4507 207.593 95.4507 210.144C95.4507 212.695 93.3828 214.763 90.8321 214.763H26.942C24.3913 214.763 22.3235 212.695 22.3235 210.144ZM95.4507 177.814C92.8999 177.814 90.8321 179.882 90.8321 182.433C90.8321 184.984 92.8999 187.051 95.4507 187.051H98.9145C101.465 187.051 103.533 189.119 103.533 191.67C103.533 194.221 101.465 196.288 98.9145 196.288H0.000457764C-2.55032 196.288 -4.61807 194.221 -4.61807 191.67C-4.61807 189.119 -2.55032 187.051 0.000457764 187.051H76.9764L76.9762 187.047C79.4378 186.947 81.4025 184.919 81.4025 182.433C81.4025 179.946 79.4378 177.919 76.9762 177.818L76.9764 177.814H67.7393C65.1885 177.814 63.1208 175.746 63.1208 173.196C63.1208 170.645 65.1885 168.577 67.7393 168.577H127.781C130.331 168.577 132.399 170.645 132.399 173.196C132.399 175.746 130.331 177.814 127.781 177.814H95.4507ZM-19.2436 173.196C-19.2436 170.645 -17.1758 168.577 -14.625 168.577H45.4163C47.967 168.577 50.0348 170.645 50.0348 173.196C50.0348 175.746 47.967 177.814 45.4163 177.814H-14.625C-17.1758 177.814 -19.2436 175.746 -19.2436 173.196Z" fill="#D89D6D"/>
</g>
<mask id="mask4_184_2992" style="mask-type:alpha" maskUnits="userSpaceOnUse" x="0" y="0" width="224" height="224">
<circle cx="112" cy="112" r="112" fill="white"/>
</mask>
<g mask="url(#mask4_184_2992)">
<path fill-rule="evenodd" clip-rule="evenodd" d="M68.1233 85.4432C70.6741 85.4432 72.7419 87.511 72.7419 90.0617C72.7419 92.6125 70.6741 94.6803 68.1233 94.6803H64.2745C61.7238 94.6803 59.656 96.7481 59.656 99.2988C59.656 101.85 61.7238 103.917 64.2745 103.917H98.5289C101.08 103.917 103.147 101.85 103.147 99.2988C103.147 96.7481 101.08 94.6803 98.5289 94.6803H94.68L94.6797 94.6763C92.2184 94.5752 90.254 92.5479 90.254 90.0617C90.254 87.5756 92.2184 85.5483 94.6797 85.4471L94.68 85.4432H119.697C122.248 85.4432 124.316 83.3754 124.316 80.8246C124.316 78.2738 122.248 76.2061 119.697 76.2061H43.1062C40.5554 76.2061 38.4876 78.2738 38.4876 80.8246C38.4876 83.3754 40.5554 85.4432 43.1062 85.4432H68.1233ZM50.4189 99.2988C50.4189 96.7481 48.3511 94.6803 45.8003 94.6803H21.9378C19.387 94.6803 17.3192 96.7481 17.3192 99.2988C17.3192 101.85 19.387 103.917 21.9378 103.917H45.8003C48.3511 103.917 50.4189 101.85 50.4189 99.2988ZM3.46355 94.6803C6.01431 94.6803 8.08211 96.7481 8.08211 99.2988C8.08211 101.85 6.01431 103.917 3.46355 103.917H-7.31308C-9.86384 103.917 -11.9316 101.85 -11.9316 99.2988C-11.9316 96.7481 -9.86384 94.6803 -7.31308 94.6803H3.46355ZM186.281 99.2988C186.281 96.7481 184.214 94.6803 181.663 94.6803H117.003C114.452 94.6803 112.385 96.7481 112.385 99.2988C112.385 101.85 114.452 103.917 117.003 103.917H181.663C184.214 103.917 186.281 101.85 186.281 99.2988ZM210.914 94.6803C213.464 94.6803 215.532 96.7481 215.532 99.2988C215.532 101.85 213.464 103.917 210.914 103.917H200.137C197.586 103.917 195.519 101.85 195.519 99.2988C195.519 96.7481 197.586 94.6803 200.137 94.6803H210.914ZM197.443 80.8246C197.443 78.2738 195.375 76.2061 192.824 76.2061H138.171C135.621 76.2061 133.553 78.2738 133.553 80.8246C133.553 83.3754 135.621 85.4432 138.171 85.4432H192.824C195.375 85.4432 197.443 83.3754 197.443 80.8246ZM230.543 76.2061C233.093 76.2061 235.161 78.2738 235.161 80.8246C235.161 83.3754 233.093 85.4432 230.543 85.4432H211.299C208.748 85.4432 206.68 83.3754 206.68 80.8246C206.68 78.2738 208.748 76.2061 211.299 76.2061H230.543ZM20.0134 80.8246C20.0134 78.2738 17.9456 76.2061 15.3948 76.2061H4.61819C2.06743 76.2061 -0.000370026 78.2738 -0.000370026 80.8246C-0.000370026 83.3754 2.06743 85.4432 4.61819 85.4432H15.3948C17.9456 85.4432 20.0134 83.3754 20.0134 80.8246Z" fill="#D89D6D"/>
</g>
<mask id="mask5_184_2992" style="mask-type:alpha" maskUnits="userSpaceOnUse" x="0" y="0" width="224" height="224">
<circle cx="112" cy="112" r="112" fill="white"/>
</mask>
<g mask="url(#mask5_184_2992)">
<rect opacity="0.0775757" x="112" width="112.385" height="224" fill="black"/>
</g>
<path fill-rule="evenodd" clip-rule="evenodd" d="M222.076 112.041C222.076 112.028 222.076 112.014 222.076 112C222.076 111.986 222.076 111.972 222.076 111.958C222.053 51.1845 172.779 1.92432 112 1.92432V222.076C172.779 222.076 222.053 172.815 222.076 112.041Z" fill="#A15C3E"/>
<mask id="mask6_184_2992" style="mask-type:alpha" maskUnits="userSpaceOnUse" x="112" y="1" width="111" height="222">
<path fill-rule="evenodd" clip-rule="evenodd" d="M222.076 112.041C222.076 112.028 222.076 112.014 222.076 112C222.076 111.986 222.076 111.972 222.076 111.958C222.053 51.1845 172.779 1.92432 112 1.92432V222.076C172.779 222.076 222.053 172.815 222.076 112.041Z" fill="white"/>
</mask>
<g mask="url(#mask6_184_2992)">
<circle cx="112.193" cy="112.192" r="103.725" fill="#F0D29F"/>
<circle cx="112.577" cy="112.192" r="81.7869" fill="#E2BE81"/>
<circle cx="112.577" cy="112.192" r="72.1649" fill="#D27140"/>
<circle cx="112" cy="112" r="16.1649" fill="#565658"/>
</g>
</svg>
