<svg width="176" height="176" viewBox="0 0 176 176" fill="none" xmlns="http://www.w3.org/2000/svg">
<g clip-path="url(#clip0_178_2314)">
<path d="M88 176C136.601 176 176 136.601 176 88C176 39.3989 136.601 0 88 0C39.3989 0 0 39.3989 0 88C0 136.601 39.3989 176 88 176Z" fill="#65F0D5"/>
<mask id="mask0_178_2314" style="mask-type:alpha" maskUnits="userSpaceOnUse" x="0" y="0" width="176" height="176">
<path d="M88 176C136.601 176 176 136.601 176 88C176 39.3989 136.601 0 88 0C39.3989 0 0 39.3989 0 88C0 136.601 39.3989 176 88 176Z" fill="white"/>
</mask>
<g mask="url(#mask0_178_2314)">
<path fill-rule="evenodd" clip-rule="evenodd" d="M171.05 -57.6417C171.05 -55.0951 168.986 -53.0304 166.439 -53.0304C163.892 -53.0304 161.827 -55.0951 161.827 -57.6417V-117.589C161.827 -120.136 163.892 -122.201 166.439 -122.201C168.986 -122.201 171.05 -120.136 171.05 -117.589V-57.6417ZM171.05 26.8998C171.05 29.4464 168.986 31.5111 166.439 31.5111C163.892 31.5111 161.827 29.4464 161.827 26.8998V-3.07404H161.824C161.723 -5.53151 159.698 -7.49326 157.216 -7.49326C154.734 -7.49326 152.709 -5.53151 152.608 -3.07404H152.605V58.4107C152.605 60.9573 150.54 63.022 147.993 63.022C145.447 63.022 143.382 60.9573 143.382 58.4107V-40.3492C143.382 -42.8958 145.447 -44.9605 147.993 -44.9605C150.54 -44.9605 152.605 -42.8958 152.605 -40.3492V-21.5195C152.605 -18.9728 154.669 -16.9081 157.216 -16.9081C159.763 -16.9081 161.827 -18.9728 161.827 -21.5195V-33.0478C161.827 -35.5945 163.892 -37.6592 166.439 -37.6592C168.986 -37.6592 171.05 -35.5945 171.05 -33.0478V26.8998ZM134.159 -51.8775C134.159 -49.3309 132.095 -47.2662 129.548 -47.2662C127.001 -47.2662 124.937 -49.3309 124.937 -51.8775V-79.9299C124.937 -82.4766 127.001 -84.5413 129.548 -84.5413C132.095 -84.5413 134.159 -82.4766 134.159 -79.9299V-51.8775ZM134.159 58.4107C134.159 60.9573 132.095 63.022 129.548 63.022C127.001 63.022 124.937 60.9573 124.937 58.4107V30.3583C124.937 27.8117 127.001 25.7469 129.548 25.7469C132.095 25.7469 134.159 27.8117 134.159 30.3583V58.4107ZM129.548 159.86C132.095 159.86 134.159 157.796 134.159 155.249V91.4587C134.159 88.9121 132.095 86.8474 129.548 86.8474C127.001 86.8474 124.937 88.9121 124.937 91.4587V155.249C124.937 157.796 127.001 159.86 129.548 159.86ZM161.827 86.8474C161.827 89.394 159.763 91.4587 157.216 91.4587C154.669 91.4587 152.605 89.394 152.605 86.8474V83.3888C152.605 80.8422 150.54 78.7775 147.993 78.7775C145.447 78.7775 143.382 80.8422 143.382 83.3888V182.149C143.382 184.695 145.447 186.76 147.993 186.76C150.54 186.76 152.605 184.695 152.605 182.149V105.293H152.608C152.709 102.835 154.734 100.874 157.216 100.874C159.698 100.874 161.723 102.835 161.824 105.293H161.827V114.515C161.827 117.062 163.892 119.127 166.439 119.127C168.986 119.127 171.05 117.062 171.05 114.515V54.5679C171.05 52.0213 168.986 49.9565 166.439 49.9565C163.892 49.9565 161.827 52.0213 161.827 54.5679V86.8474ZM166.439 201.363C168.986 201.363 171.05 199.298 171.05 196.751V136.804C171.05 134.257 168.986 132.192 166.439 132.192C163.892 132.192 161.827 134.257 161.827 136.804V196.751C161.827 199.298 163.892 201.363 166.439 201.363Z" fill="#49CBC2"/>
</g>
<mask id="mask1_178_2314" style="mask-type:alpha" maskUnits="userSpaceOnUse" x="0" y="0" width="176" height="176">
<path d="M88 176C136.601 176 176 136.601 176 88C176 39.3989 136.601 0 88 0C39.3989 0 0 39.3989 0 88C0 136.601 39.3989 176 88 176Z" fill="white"/>
</mask>
<g mask="url(#mask1_178_2314)">
<path fill-rule="evenodd" clip-rule="evenodd" d="M69.6006 -84.5416C69.6006 -81.995 71.6653 -79.9303 74.2119 -79.9303C76.7589 -79.9303 78.8233 -81.995 78.8233 -84.5416V-144.489C78.8233 -147.036 76.7589 -149.101 74.2119 -149.101C71.6653 -149.101 69.6006 -147.036 69.6006 -144.489V-84.5416ZM69.6006 -0.000144005C69.6006 2.54648 71.6653 4.61121 74.2119 4.61121C76.7589 4.61121 78.8233 2.54648 78.8233 -0.000144005V-29.9739H78.8271C78.9278 -32.4314 80.9522 -34.3932 83.4346 -34.3932C85.9171 -34.3932 87.9415 -32.4314 88.0422 -29.9739H88.046V31.5108C88.046 34.0574 90.1107 36.1221 92.6574 36.1221C95.2044 36.1221 97.2687 34.0574 97.2687 31.5108V-67.2491C97.2687 -69.7957 95.2044 -71.8604 92.6574 -71.8604C90.1107 -71.8604 88.046 -69.7957 88.046 -67.2491V-48.4194C88.046 -45.8727 85.9817 -43.808 83.4346 -43.808C80.888 -43.808 78.8233 -45.8727 78.8233 -48.4194V-59.9477C78.8233 -62.4944 76.7589 -64.5591 74.2119 -64.5591C71.6653 -64.5591 69.6006 -62.4944 69.6006 -59.9477V-0.000144005ZM106.491 -78.7774C106.491 -76.2308 108.556 -74.1661 111.103 -74.1661C113.65 -74.1661 115.714 -76.2308 115.714 -78.7774V-106.83C115.714 -109.376 113.65 -111.441 111.103 -111.441C108.556 -111.441 106.491 -109.376 106.491 -106.83V-78.7774ZM106.491 31.5108C106.491 34.0574 108.556 36.1221 111.103 36.1221C113.65 36.1221 115.714 34.0574 115.714 31.5108V3.45837C115.714 0.911751 113.65 -1.15298 111.103 -1.15298C108.556 -1.15298 106.491 0.911751 106.491 3.45837V31.5108ZM111.103 132.961C108.556 132.961 106.491 130.896 106.491 128.349V64.5588C106.491 62.0122 108.556 59.9475 111.103 59.9475C113.65 59.9475 115.714 62.0122 115.714 64.5588V128.349C115.714 130.896 113.65 132.961 111.103 132.961ZM78.8233 59.9475C78.8233 62.4941 80.888 64.5588 83.4346 64.5588C85.9817 64.5588 88.046 62.4941 88.046 59.9475V56.4889C88.046 53.9423 90.1107 51.8776 92.6574 51.8776C95.2044 51.8776 97.2687 53.9423 97.2687 56.4889V155.249C97.2687 157.795 95.2044 159.86 92.6574 159.86C90.1107 159.86 88.046 157.795 88.046 155.249V78.3929H88.0422C87.9415 75.9354 85.9171 73.9737 83.4346 73.9737C80.9522 73.9737 78.9278 75.9354 78.8271 78.3929H78.8233V87.6156C78.8233 90.1622 76.7589 92.2269 74.2119 92.2269C71.6653 92.2269 69.6006 90.1622 69.6006 87.6156V27.668C69.6006 25.1214 71.6653 23.0566 74.2119 23.0566C76.7589 23.0566 78.8233 25.1214 78.8233 27.668V59.9475ZM74.2119 174.463C71.6653 174.463 69.6006 172.398 69.6006 169.851V109.904C69.6006 107.357 71.6653 105.292 74.2119 105.292C76.7589 105.292 78.8233 107.357 78.8233 109.904V169.851C78.8233 172.398 76.7589 174.463 74.2119 174.463Z" fill="#50DECD"/>
</g>
<mask id="mask2_178_2314" style="mask-type:alpha" maskUnits="userSpaceOnUse" x="0" y="0" width="176" height="176">
<path d="M88 176C136.601 176 176 136.601 176 88C176 39.3989 136.601 0 88 0C39.3989 0 0 39.3989 0 88C0 136.601 39.3989 176 88 176Z" fill="white"/>
</mask>
<g mask="url(#mask2_178_2314)">
<path fill-rule="evenodd" clip-rule="evenodd" d="M60.3782 -97.2228C60.3782 -94.6762 58.3138 -92.6114 55.7668 -92.6114C53.2202 -92.6114 51.1555 -94.6762 51.1555 -97.2228V-157.17C51.1555 -159.717 53.2202 -161.782 55.7668 -161.782C58.3138 -161.782 60.3782 -159.717 60.3782 -157.17V-97.2228ZM60.3782 -12.6813C60.3782 -10.1347 58.3138 -8.06994 55.7668 -8.06994C53.2202 -8.06994 51.1555 -10.1347 51.1555 -12.6813V-42.6551H51.1516C51.051 -45.1126 49.0266 -47.0743 46.5441 -47.0743C44.0617 -47.0743 42.0373 -45.1126 41.9366 -42.6551H41.9328V18.8296C41.9328 21.3762 39.8684 23.441 37.3214 23.441C34.7748 23.441 32.7101 21.3762 32.7101 18.8296V-79.9302C32.7101 -82.4768 34.7748 -84.5416 37.3214 -84.5416C39.8684 -84.5416 41.9328 -82.4768 41.9328 -79.9302V-61.1005C41.9328 -58.5539 43.9975 -56.4892 46.5441 -56.4892C49.0911 -56.4892 51.1555 -58.5539 51.1555 -61.1005V-72.6289C51.1555 -75.1755 53.2202 -77.2403 55.7668 -77.2403C58.3138 -77.2403 60.3782 -75.1755 60.3782 -72.6289V-12.6813ZM23.4874 -91.4586C23.4874 -88.912 21.423 -86.8472 18.876 -86.8472C16.3294 -86.8472 14.2646 -88.912 14.2646 -91.4586V-119.511C14.2646 -122.058 16.3294 -124.122 18.876 -124.122C21.423 -124.122 23.4874 -122.058 23.4874 -119.511V-91.4586ZM23.4874 18.8296C23.4874 21.3762 21.423 23.441 18.876 23.441C16.3294 23.441 14.2646 21.3762 14.2646 18.8296V-9.22278C14.2646 -11.7694 16.3294 -13.8341 18.876 -13.8341C21.423 -13.8341 23.4874 -11.7694 23.4874 -9.22278V18.8296ZM18.876 120.279C21.423 120.279 23.4874 118.215 23.4874 115.668V51.8777C23.4874 49.331 21.423 47.2663 18.876 47.2663C16.3294 47.2663 14.2646 49.331 14.2646 51.8777V115.668C14.2646 118.215 16.3294 120.279 18.876 120.279ZM51.1555 47.2663C51.1555 49.8129 49.0911 51.8777 46.5441 51.8777C43.9975 51.8777 41.9328 49.8129 41.9328 47.2663V43.8078C41.9328 41.2612 39.8684 39.1964 37.3214 39.1964C34.7748 39.1964 32.7101 41.2612 32.7101 43.8078V142.568C32.7101 145.114 34.7748 147.179 37.3214 147.179C39.8684 147.179 41.9328 145.114 41.9328 142.568V65.7117H41.9366C42.0373 63.2543 44.0617 61.2925 46.5441 61.2925C49.0266 61.2925 51.051 63.2543 51.1516 65.7117H51.1555V74.9344C51.1555 77.481 53.2202 79.5458 55.7668 79.5458C58.3138 79.5458 60.3782 77.481 60.3782 74.9344V14.9868C60.3782 12.4402 58.3138 10.3755 55.7668 10.3755C53.2202 10.3755 51.1555 12.4402 51.1555 14.9868V47.2663ZM55.7668 161.782C58.3138 161.782 60.3782 159.717 60.3782 157.17V97.2226C60.3782 94.676 58.3138 92.6113 55.7668 92.6113C53.2202 92.6113 51.1555 94.676 51.1555 97.2226V157.17C51.1555 159.717 53.2202 161.782 55.7668 161.782Z" fill="#77FFF5"/>
</g>
<mask id="mask3_178_2314" style="mask-type:alpha" maskUnits="userSpaceOnUse" x="0" y="0" width="176" height="176">
<path d="M88 176C136.601 176 176 136.601 176 88C176 39.3989 136.601 0 88 0C39.3989 0 0 39.3989 0 88C0 136.601 39.3989 176 88 176Z" fill="white"/>
</mask>
<g mask="url(#mask3_178_2314)">
<path opacity="0.078" d="M88 0H176V176H88V0Z" fill="black"/>
</g>
</g>
<defs>
<clipPath id="clip0_178_2314">
<rect width="176" height="176" fill="white"/>
</clipPath>
</defs>
</svg>
