<svg width="253" height="253" viewBox="0 0 253 253" fill="none" xmlns="http://www.w3.org/2000/svg">
<g clip-path="url(#clip0_178_2050)">
<path d="M126.5 253C196.364 253 253 196.364 253 126.5C253 56.636 196.364 0 126.5 0C56.636 0 0 56.636 0 126.5C0 196.364 56.636 253 126.5 253Z" fill="#F7CC7F"/>
<mask id="mask0_178_2050" style="mask-type:alpha" maskUnits="userSpaceOnUse" x="0" y="0" width="253" height="253">
<path d="M126.5 253C196.364 253 253 196.364 253 126.5C253 56.636 196.364 0 126.5 0C56.636 0 0 56.636 0 126.5C0 196.364 56.636 253 126.5 253Z" fill="white"/>
</mask>
<g mask="url(#mask0_178_2050)">
<path d="M196.075 196.707C200.267 196.707 203.665 200.106 203.665 204.297C203.665 208.489 200.267 211.887 196.075 211.887H119.543L119.542 211.894C115.497 212.06 112.269 215.391 112.269 219.477C112.269 223.563 115.497 226.895 119.542 227.061L119.543 227.067H121.44C125.632 227.067 129.03 230.466 129.03 234.657C129.03 238.849 125.632 242.247 121.44 242.247H73.37C69.1785 242.247 65.78 238.849 65.78 234.657C65.78 230.466 69.1785 227.067 73.37 227.067H75.9C80.0916 227.067 83.49 223.669 83.49 219.477C83.49 215.286 80.0916 211.887 75.9 211.887H49.9675C45.776 211.887 42.3775 208.489 42.3775 204.297C42.3775 200.106 45.776 196.707 49.9675 196.707H196.075ZM183.425 105.627C187.617 105.627 191.015 109.026 191.015 113.217C191.015 117.409 187.617 120.807 183.425 120.807H171.408V120.814C167.363 120.98 164.134 124.311 164.134 128.397C164.134 132.483 167.363 135.815 171.408 135.981V135.987H222.008C226.199 135.987 229.598 139.386 229.598 143.577C229.598 147.769 226.199 151.167 222.008 151.167H209.358L209.357 151.174C205.312 151.34 202.084 154.671 202.084 158.757C202.084 162.843 205.312 166.175 209.357 166.341L209.358 166.347H209.99C214.182 166.347 217.58 169.746 217.58 173.937C217.58 178.129 214.182 181.527 209.99 181.527H161.92C157.728 181.527 154.33 178.129 154.33 173.937C154.33 169.746 157.728 166.347 161.92 166.347H165.715C169.907 166.347 173.305 162.949 173.305 158.757C173.305 154.566 169.907 151.167 165.715 151.167H75.9C71.7085 151.167 68.31 147.769 68.31 143.577C68.31 139.386 71.7085 135.987 75.9 135.987H81.5925C85.7841 135.987 89.1825 132.589 89.1825 128.397C89.1825 124.206 85.7841 120.807 81.5925 120.807H37.3175C33.126 120.807 29.7275 117.409 29.7275 113.217C29.7275 109.026 33.126 105.627 37.3175 105.627H183.425ZM74.0025 166.347C78.1941 166.347 81.5925 169.746 81.5925 173.937C81.5925 178.129 78.1941 181.527 74.0025 181.527H25.9325C21.741 181.527 18.3425 178.129 18.3425 173.937C18.3425 169.746 21.741 166.347 25.9325 166.347H74.0025ZM280.198 135.987C284.389 135.987 287.788 139.386 287.788 143.577C287.788 147.769 284.389 151.167 280.198 151.167H254.265C250.073 151.167 246.675 147.769 246.675 143.577C246.675 139.386 250.073 135.987 254.265 135.987H280.198ZM-6.00871 105.627C-1.81713 105.627 1.58129 109.026 1.58129 113.217C1.58129 117.409 -1.81713 120.807 -6.00871 120.807H-33.8387C-38.0303 120.807 -41.4287 117.409 -41.4287 113.217C-41.4287 109.026 -38.0303 105.627 -33.8387 105.627H-6.00871ZM175.835 75.2674C180.027 75.2674 183.425 78.6658 183.425 82.8574C183.425 87.0489 180.027 90.4474 175.835 90.4474H136.62C132.428 90.4474 129.03 87.0489 129.03 82.8574C129.03 78.6658 132.428 75.2674 136.62 75.2674H175.835ZM87.9175 75.2674C92.1091 75.2674 95.5075 78.6658 95.5075 82.8574C95.5075 87.0489 92.1091 90.4474 87.9175 90.4474H75.2675C71.076 90.4474 67.6775 87.0489 67.6775 82.8574C67.6775 78.6658 71.076 75.2674 75.2675 75.2674H87.9175ZM187.853 14.5474C192.044 14.5474 195.443 17.9458 195.443 22.1374C195.443 26.3289 192.044 29.7274 187.853 29.7274H144.843L144.842 29.7337C140.797 29.9 137.569 33.2314 137.569 37.3174C137.569 41.4033 140.797 44.7347 144.843 44.901V44.9074H146.74C150.932 44.9074 154.33 48.3058 154.33 52.4974C154.33 56.6889 150.932 60.0874 146.74 60.0874H98.67C94.4785 60.0874 91.08 56.6889 91.08 52.4974C91.08 48.3058 94.4785 44.9074 98.67 44.9074H101.2C105.392 44.9074 108.79 41.5089 108.79 37.3174C108.79 33.1258 105.392 29.7274 101.2 29.7274H25.3C21.1085 29.7274 17.71 26.3289 17.71 22.1374C17.71 17.9458 21.1085 14.5474 25.3 14.5474H187.853ZM189.75 44.9074C193.942 44.9074 197.34 48.3058 197.34 52.4974C197.34 56.6889 193.942 60.0874 189.75 60.0874H177.1C172.908 60.0874 169.51 56.6889 169.51 52.4974C169.51 48.3058 172.908 44.9074 177.1 44.9074H189.75ZM68.31 44.9074C72.5016 44.9074 75.9 48.3058 75.9 52.4974C75.9 56.6889 72.5016 60.0874 68.31 60.0874H55.66C51.4685 60.0874 48.07 56.6889 48.07 52.4974C48.07 48.3058 51.4685 44.9074 55.66 44.9074H68.31Z" fill="#FFE6AE"/>
</g>
<mask id="mask1_178_2050" style="mask-type:alpha" maskUnits="userSpaceOnUse" x="0" y="0" width="253" height="253">
<path d="M126.5 253C196.364 253 253 196.364 253 126.5C253 56.636 196.364 0 126.5 0C56.636 0 0 56.636 0 126.5C0 196.364 56.636 253 126.5 253Z" fill="white"/>
</mask>
<g mask="url(#mask1_178_2050)">
<path d="M129.662 166.348C133.854 166.348 137.252 169.746 137.252 173.938C137.252 178.129 133.854 181.528 129.662 181.528H90.4472C86.2556 181.528 82.8572 178.129 82.8572 173.938C82.8572 169.746 86.2556 166.348 90.4472 166.348H129.662ZM62.6172 128.398C62.6172 124.206 59.2188 120.808 55.0272 120.808H1.26469C-2.92689 120.808 -6.32531 117.409 -6.32531 113.218C-6.32531 109.026 -2.92689 105.628 1.26469 105.628H10.1197C14.3113 105.628 17.7097 102.229 17.7097 98.0376C17.7097 93.846 14.3113 90.4476 10.1197 90.4476H-8.85531C-13.0469 90.4476 -16.4453 87.0492 -16.4453 82.8576C-16.4453 78.666 -13.0469 75.2676 -8.85531 75.2676H89.8147C94.0063 75.2676 97.4047 78.666 97.4047 82.8576C97.4047 87.0492 94.0063 90.4476 89.8147 90.4476H40.4797V90.4539C36.4348 90.6196 33.2059 93.9516 33.2059 98.0376C33.2059 102.124 36.4348 105.456 40.4797 105.621V105.628H141.68C145.871 105.628 149.27 109.026 149.27 113.218C149.27 117.409 145.871 120.808 141.68 120.808H98.6697L98.669 120.814C94.6242 120.98 91.3959 124.312 91.3959 128.398C91.3959 132.484 94.6242 135.815 98.669 135.981L98.6697 135.988H100.567C104.759 135.988 108.157 139.386 108.157 143.578C108.157 147.769 104.759 151.168 100.567 151.168H52.4972C48.3056 151.168 44.9072 147.769 44.9072 143.578C44.9072 139.386 48.3056 135.988 52.4972 135.988H55.0272C59.2188 135.988 62.6172 132.589 62.6172 128.398ZM143.577 135.988C147.769 135.988 151.167 139.386 151.167 143.578C151.167 147.769 147.769 151.168 143.577 151.168H130.927C126.736 151.168 123.337 147.769 123.337 143.578C123.337 139.386 126.736 135.988 130.927 135.988H143.577ZM254.897 135.988C259.089 135.988 262.487 139.386 262.487 143.578C262.487 147.769 259.089 151.168 254.897 151.168H191.015C186.823 151.168 183.425 147.769 183.425 143.578C183.425 139.386 186.823 135.988 191.015 135.988H254.897ZM22.1372 135.988C26.3288 135.988 29.7272 139.386 29.7272 143.578C29.7272 147.769 26.3288 151.168 22.1372 151.168H9.48719C5.29561 151.168 1.89719 147.769 1.89719 143.578C1.89719 139.386 5.29561 135.988 9.48719 135.988H22.1372ZM220.11 105.628C224.301 105.628 227.7 109.026 227.7 113.218C227.7 117.409 224.301 120.808 220.11 120.808H207.46C203.268 120.808 199.87 117.409 199.87 113.218C199.87 109.026 203.268 105.628 207.46 105.628H220.11Z" fill="#E29F58"/>
</g>
<mask id="mask2_178_2050" style="mask-type:alpha" maskUnits="userSpaceOnUse" x="0" y="0" width="253" height="253">
<path d="M126.5 253C196.364 253 253 196.364 253 126.5C253 56.636 196.364 0 126.5 0C56.636 0 0 56.636 0 126.5C0 196.364 56.636 253 126.5 253Z" fill="white"/>
</mask>
<g mask="url(#mask2_178_2050)">
<path opacity="0.078" d="M127.133 -15.8125H269.445V268.812H127.133V-15.8125Z" fill="black"/>
</g>
</g>
<defs>
<clipPath id="clip0_178_2050">
<rect width="253" height="253" fill="white"/>
</clipPath>
</defs>
</svg>
