<svg width="369" height="369" viewBox="0 0 369 369" fill="none" xmlns="http://www.w3.org/2000/svg">
<circle cx="184.5" cy="184.5" r="184.5" fill="#ECAD7A"/>
<mask id="mask0_182_2762" style="mask-type:alpha" maskUnits="userSpaceOnUse" x="0" y="0" width="369" height="369">
<circle cx="184.5" cy="184.5" r="184.5" fill="white"/>
</mask>
<g mask="url(#mask0_182_2762)">
<path fill-rule="evenodd" clip-rule="evenodd" d="M24.0926 186.402C28.2945 186.402 31.7009 189.808 31.7009 194.01C31.7009 198.212 28.2945 201.618 24.0926 201.618H-74.8146C-79.0165 201.618 -82.4229 198.212 -82.4229 194.01C-82.4229 189.808 -79.0165 186.402 -74.8146 186.402H24.0926ZM163.577 186.402C167.779 186.402 171.185 189.808 171.185 194.01C171.185 198.212 167.779 201.618 163.577 201.618H114.124L114.124 201.625C110.069 201.791 106.832 205.131 106.832 209.227C106.832 213.322 110.069 216.662 114.124 216.828L114.124 216.835H215.567C219.769 216.835 223.175 220.241 223.175 224.443C223.175 228.645 219.769 232.051 215.567 232.051H52.6235C48.4216 232.051 45.0153 228.645 45.0153 224.443C45.0153 220.241 48.4216 216.835 52.6235 216.835H83.6905C87.8925 216.835 91.2988 213.429 91.2988 209.227C91.2988 205.025 87.8925 201.618 83.6905 201.618H64.6699C60.468 201.618 57.0617 198.212 57.0617 194.01C57.0617 189.808 60.468 186.402 64.6699 186.402H163.577ZM33.6029 247.268C37.8048 247.268 41.2112 250.674 41.2112 254.876C41.2112 259.078 37.8048 262.484 33.6029 262.484H-12.6806C-16.8825 262.484 -20.2888 259.078 -20.2888 254.876C-20.2888 250.674 -16.8825 247.268 -12.6806 247.268H33.6029ZM215.567 247.268C219.769 247.268 223.175 250.674 223.175 254.876C223.175 259.078 219.769 262.484 215.567 262.484H169.283C165.081 262.484 161.675 259.078 161.675 254.876C161.675 250.674 165.081 247.268 169.283 247.268H215.567ZM382.948 254.876C382.948 250.674 379.542 247.268 375.34 247.268H270.093C265.891 247.268 262.484 250.674 262.484 254.876C262.484 259.078 265.891 262.484 270.093 262.484H375.34C379.542 262.484 382.948 259.078 382.948 254.876ZM262.484 201.618C266.686 201.618 270.093 205.025 270.093 209.227C270.093 213.429 266.686 216.835 262.484 216.835H256.778C252.576 216.835 249.17 220.241 249.17 224.443C249.17 228.645 252.576 232.051 256.778 232.051H419.722C423.923 232.051 427.33 228.645 427.33 224.443C427.33 220.241 423.923 216.835 419.722 216.835H292.917L292.918 216.828C288.863 216.662 285.626 213.322 285.626 209.227C285.626 205.131 288.863 201.791 292.918 201.625L292.917 201.618H308.134C312.336 201.618 315.742 198.212 315.742 194.01C315.742 189.808 312.336 186.402 308.134 186.402H209.227C205.025 186.402 201.618 189.808 201.618 194.01C201.618 198.212 205.025 201.618 209.227 201.618H262.484ZM451.422 194.01C451.422 189.808 448.016 186.402 443.814 186.402H344.907C340.705 186.402 337.299 189.808 337.299 194.01C337.299 198.212 340.705 201.618 344.907 201.618H443.814C448.016 201.618 451.422 198.212 451.422 194.01Z" fill="#F0D29F"/>
</g>
<mask id="mask1_182_2762" style="mask-type:alpha" maskUnits="userSpaceOnUse" x="0" y="0" width="369" height="369">
<circle cx="184.5" cy="184.5" r="184.5" fill="white"/>
</mask>
<g mask="url(#mask1_182_2762)">
<path d="M100.809 254.876C100.809 250.675 97.4028 247.268 93.2009 247.268H74.8143C70.6124 247.268 67.2061 243.862 67.2061 239.66C67.2061 235.458 70.6124 232.052 74.8143 232.052H138.85C143.052 232.052 146.459 235.458 146.459 239.66C146.459 243.862 143.052 247.268 138.85 247.268H136.948L136.948 247.275C132.893 247.441 129.657 250.781 129.657 254.876C129.657 258.972 132.893 262.312 136.948 262.478L136.948 262.485H138.85C143.052 262.485 146.459 265.891 146.459 270.093C146.459 274.295 143.052 277.701 138.85 277.701H90.6648C86.4629 277.701 83.0566 274.295 83.0566 270.093C83.0566 265.891 86.4629 262.485 90.6648 262.485H93.2009C97.4028 262.485 100.809 259.078 100.809 254.876Z" fill="#D86534"/>
</g>
<mask id="mask2_182_2762" style="mask-type:alpha" maskUnits="userSpaceOnUse" x="0" y="0" width="369" height="369">
<circle cx="184.5" cy="184.5" r="184.5" fill="white"/>
</mask>
<g mask="url(#mask2_182_2762)">
<path fill-rule="evenodd" clip-rule="evenodd" d="M295.453 34.2373C291.251 34.2373 287.845 37.6436 287.845 41.8456C287.845 46.0475 291.251 49.4538 295.453 49.4538H394.361C398.562 49.4538 401.969 46.0475 401.969 41.8456C401.969 37.6436 398.562 34.2373 394.361 34.2373H295.453ZM155.969 34.2373C151.767 34.2373 148.36 37.6436 148.36 41.8456C148.36 46.0475 151.767 49.4538 155.969 49.4538H205.422L205.422 49.4603C209.477 49.6263 212.714 52.9662 212.714 57.062C212.714 61.1579 209.477 64.4977 205.422 64.6638L205.422 64.6703H103.979C99.7771 64.6703 96.3708 68.0766 96.3708 72.2785C96.3708 76.4805 99.7771 79.8868 103.979 79.8868H266.922C271.124 79.8868 274.531 76.4805 274.531 72.2785C274.531 68.0766 271.124 64.6703 266.922 64.6703H235.855C231.653 64.6703 228.247 61.264 228.247 57.062C228.247 52.8601 231.653 49.4538 235.855 49.4538H254.876C259.078 49.4538 262.484 46.0475 262.484 41.8456C262.484 37.6436 259.078 34.2373 254.876 34.2373H155.969ZM285.943 95.1033C281.741 95.1033 278.335 98.5096 278.335 102.712C278.335 106.913 281.741 110.32 285.943 110.32H332.226C336.428 110.32 339.835 106.913 339.835 102.712C339.835 98.5096 336.428 95.1033 332.226 95.1033H285.943ZM103.979 95.1033C99.7771 95.1033 96.3708 98.5096 96.3708 102.712C96.3708 106.913 99.7771 110.32 103.979 110.32H150.263C154.464 110.32 157.871 106.913 157.871 102.712C157.871 98.5096 154.464 95.1033 150.263 95.1033H103.979ZM-63.4024 102.712C-63.4024 98.5096 -59.9961 95.1033 -55.7941 95.1033H49.4532C53.6552 95.1033 57.0615 98.5096 57.0615 102.712C57.0615 106.913 53.6552 110.32 49.4532 110.32H-55.7941C-59.9961 110.32 -63.4024 106.913 -63.4024 102.712ZM57.0616 49.4538C52.8597 49.4538 49.4533 52.8601 49.4533 57.062C49.4533 61.264 52.8597 64.6703 57.0616 64.6703H62.7677C66.9697 64.6703 70.376 68.0766 70.376 72.2785C70.376 76.4805 66.9697 79.8868 62.7677 79.8868H-100.176C-104.377 79.8868 -107.784 76.4805 -107.784 72.2785C-107.784 68.0766 -104.377 64.6703 -100.176 64.6703H26.6286L26.6283 64.6638C30.6833 64.4977 33.9198 61.1579 33.9198 57.062C33.9198 52.9662 30.6833 49.6263 26.6283 49.4603L26.6286 49.4538H11.4121C7.21013 49.4538 3.80382 46.0475 3.80382 41.8456C3.80382 37.6436 7.21013 34.2373 11.4121 34.2373H110.319C114.521 34.2373 117.928 37.6436 117.928 41.8456C117.928 46.0475 114.521 49.4538 110.319 49.4538H57.0616ZM-131.877 41.8456C-131.877 37.6436 -128.47 34.2373 -124.268 34.2373H-25.3612C-21.1592 34.2373 -17.7529 37.6436 -17.7529 41.8456C-17.7529 46.0475 -21.1592 49.4538 -25.3612 49.4538H-124.268C-128.47 49.4538 -131.877 46.0475 -131.877 41.8456Z" fill="#DC8E61"/>
</g>
<mask id="mask3_182_2762" style="mask-type:alpha" maskUnits="userSpaceOnUse" x="0" y="0" width="369" height="369">
<circle cx="184.5" cy="184.5" r="184.5" fill="white"/>
</mask>
<g mask="url(#mask3_182_2762)">
<path fill-rule="evenodd" clip-rule="evenodd" d="M395.629 277.701C391.427 277.701 388.021 281.107 388.021 285.309C388.021 289.511 391.427 292.918 395.629 292.918H494.536C498.738 292.918 502.145 289.511 502.145 285.309C502.145 281.107 498.738 277.701 494.536 277.701H395.629ZM256.145 277.701C251.943 277.701 248.536 281.107 248.536 285.309C248.536 289.511 251.943 292.918 256.145 292.918H305.598L305.598 292.924C309.653 293.09 312.889 296.43 312.889 300.526C312.889 304.622 309.653 307.962 305.598 308.128L305.598 308.134H204.155C199.953 308.134 196.547 311.54 196.547 315.742C196.547 319.944 199.953 323.351 204.155 323.351H367.098C371.3 323.351 374.706 319.944 374.706 315.742C374.706 311.54 371.3 308.134 367.098 308.134H336.031C331.829 308.134 328.423 304.728 328.423 300.526C328.423 296.324 331.829 292.918 336.031 292.918H355.052C359.254 292.918 362.66 289.511 362.66 285.309C362.66 281.107 359.254 277.701 355.052 277.701H256.145ZM386.119 338.567C381.917 338.567 378.511 341.973 378.511 346.175C378.511 350.377 381.917 353.784 386.119 353.784H432.402C436.604 353.784 440.011 350.377 440.011 346.175C440.011 341.973 436.604 338.567 432.402 338.567H386.119ZM204.155 338.567C199.953 338.567 196.547 341.973 196.547 346.175C196.547 350.377 199.953 353.784 204.155 353.784H250.438C254.64 353.784 258.047 350.377 258.047 346.175C258.047 341.973 254.64 338.567 250.438 338.567H204.155ZM36.7734 346.175C36.7734 341.973 40.1797 338.567 44.3817 338.567H149.629C153.831 338.567 157.237 341.973 157.237 346.175C157.237 350.377 153.831 353.784 149.629 353.784H44.3817C40.1797 353.784 36.7734 350.377 36.7734 346.175ZM157.237 292.918C153.035 292.918 149.629 296.324 149.629 300.526C149.629 304.728 153.035 308.134 157.237 308.134H162.944C167.145 308.134 170.552 311.54 170.552 315.742C170.552 319.944 167.145 323.351 162.944 323.351H0.000213623C-4.20169 323.351 -7.60806 319.944 -7.60806 315.742C-7.60806 311.54 -4.20169 308.134 0.000213623 308.134H126.804L126.804 308.128C130.859 307.962 134.096 304.622 134.096 300.526C134.096 296.43 130.859 293.09 126.804 292.924L126.804 292.918H111.588C107.386 292.918 103.98 289.511 103.98 285.309C103.98 281.107 107.386 277.701 111.588 277.701H210.495C214.697 277.701 218.103 281.107 218.103 285.309C218.103 289.511 214.697 292.918 210.495 292.918H157.237ZM-31.7008 285.309C-31.7008 281.107 -28.2945 277.701 -24.0926 277.701H74.8146C79.0166 277.701 82.4229 281.107 82.4229 285.309C82.4229 289.511 79.0166 292.918 74.8146 292.918H-24.0926C-28.2945 292.918 -31.7008 289.511 -31.7008 285.309Z" fill="#D89D6D"/>
</g>
<mask id="mask4_182_2762" style="mask-type:alpha" maskUnits="userSpaceOnUse" x="0" y="0" width="369" height="369">
<circle cx="184.5" cy="184.5" r="184.5" fill="white"/>
</mask>
<g mask="url(#mask4_182_2762)">
<path fill-rule="evenodd" clip-rule="evenodd" d="M112.222 140.753C116.424 140.753 119.83 144.159 119.83 148.361C119.83 152.563 116.424 155.969 112.222 155.969H105.882C101.68 155.969 98.2735 159.375 98.2735 163.577C98.2735 167.779 101.68 171.186 105.882 171.186H162.31C166.512 171.186 169.918 167.779 169.918 163.577C169.918 159.375 166.512 155.969 162.31 155.969H155.969L155.969 155.963C151.914 155.796 148.678 152.456 148.678 148.361C148.678 144.265 151.914 140.926 155.969 140.759L155.969 140.753H197.181C201.383 140.753 204.789 137.346 204.789 133.144C204.789 128.942 201.383 125.536 197.181 125.536H71.0106C66.8087 125.536 63.4024 128.942 63.4024 133.144C63.4024 137.346 66.8087 140.753 71.0106 140.753H112.222ZM83.057 163.577C83.057 159.375 79.6507 155.969 75.4488 155.969H36.1395C31.9376 155.969 28.5313 159.375 28.5313 163.577C28.5313 167.779 31.9376 171.186 36.1395 171.186H75.4488C79.6507 171.186 83.057 167.779 83.057 163.577ZM5.70653 155.969C9.90845 155.969 13.3148 159.375 13.3148 163.577C13.3148 167.779 9.90845 171.186 5.70653 171.186H-12.0461C-16.248 171.186 -19.6543 167.779 -19.6543 163.577C-19.6543 159.375 -16.248 155.969 -12.0461 155.969H5.70653ZM306.866 163.577C306.866 159.375 303.46 155.969 299.258 155.969H192.743C188.541 155.969 185.134 159.375 185.134 163.577C185.134 167.779 188.541 171.186 192.743 171.186H299.258C303.46 171.186 306.866 167.779 306.866 163.577ZM347.444 155.969C351.646 155.969 355.052 159.375 355.052 163.577C355.052 167.779 351.646 171.186 347.444 171.186H329.691C325.489 171.186 322.083 167.779 322.083 163.577C322.083 159.375 325.489 155.969 329.691 155.969H347.444ZM325.253 133.144C325.253 128.942 321.847 125.536 317.645 125.536H227.614C223.412 125.536 220.005 128.942 220.005 133.144C220.005 137.346 223.412 140.753 227.614 140.753H317.645C321.847 140.753 325.253 137.346 325.253 133.144ZM379.779 125.536C383.981 125.536 387.387 128.942 387.387 133.144C387.387 137.346 383.981 140.753 379.779 140.753H348.078C343.876 140.753 340.469 137.346 340.469 133.144C340.469 128.942 343.876 125.536 348.078 125.536H379.779ZM32.9694 133.144C32.9694 128.942 29.5631 125.536 25.3612 125.536H7.60859C3.40667 125.536 0.000342369 128.942 0.000342369 133.144C0.000342369 137.346 3.40667 140.753 7.60859 140.753H25.3612C29.5631 140.753 32.9694 137.346 32.9694 133.144Z" fill="#D89D6D"/>
</g>
<mask id="mask5_182_2762" style="mask-type:alpha" maskUnits="userSpaceOnUse" x="0" y="0" width="369" height="369">
<circle cx="184.5" cy="184.5" r="184.5" fill="white"/>
</mask>
<g mask="url(#mask5_182_2762)">
<rect opacity="0.0775757" x="184.5" width="185.134" height="369" fill="black"/>
</g>
<path fill-rule="evenodd" clip-rule="evenodd" d="M184.5 365.83C284.646 365.83 365.83 284.646 365.83 184.5C365.83 84.3541 284.646 3.16992 184.5 3.16992V365.83Z" fill="#A15C3E"/>
<mask id="mask6_182_2762" style="mask-type:alpha" maskUnits="userSpaceOnUse" x="184" y="3" width="182" height="363">
<path fill-rule="evenodd" clip-rule="evenodd" d="M184.5 365.83C284.646 365.83 365.83 284.646 365.83 184.5C365.83 84.3541 284.646 3.16992 184.5 3.16992V365.83Z" fill="white"/>
</mask>
<g mask="url(#mask6_182_2762)">
<circle cx="184.817" cy="184.817" r="170.869" fill="#F0D29F"/>
<circle cx="185.451" cy="184.817" r="134.729" fill="#E2BE81"/>
<circle cx="185.451" cy="184.817" r="118.879" fill="#D27140"/>
<circle cx="184.5" cy="184.5" r="26.6289" fill="#565658"/>
</g>
</svg>
