<svg width="173" height="173" viewBox="0 0 173 173" fill="none" xmlns="http://www.w3.org/2000/svg">
<g clip-path="url(#clip0_178_2344)">
<path d="M86.5 173C134.273 173 173 134.273 173 86.5C173 38.7274 134.273 0 86.5 0C38.7274 0 0 38.7274 0 86.5C0 134.273 38.7274 173 86.5 173Z" fill="#545BFE"/>
<mask id="mask0_178_2344" style="mask-type:alpha" maskUnits="userSpaceOnUse" x="0" y="0" width="173" height="173">
<path d="M86.5 173C134.273 173 173 134.273 173 86.5C173 38.7274 134.273 0 86.5 0C38.7274 0 0 38.7274 0 86.5C0 134.273 38.7274 173 86.5 173Z" fill="white"/>
</mask>
<g mask="url(#mask0_178_2344)">
<path d="M51.5151 134.94C54.0628 134.94 56.1284 132.874 56.1284 130.327C56.1284 127.779 54.0628 125.713 51.5151 125.713H44.2106C41.6629 125.713 39.5973 123.648 39.5973 121.1C39.5973 118.552 41.6629 116.487 44.2106 116.487H43.4417C45.9895 116.487 48.0551 114.421 48.0551 111.873C48.0551 109.326 45.9895 107.26 43.4417 107.26H39.5973C37.0496 107.26 34.984 105.194 34.984 102.647C34.984 100.099 37.0496 98.0333 39.5973 98.0333C42.145 98.0333 44.2106 95.9676 44.2106 93.4199C44.2106 90.8722 42.145 88.8066 39.5973 88.8066C37.0496 88.8066 34.984 86.741 34.984 84.1933C34.984 81.6455 37.0496 79.5799 39.5973 79.5799H58.4351C60.9828 79.5799 63.0484 81.6455 63.0484 84.1933C63.0484 86.741 60.9828 88.8066 58.4351 88.8066H59.204V88.8104C56.7454 88.9115 54.7829 90.9364 54.7829 93.4199C54.7829 95.9034 56.7454 97.9283 59.204 98.0294V98.0333H78.8106C81.3584 98.0333 83.424 100.099 83.424 102.647C83.424 105.194 81.3584 107.26 78.8106 107.26H76.504V107.264C74.0454 107.364 72.0829 109.39 72.0829 111.873C72.0829 114.357 74.0454 116.382 76.504 116.483V116.487C79.0517 116.487 81.1173 118.552 81.1173 121.1C81.1173 123.648 79.0517 125.713 76.504 125.713H66.124V125.717C63.6654 125.818 61.7029 127.843 61.7029 130.327C61.7029 132.81 63.6654 134.835 66.124 134.936V134.94H64.5862C67.1339 134.94 69.1995 137.006 69.1995 139.553C69.1995 142.101 67.1339 144.167 64.5862 144.167H53.4373C50.8896 144.167 48.824 142.101 48.824 139.553C48.824 137.006 50.8896 134.94 53.4373 134.94H51.5151ZM18.8373 70.3533C21.385 70.3533 23.4506 72.4189 23.4506 74.9666C23.4506 77.5143 21.385 79.5799 18.8373 79.5799H5.38175C2.83404 79.5799 0.768416 77.5143 0.768416 74.9666C0.768416 72.4189 2.83404 70.3533 5.38175 70.3533H18.8373ZM37.6751 61.1266C40.2228 61.1266 42.2884 63.1922 42.2884 65.7399C42.2884 68.2876 40.2228 70.3533 37.6751 70.3533C35.1274 70.3533 33.0617 68.2876 33.0617 65.7399C33.0617 63.1922 35.1274 61.1266 37.6751 61.1266ZM67.6617 5.7666C70.2095 5.7666 72.2751 7.83222 72.2751 10.3799C72.2751 12.9276 70.2095 14.9933 67.6617 14.9933H67.2773V14.9971C64.8188 15.0982 62.8562 17.1231 62.8562 19.6066C62.8562 22.0901 64.8188 24.115 67.2773 24.2161V24.2199H69.9684C72.5161 24.2199 74.5817 26.2856 74.5817 28.8333C74.5817 31.381 72.5161 33.4466 69.9684 33.4466H43.4417V33.4504C40.9832 33.5516 39.0206 35.5764 39.0206 38.0599C39.0206 40.5434 40.9832 42.5687 43.4417 42.6694V42.6733H45.364C47.9117 42.6733 49.9773 44.7389 49.9773 47.2866C49.9773 49.8343 47.9117 51.8999 45.364 51.8999H-0.384917C-2.93263 51.8999 -4.99825 49.8343 -4.99825 47.2866C-4.99825 44.7389 -2.93263 42.6733 -0.384917 42.6733H3.45953C6.00724 42.6733 8.07286 40.6076 8.07286 38.0599C8.07286 35.5122 6.00724 33.4466 3.45953 33.4466H4.9973C2.44959 33.4466 0.383971 31.381 0.383971 28.8333C0.383971 26.2856 2.44959 24.2199 4.9973 24.2199H7.30397C9.85168 24.2199 11.9173 22.1543 11.9173 19.6066C11.9173 17.0589 9.85168 14.9933 7.30397 14.9933H-11.1494C-13.6971 14.9933 -15.7627 12.9276 -15.7627 10.3799C-15.7627 7.83222 -13.6971 5.7666 -11.1494 5.7666H67.6617Z" fill="#4FCDF9"/>
</g>
<mask id="mask1_178_2344" style="mask-type:alpha" maskUnits="userSpaceOnUse" x="0" y="0" width="173" height="173">
<path d="M86.5 173C134.273 173 173 134.273 173 86.5C173 38.7274 134.273 0 86.5 0C38.7274 0 0 38.7274 0 86.5C0 134.273 38.7274 173 86.5 173Z" fill="white"/>
</mask>
<g mask="url(#mask1_178_2344)">
<path d="M149.934 125.713C152.481 125.713 154.547 123.648 154.547 121.1C154.547 118.552 152.481 116.486 149.934 116.486C147.386 116.486 145.32 114.421 145.32 111.873C145.32 109.325 147.386 107.26 149.934 107.26H148.78C151.328 107.26 153.394 105.194 153.394 102.646C153.394 100.099 151.328 98.0332 148.78 98.0332H131.48C128.933 98.0332 126.867 95.9675 126.867 93.4198C126.867 90.8721 128.933 88.8065 131.48 88.8065C134.028 88.8065 136.094 86.7409 136.094 84.1932C136.094 81.6455 134.028 79.5798 131.48 79.5798H118.409C115.862 79.5798 113.796 77.5142 113.796 74.9665C113.796 72.4188 115.862 70.3532 118.409 70.3532H128.405C130.953 70.3532 133.018 68.2875 133.018 65.7398C133.018 63.1921 130.953 61.1265 128.405 61.1265C125.857 61.1265 123.791 59.0609 123.791 56.5132C123.791 53.9655 125.857 51.8998 128.405 51.8998H149.934C152.481 51.8998 154.547 53.9655 154.547 56.5132C154.547 59.0609 152.481 61.1265 149.934 61.1265L149.933 61.1303C147.475 61.2314 145.513 63.2563 145.513 65.7398C145.513 68.2233 147.475 70.2482 149.933 70.3493L149.934 70.3532H184.918C187.466 70.3532 189.531 72.4188 189.531 74.9665C189.531 77.5142 187.466 79.5798 184.918 79.5798H177.229V79.5837C174.771 79.6848 172.808 81.7097 172.808 84.1932C172.808 86.6767 174.771 88.7015 177.229 88.8027V88.8065H181.074C183.621 88.8065 185.687 90.8721 185.687 93.4198C185.687 95.9675 183.621 98.0332 181.074 98.0332H175.307L175.307 98.037C172.848 98.1381 170.886 100.163 170.886 102.646C170.886 105.13 172.848 107.155 175.307 107.256L175.307 107.26H174.538C177.086 107.26 179.151 109.325 179.151 111.873C179.151 114.421 177.086 116.486 174.538 116.486H166.849V116.49C164.391 116.591 162.428 118.616 162.428 121.1C162.428 123.583 164.391 125.609 166.849 125.709V125.713H165.311C167.859 125.713 169.925 127.779 169.925 130.326C169.925 132.874 167.859 134.94 165.311 134.94H151.471C148.924 134.94 146.858 132.874 146.858 130.326C146.858 127.779 148.924 125.713 151.471 125.713H149.934ZM184.534 116.486C187.081 116.486 189.147 118.552 189.147 121.1C189.147 123.648 187.081 125.713 184.534 125.713C181.986 125.713 179.92 123.648 179.92 121.1C179.92 118.552 181.986 116.486 184.534 116.486ZM177.614 51.8998C180.161 51.8998 182.227 53.9655 182.227 56.5132C182.227 59.0609 180.161 61.1265 177.614 61.1265H172.231C169.684 61.1265 167.618 59.0609 167.618 56.5132C167.618 53.9655 169.684 51.8998 172.231 51.8998H177.614ZM253.734 24.2198C256.281 24.2198 258.347 26.2855 258.347 28.8332C258.347 31.3809 256.281 33.4465 253.734 33.4465H251.043V33.4503C248.584 33.5515 246.621 35.5763 246.621 38.0598C246.621 40.5433 248.584 42.5686 251.043 42.6693V42.6732H257.194C259.741 42.6732 261.807 44.7388 261.807 47.2865C261.807 49.8342 259.741 51.8998 257.194 51.8998H190.3C187.753 51.8998 185.687 49.8342 185.687 47.2865C185.687 44.7388 187.753 42.6732 190.3 42.6732H188.378C190.926 42.6732 192.991 40.6075 192.991 38.0598C192.991 35.5121 190.926 33.4465 188.378 33.4465H172.616C170.068 33.4465 168.003 31.3809 168.003 28.8332C168.003 26.2855 170.068 24.2198 172.616 24.2198H253.734ZM138.016 33.4465C140.564 33.4465 142.629 35.5121 142.629 38.0598C142.629 40.6075 140.564 42.6732 138.016 42.6732H128.789C126.242 42.6732 124.176 40.6075 124.176 38.0598C124.176 35.5121 126.242 33.4465 128.789 33.4465H138.016ZM152.625 33.4465C155.173 33.4465 157.238 35.5121 157.238 38.0598C157.238 40.6075 155.173 42.6732 152.625 42.6732H151.471C148.924 42.6732 146.858 40.6075 146.858 38.0598C146.858 35.5121 148.924 33.4465 151.471 33.4465H152.625ZM157.623 14.9932C160.17 14.9932 162.236 17.0588 162.236 19.6065C162.236 22.1542 160.17 24.2198 157.623 24.2198H148.396C145.848 24.2198 143.783 22.1542 143.783 19.6065C143.783 17.0588 145.848 14.9932 148.396 14.9932H157.623Z" fill="#4FCDF9"/>
</g>
<mask id="mask2_178_2344" style="mask-type:alpha" maskUnits="userSpaceOnUse" x="0" y="0" width="173" height="173">
<path d="M86.5 173C134.273 173 173 134.273 173 86.5C173 38.7274 134.273 0 86.5 0C38.7274 0 0 38.7274 0 86.5C0 134.273 38.7274 173 86.5 173Z" fill="white"/>
</mask>
<g mask="url(#mask2_178_2344)">
<path d="M158.775 42.6735C161.323 42.6735 163.389 44.7391 163.389 47.2868C163.389 49.8345 161.323 51.9001 158.775 51.9001H134.94C132.392 51.9001 130.326 49.8345 130.326 47.2868C130.326 44.7391 132.392 42.6735 134.94 42.6735H158.775ZM118.024 19.6068C118.024 17.0591 115.958 14.9935 113.411 14.9935H67.2774C64.7297 14.9935 62.6641 12.9279 62.6641 10.3801C62.6641 7.83243 64.7297 5.76681 67.2774 5.76681H86.1152C88.6629 5.76681 90.7285 3.70119 90.7285 1.15348C90.7285 -1.39424 88.6629 -3.45986 86.1152 -3.45986H79.9641C77.4163 -3.45986 75.3507 -5.52548 75.3507 -8.07319C75.3507 -10.6209 77.4163 -12.6865 79.9641 -12.6865H103.8C106.347 -12.6865 108.413 -10.6209 108.413 -8.07319C108.413 -5.52548 106.347 -3.45986 103.8 -3.45986H104.569V-3.45601C102.11 -3.35529 100.147 -1.33003 100.147 1.15348C100.147 3.63699 102.11 5.66224 104.569 5.76297V5.76681H166.08C168.627 5.76681 170.693 7.83243 170.693 10.3801C170.693 12.9279 168.627 14.9935 166.08 14.9935H139.937L139.937 14.9973C137.478 15.0984 135.516 17.1233 135.516 19.6068C135.516 22.0903 137.478 24.1152 139.937 24.2163V24.2201H141.091C143.638 24.2201 145.704 26.2858 145.704 28.8335C145.704 31.3812 143.638 33.4468 141.091 33.4468H111.873C109.325 33.4468 107.26 31.3812 107.26 28.8335C107.26 26.2858 109.325 24.2201 111.873 24.2201H113.411C115.958 24.2201 118.024 22.1545 118.024 19.6068ZM167.233 24.2201C169.781 24.2201 171.846 26.2858 171.846 28.8335C171.846 31.3812 169.781 33.4468 167.233 33.4468H159.544C156.996 33.4468 154.931 31.3812 154.931 28.8335C154.931 26.2858 156.996 24.2201 159.544 24.2201H167.233ZM93.4196 24.2201C95.9673 24.2201 98.033 26.2858 98.033 28.8335C98.033 31.3812 95.9673 33.4468 93.4196 33.4468H85.7307C83.183 33.4468 81.1174 31.3812 81.1174 28.8335C81.1174 26.2858 83.183 24.2201 85.7307 24.2201H93.4196ZM182.226 -12.6865C184.774 -12.6865 186.84 -10.6209 186.84 -8.07319C186.84 -5.52548 184.774 -3.45986 182.226 -3.45986H122.253C119.705 -3.45986 117.64 -5.52548 117.64 -8.07319C117.64 -10.6209 119.705 -12.6865 122.253 -12.6865H182.226Z" fill="white"/>
</g>
<mask id="mask3_178_2344" style="mask-type:alpha" maskUnits="userSpaceOnUse" x="0" y="0" width="173" height="173">
<path d="M86.5 173C134.273 173 173 134.273 173 86.5C173 38.7274 134.273 0 86.5 0C38.7274 0 0 38.7274 0 86.5C0 134.273 38.7274 173 86.5 173Z" fill="white"/>
</mask>
<g mask="url(#mask3_178_2344)">
<path d="M37.2908 139.553C37.2908 137.005 35.2251 134.94 32.6774 134.94H6.53521C3.9875 134.94 1.92188 132.874 1.92188 130.326C1.92188 127.779 3.9875 125.713 6.53521 125.713H45.3641C47.9118 125.713 49.9774 123.647 49.9774 121.1C49.9774 118.552 47.9118 116.486 45.3641 116.486H36.5219C33.9742 116.486 31.9085 114.421 31.9085 111.873C31.9085 109.325 33.9742 107.26 36.5219 107.26H81.8863C84.434 107.26 86.4997 109.325 86.4997 111.873C86.4997 114.421 84.434 116.486 81.8863 116.486H63.8174V116.49C61.3589 116.591 59.3963 118.616 59.3963 121.1C59.3963 123.583 61.3589 125.609 63.8174 125.709V125.713H69.1997C71.7474 125.713 73.813 127.779 73.813 130.326C73.813 132.874 71.7474 134.94 69.1997 134.94H59.2041L59.2037 134.944C56.7452 135.045 54.783 137.07 54.783 139.553C54.783 142.037 56.7452 144.061 59.2037 144.163L59.2041 144.166H60.3574C62.9051 144.166 64.9708 146.232 64.9708 148.78C64.9708 151.327 62.9051 153.393 60.3574 153.393H31.1397C28.5919 153.393 26.5263 151.327 26.5263 148.78C26.5263 146.232 28.5919 144.166 31.1397 144.166H32.6774C35.2251 144.166 37.2908 142.101 37.2908 139.553ZM95.3419 125.713C97.8896 125.713 99.9552 127.779 99.9552 130.326C99.9552 132.874 97.8896 134.94 95.3419 134.94H87.653C85.1053 134.94 83.0397 132.874 83.0397 130.326C83.0397 127.779 85.1053 125.713 87.653 125.713H95.3419Z" fill="white"/>
</g>
<mask id="mask4_178_2344" style="mask-type:alpha" maskUnits="userSpaceOnUse" x="0" y="0" width="173" height="173">
<path d="M86.5 173C134.273 173 173 134.273 173 86.5C173 38.7274 134.273 0 86.5 0C38.7274 0 0 38.7274 0 86.5C0 134.273 38.7274 173 86.5 173Z" fill="white"/>
</mask>
<g mask="url(#mask4_178_2344)">
<path d="M134.171 176.46C134.171 173.912 132.105 171.847 129.557 171.847H103.415C100.867 171.847 98.8018 169.781 98.8018 167.233C98.8018 164.685 100.867 162.62 103.415 162.62H142.244C144.792 162.62 146.857 160.554 146.857 158.007C146.857 155.459 144.792 153.393 142.244 153.393H133.402C130.854 153.393 128.788 151.328 128.788 148.78C128.788 146.232 130.854 144.167 133.402 144.167H178.766C181.314 144.167 183.38 146.232 183.38 148.78C183.38 151.328 181.314 153.393 178.766 153.393H160.697V153.397C158.239 153.498 156.276 155.523 156.276 158.007C156.276 160.49 158.239 162.515 160.697 162.616V162.62H166.08C168.627 162.62 170.693 164.685 170.693 167.233C170.693 169.781 168.627 171.847 166.08 171.847H156.084L156.084 171.85C153.625 171.951 151.663 173.976 151.663 176.46C151.663 178.943 153.625 180.968 156.084 181.069L156.084 181.073H157.237C159.785 181.073 161.851 183.139 161.851 185.687C161.851 188.234 159.785 190.3 157.237 190.3H128.02C125.472 190.3 123.406 188.234 123.406 185.687C123.406 183.139 125.472 181.073 128.02 181.073H129.557C132.105 181.073 134.171 179.008 134.171 176.46ZM192.222 162.62C194.769 162.62 196.835 164.685 196.835 167.233C196.835 169.781 194.769 171.847 192.222 171.847H184.533C181.985 171.847 179.92 169.781 179.92 167.233C179.92 164.685 181.985 162.62 184.533 162.62H192.222Z" fill="white"/>
</g>
<mask id="mask5_178_2344" style="mask-type:alpha" maskUnits="userSpaceOnUse" x="0" y="0" width="173" height="173">
<path d="M86.5 173C134.273 173 173 134.273 173 86.5C173 38.7274 134.273 0 86.5 0C38.7274 0 0 38.7274 0 86.5C0 134.273 38.7274 173 86.5 173Z" fill="white"/>
</mask>
<g mask="url(#mask5_178_2344)">
<path opacity="0.078" d="M86.6865 -9.61133H182.984V182.611H86.6865V-9.61133Z" fill="black"/>
</g>
</g>
<defs>
<clipPath id="clip0_178_2344">
<rect width="173" height="173" fill="white"/>
</clipPath>
</defs>
</svg>
