<svg width="111" height="111" viewBox="0 0 111 111" fill="none" xmlns="http://www.w3.org/2000/svg">
<g clip-path="url(#clip0_178_2272)">
<path d="M55.5 111C86.1518 111 111 86.1518 111 55.5C111 24.8482 86.1518 0 55.5 0C24.8482 0 0 24.8482 0 55.5C0 86.1518 24.8482 111 55.5 111Z" fill="#DEF4FC"/>
<mask id="mask0_178_2272" style="mask-type:alpha" maskUnits="userSpaceOnUse" x="0" y="0" width="111" height="111">
<path d="M55.5 111C86.1518 111 111 86.1518 111 55.5C111 24.8482 86.1518 0 55.5 0C24.8482 0 0 24.8482 0 55.5C0 86.1518 24.8482 111 55.5 111Z" fill="white"/>
</mask>
<g mask="url(#mask0_178_2272)">
<path d="M58.9453 96.8381C61.4818 96.8381 63.5384 98.8947 63.5384 101.431C63.5384 103.968 61.4818 106.024 58.9453 106.024H51.2901C48.7536 106.024 46.697 103.968 46.697 101.431C46.697 98.8947 48.7536 96.8381 51.2901 96.8381H58.9453ZM91.8625 78.4657C94.399 78.4657 96.4556 80.5223 96.4556 83.0588C96.4556 85.5954 94.399 87.6519 91.8625 87.6519H68.1315C65.5949 87.6519 63.5384 85.5954 63.5384 83.0588C63.5384 80.5223 65.5949 78.4657 68.1315 78.4657H91.8625ZM49.7591 78.4657C52.2956 78.4657 54.3522 80.5223 54.3522 83.0588C54.3522 85.5954 52.2956 87.6519 49.7591 87.6519C47.2225 87.6519 45.166 85.5954 45.166 83.0588C45.166 80.5223 47.2225 78.4657 49.7591 78.4657ZM32.5349 55.5002C32.5349 52.9637 30.4784 50.9071 27.9418 50.9071H0.765955C-1.77059 50.9071 -3.82715 48.8505 -3.82715 46.314C-3.82715 43.7775 -1.77059 41.7209 0.765955 41.7209H19.5211C22.0577 41.7209 24.1142 39.6643 24.1142 37.1278C24.1142 34.5913 22.0577 32.5347 19.5211 32.5347H17.6073C15.0708 32.5347 13.0142 30.4781 13.0142 27.9416C13.0142 25.405 15.0708 23.3485 17.6073 23.3485H45.5487C48.0853 23.3485 50.1418 25.405 50.1418 27.9416C50.1418 30.4781 48.0853 32.5347 45.5487 32.5347H37.8935V32.5385C35.4458 32.6388 33.4918 34.6552 33.4918 37.1278C33.4918 39.6004 35.4458 41.6168 37.8935 41.7171V41.7209H55.1177C57.6542 41.7209 59.7108 43.7775 59.7108 46.314C59.7108 48.8505 57.6542 50.9071 55.1177 50.9071H54.3522L54.3518 50.9109C51.904 51.0116 49.9504 53.0276 49.9504 55.5002C49.9504 57.9728 51.904 59.9888 54.3518 60.0895L54.3522 60.0933H74.2556C76.7922 60.0933 78.8487 62.1499 78.8487 64.6864C78.8487 67.223 76.7922 69.2795 74.2556 69.2795H26.7935C24.257 69.2795 22.2004 67.223 22.2004 64.6864C22.2004 62.1499 24.257 60.0933 26.7935 60.0933H27.9418C30.4784 60.0933 32.5349 58.0368 32.5349 55.5002ZM93.7763 60.0933C96.3128 60.0933 98.3694 62.1499 98.3694 64.6864C98.3694 67.223 96.3128 69.2795 93.7763 69.2795C91.2398 69.2795 89.1832 67.223 89.1832 64.6864C89.1832 62.1499 91.2398 60.0933 93.7763 60.0933ZM8.42113 60.0933C10.9577 60.0933 13.0142 62.1499 13.0142 64.6864C13.0142 67.223 10.9577 69.2795 8.42113 69.2795H0.765955C-1.77059 69.2795 -3.82715 67.223 -3.82715 64.6864C-3.82715 62.1499 -1.77059 60.0933 0.765955 60.0933H8.42113ZM84.5901 23.3485C87.1266 23.3485 89.1832 25.405 89.1832 27.9416C89.1832 30.4781 87.1266 32.5347 84.5901 32.5347H76.9349C74.3984 32.5347 72.3418 30.4781 72.3418 27.9416C72.3418 25.405 74.3984 23.3485 76.9349 23.3485H84.5901ZM93.7763 4.97607C96.3128 4.97607 98.3694 7.03264 98.3694 9.56918C98.3694 12.1057 96.3128 14.1623 93.7763 14.1623H71.5763C69.0398 14.1623 66.9832 12.1057 66.9832 9.56918C66.9832 7.03264 69.0398 4.97607 71.5763 4.97607H93.7763Z" fill="#B1D5E2"/>
</g>
<mask id="mask1_178_2272" style="mask-type:alpha" maskUnits="userSpaceOnUse" x="0" y="0" width="111" height="111">
<path d="M55.5 111C86.1518 111 111 86.1518 111 55.5C111 24.8482 86.1518 0 55.5 0C24.8482 0 0 24.8482 0 55.5C0 86.1518 24.8482 111 55.5 111Z" fill="white"/>
</mask>
<g mask="url(#mask1_178_2272)">
<path opacity="0.078" d="M55.8828 0H111.383V111H55.8828V0Z" fill="black"/>
</g>
</g>
<defs>
<clipPath id="clip0_178_2272">
<rect width="111" height="111" fill="white"/>
</clipPath>
</defs>
</svg>
