<svg width="253" height="253" viewBox="0 0 253 253" fill="none" xmlns="http://www.w3.org/2000/svg">
<path d="M253 126.5C253 196.364 196.364 253 126.5 253C56.636 253 0 196.364 0 126.5C0 56.636 56.636 0 126.5 0C196.364 0 253 56.636 253 126.5Z" fill="#F7CC7F"/>
<mask id="mask0_182_2609" style="mask-type:alpha" maskUnits="userSpaceOnUse" x="0" y="0" width="253" height="253">
<path d="M253 126.5C253 196.364 196.364 253 126.5 253C56.636 253 0 196.364 0 126.5C0 56.636 56.636 0 126.5 0C196.364 0 253 56.636 253 126.5Z" fill="white"/>
</mask>
<g mask="url(#mask0_182_2609)">
<path fill-rule="evenodd" clip-rule="evenodd" d="M195.443 22.1374C195.443 17.9455 192.044 14.5474 187.853 14.5474H25.3C21.1082 14.5474 17.71 17.9455 17.71 22.1374C17.71 26.3292 21.1082 29.7274 25.3 29.7274H101.2C105.392 29.7274 108.79 33.1255 108.79 37.3174C108.79 41.5092 105.392 44.9074 101.2 44.9074H98.67C94.4782 44.9074 91.08 48.3055 91.08 52.4974C91.08 56.6892 94.4782 60.0874 98.67 60.0874H146.74C150.932 60.0874 154.33 56.6892 154.33 52.4974C154.33 48.3055 150.932 44.9074 146.74 44.9074H144.843L144.842 44.9009C140.797 44.7347 137.569 41.403 137.569 37.3174C137.569 33.2317 140.797 29.9001 144.842 29.7339L144.843 29.7274H187.853C192.044 29.7274 195.443 26.3292 195.443 22.1374ZM183.425 82.8574C183.425 78.6655 180.027 75.2674 175.835 75.2674H136.62C132.428 75.2674 129.03 78.6655 129.03 82.8574C129.03 87.0492 132.428 90.4474 136.62 90.4474H175.835C180.027 90.4474 183.425 87.0492 183.425 82.8574ZM-6.00871 105.627C-1.81687 105.627 1.58129 109.026 1.58129 113.217C1.58129 117.409 -1.81687 120.807 -6.00871 120.807H-33.8387C-38.0306 120.807 -41.4287 117.409 -41.4287 113.217C-41.4287 109.026 -38.0306 105.627 -33.8387 105.627H-6.00871ZM191.015 113.217C191.015 109.026 187.617 105.627 183.425 105.627H37.3175C33.1257 105.627 29.7275 109.026 29.7275 113.217C29.7275 117.409 33.1257 120.807 37.3175 120.807H81.5925C85.7844 120.807 89.1825 124.206 89.1825 128.397C89.1825 132.589 85.7844 135.987 81.5925 135.987H75.9C71.7082 135.987 68.31 139.386 68.31 143.577C68.31 147.769 71.7082 151.167 75.9 151.167H165.715C169.907 151.167 173.305 154.566 173.305 158.757C173.305 162.949 169.907 166.347 165.715 166.347H161.92C157.728 166.347 154.33 169.746 154.33 173.937C154.33 178.129 157.728 181.527 161.92 181.527H209.99C214.182 181.527 217.58 178.129 217.58 173.937C217.58 169.746 214.182 166.347 209.99 166.347H209.358L209.357 166.341C205.312 166.175 202.084 162.843 202.084 158.757C202.084 154.672 205.312 151.34 209.357 151.174L209.358 151.167H222.008C226.199 151.167 229.598 147.769 229.598 143.577C229.598 139.386 226.199 135.987 222.008 135.987H171.408V135.981C167.362 135.815 164.134 132.483 164.134 128.397C164.134 124.312 167.362 120.98 171.408 120.814V120.807H183.425C187.617 120.807 191.015 117.409 191.015 113.217ZM203.665 204.297C203.665 200.106 200.267 196.707 196.075 196.707H49.9675C45.7757 196.707 42.3775 200.106 42.3775 204.297C42.3775 208.489 45.7757 211.887 49.9675 211.887H75.9C80.0919 211.887 83.49 215.286 83.49 219.477C83.49 223.669 80.0919 227.067 75.9 227.067H73.37C69.1782 227.067 65.78 230.466 65.78 234.657C65.78 238.849 69.1782 242.247 73.37 242.247H121.44C125.632 242.247 129.03 238.849 129.03 234.657C129.03 230.466 125.632 227.067 121.44 227.067H119.543L119.542 227.061C115.497 226.895 112.269 223.563 112.269 219.477C112.269 215.392 115.497 212.06 119.542 211.894L119.543 211.887H196.075C200.267 211.887 203.665 208.489 203.665 204.297ZM74.0025 166.347C78.1944 166.347 81.5925 169.746 81.5925 173.937C81.5925 178.129 78.1944 181.527 74.0025 181.527H25.9325C21.7407 181.527 18.3425 178.129 18.3425 173.937C18.3425 169.746 21.7407 166.347 25.9325 166.347H74.0025ZM287.788 143.577C287.788 139.386 284.389 135.987 280.198 135.987H254.265C250.073 135.987 246.675 139.386 246.675 143.577C246.675 147.769 250.073 151.167 254.265 151.167H280.198C284.389 151.167 287.788 147.769 287.788 143.577ZM87.9175 75.2674C92.1094 75.2674 95.5075 78.6655 95.5075 82.8574C95.5075 87.0492 92.1094 90.4474 87.9175 90.4474H75.2675C71.0757 90.4474 67.6775 87.0492 67.6775 82.8574C67.6775 78.6655 71.0757 75.2674 75.2675 75.2674H87.9175ZM189.75 44.9074C193.942 44.9074 197.34 48.3055 197.34 52.4974C197.34 56.6892 193.942 60.0874 189.75 60.0874H177.1C172.908 60.0874 169.51 56.6892 169.51 52.4974C169.51 48.3055 172.908 44.9074 177.1 44.9074H189.75ZM75.9 52.4974C75.9 48.3055 72.5019 44.9074 68.31 44.9074H55.66C51.4682 44.9074 48.07 48.3055 48.07 52.4974C48.07 56.6892 51.4682 60.0874 55.66 60.0874H68.31C72.5019 60.0874 75.9 56.6892 75.9 52.4974Z" fill="#FFE6AE"/>
</g>
<mask id="mask1_182_2609" style="mask-type:alpha" maskUnits="userSpaceOnUse" x="0" y="0" width="253" height="253">
<path d="M253 126.5C253 196.364 196.364 253 126.5 253C56.636 253 0 196.364 0 126.5C0 56.636 56.636 0 126.5 0C196.364 0 253 56.636 253 126.5Z" fill="white"/>
</mask>
<g mask="url(#mask1_182_2609)">
<path fill-rule="evenodd" clip-rule="evenodd" d="M55.0272 120.808C59.219 120.808 62.6172 124.206 62.6172 128.398C62.6172 132.589 59.219 135.988 55.0272 135.988H52.4972C48.3053 135.988 44.9072 139.386 44.9072 143.578C44.9072 147.769 48.3053 151.168 52.4972 151.168H100.567C104.759 151.168 108.157 147.769 108.157 143.578C108.157 139.386 104.759 135.988 100.567 135.988H98.6697L98.6691 135.981C94.6243 135.815 91.3961 132.483 91.3961 128.398C91.3961 124.312 94.6243 120.98 98.6691 120.814L98.6697 120.808H141.68C145.872 120.808 149.27 117.409 149.27 113.218C149.27 109.026 145.872 105.628 141.68 105.628H40.4797L40.4799 105.621C36.4346 105.455 33.2059 102.124 33.2059 98.0376C33.2059 93.9516 36.4346 90.6197 40.4799 90.454L40.4797 90.4476H89.8147C94.0065 90.4476 97.4047 87.0494 97.4047 82.8576C97.4047 78.6657 94.0065 75.2676 89.8147 75.2676H-8.85531C-13.0472 75.2676 -16.4453 78.6657 -16.4453 82.8576C-16.4453 87.0494 -13.0472 90.4476 -8.85531 90.4476H10.1197C14.3115 90.4476 17.7097 93.8457 17.7097 98.0376C17.7097 102.229 14.3115 105.628 10.1197 105.628H1.26469C-2.92715 105.628 -6.32531 109.026 -6.32531 113.218C-6.32531 117.409 -2.92715 120.808 1.26469 120.808H55.0272ZM137.252 173.938C137.252 169.746 133.854 166.348 129.662 166.348H90.4472C86.2553 166.348 82.8572 169.746 82.8572 173.938C82.8572 178.129 86.2553 181.528 90.4472 181.528H129.662C133.854 181.528 137.252 178.129 137.252 173.938ZM143.577 135.988C147.769 135.988 151.167 139.386 151.167 143.578C151.167 147.769 147.769 151.168 143.577 151.168H130.927C126.735 151.168 123.337 147.769 123.337 143.578C123.337 139.386 126.735 135.988 130.927 135.988H143.577ZM262.487 143.578C262.487 139.386 259.089 135.988 254.897 135.988H191.015C186.823 135.988 183.425 139.386 183.425 143.578C183.425 147.769 186.823 151.168 191.015 151.168H254.897C259.089 151.168 262.487 147.769 262.487 143.578ZM22.1372 135.988C26.329 135.988 29.7272 139.386 29.7272 143.578C29.7272 147.769 26.329 151.168 22.1372 151.168H9.48719C5.29535 151.168 1.89719 147.769 1.89719 143.578C1.89719 139.386 5.29535 135.988 9.48719 135.988H22.1372ZM227.7 113.218C227.7 109.026 224.302 105.628 220.11 105.628H207.46C203.268 105.628 199.87 109.026 199.87 113.218C199.87 117.409 203.268 120.808 207.46 120.808H220.11C224.302 120.808 227.7 117.409 227.7 113.218Z" fill="#E29F58"/>
</g>
<mask id="mask2_182_2609" style="mask-type:alpha" maskUnits="userSpaceOnUse" x="0" y="0" width="253" height="253">
<path d="M253 126.5C253 196.364 196.364 253 126.5 253C56.636 253 0 196.364 0 126.5C0 56.636 56.636 0 126.5 0C196.364 0 253 56.636 253 126.5Z" fill="white"/>
</mask>
<g mask="url(#mask2_182_2609)">
<path opacity="0.0775757" d="M127.133 -15.8125H269.445V268.812H127.133V-15.8125Z" fill="black"/>
</g>
<path fill-rule="evenodd" clip-rule="evenodd" d="M127.133 248.573C194.552 248.573 249.205 193.919 249.205 126.5C249.205 59.0815 194.552 4.42773 127.133 4.42773V248.573Z" fill="#C08240"/>
<mask id="mask3_182_2609" style="mask-type:alpha" maskUnits="userSpaceOnUse" x="127" y="4" width="123" height="245">
<path fill-rule="evenodd" clip-rule="evenodd" d="M127.133 248.573C194.552 248.573 249.205 193.919 249.205 126.5C249.205 59.0815 194.552 4.42773 127.133 4.42773V248.573Z" fill="white"/>
</mask>
<g mask="url(#mask3_182_2609)">
<path d="M244.778 127.133C244.778 191.757 192.39 244.145 127.765 244.145C63.1412 244.145 10.7529 191.757 10.7529 127.133C10.7529 62.5084 63.1412 10.1201 127.765 10.1201C192.39 10.1201 244.778 62.5084 244.778 127.133Z" fill="#A34D28"/>
<path d="M180.263 126.5C180.263 155.494 156.759 178.997 127.765 178.997C98.7715 178.997 75.2676 155.494 75.2676 126.5C75.2676 97.5064 98.7715 74.0024 127.765 74.0024C156.759 74.0024 180.263 97.5064 180.263 126.5Z" fill="#FAD14C"/>
</g>
</svg>
