<svg width="256" height="256" viewBox="0 0 256 256" fill="none" xmlns="http://www.w3.org/2000/svg">
<path fill-rule="evenodd" clip-rule="evenodd" d="M148.111 107.889C207.696 167.475 247.057 224.722 236.025 235.754C235.98 235.799 235.934 235.844 235.887 235.887L218.388 218.388L218.529 218.259C227.772 209.016 194.795 161.052 144.871 111.129C94.9481 61.2054 46.9844 28.2275 37.7413 37.4706C37.6962 37.5157 37.652 37.5618 37.6089 37.6089L20.1165 20.1161L20.2457 19.975C31.2777 8.94297 88.5248 48.3036 148.111 107.889ZM143.791 111.937C191.294 159.441 222.673 205.081 213.877 213.876L207.285 207.285L207.427 207.156C215.552 199.031 186.638 156.945 142.847 113.153C99.0554 69.3617 56.9688 40.4482 48.8439 48.5731C48.7987 48.6183 48.7547 48.6645 48.7118 48.7118L41.8517 41.8509C50.6475 33.0551 96.2871 64.434 143.791 111.937Z" fill="#B87D43"/>
<path d="M207.923 121.851C207.923 166.001 172.133 201.792 127.983 201.792C83.8326 201.792 48.042 166.001 48.042 121.851C48.042 77.7013 83.8326 41.9106 127.983 41.9106C172.133 41.9106 207.923 77.7013 207.923 121.851Z" fill="#FCCB6B"/>
<mask id="mask0_182_2451" style="mask-type:alpha" maskUnits="userSpaceOnUse" x="48" y="41" width="160" height="161">
<path d="M207.923 121.851C207.923 166.001 172.133 201.792 127.983 201.792C83.8326 201.792 48.042 166.001 48.042 121.851C48.042 77.7013 83.8326 41.9106 127.983 41.9106C172.133 41.9106 207.923 77.7013 207.923 121.851Z" fill="white"/>
</mask>
<g mask="url(#mask0_182_2451)">
<path fill-rule="evenodd" clip-rule="evenodd" d="M207.296 198.899C205.495 197.098 202.575 197.098 200.774 198.899C198.973 200.7 198.973 203.62 200.774 205.421L243.169 247.816C244.97 249.617 247.89 249.617 249.691 247.816C251.492 246.015 251.492 243.095 249.691 241.294L207.296 198.899ZM147.508 139.111C145.707 137.31 142.787 137.31 140.986 139.111C139.185 140.912 139.185 143.832 140.986 145.633L162.184 166.831L162.181 166.833C163.848 168.643 163.803 171.462 162.048 173.217C160.292 174.973 157.473 175.017 155.664 173.35L155.661 173.353L112.179 129.871C110.378 128.07 107.458 128.07 105.657 129.871C103.856 131.672 103.856 134.592 105.657 136.393L175.5 206.236C177.301 208.037 180.221 208.037 182.022 206.236C183.823 204.435 183.823 201.515 182.022 199.714L168.706 186.398C166.905 184.596 166.905 181.676 168.706 179.875C170.507 178.074 173.427 178.074 175.228 179.875L183.381 188.028C185.182 189.829 188.102 189.829 189.903 188.028C191.704 186.227 191.704 183.307 189.903 181.506L147.508 139.111ZM177.13 220.911C175.329 219.11 172.409 219.11 170.608 220.911C168.807 222.712 168.807 225.633 170.608 227.434L190.447 247.272C192.248 249.073 195.168 249.073 196.969 247.272C198.77 245.471 198.77 242.551 196.969 240.75L177.13 220.911ZM99.1347 142.916C97.3337 141.115 94.4135 141.115 92.6124 142.916C90.8114 144.717 90.8114 147.637 92.6124 149.438L112.451 169.277C114.252 171.078 117.172 171.078 118.973 169.277C120.774 167.475 120.774 164.555 118.973 162.754L99.1347 142.916ZM24.1284 74.4315C25.9295 72.6305 28.8496 72.6305 30.6507 74.4315L75.7632 119.544C77.5643 121.345 77.5643 124.265 75.7632 126.066C73.9621 127.867 71.042 127.867 69.2409 126.066L24.1284 80.9538C22.3273 79.1528 22.3273 76.2326 24.1284 74.4315ZM98.5912 103.238C96.7901 101.437 93.87 101.437 92.0689 103.238C90.2678 105.039 90.2678 107.96 92.0689 109.761L94.5148 112.206C96.3159 114.008 96.3159 116.928 94.5148 118.729C92.7137 120.53 89.7936 120.53 87.9925 118.729L18.1496 48.8859C16.3485 47.0848 16.3485 44.1647 18.1496 42.3636C19.9507 40.5625 22.8708 40.5625 24.6719 42.3636L79.0243 96.716L79.027 96.7132C80.8363 98.3801 83.6551 98.3358 85.4107 96.5802C87.1663 94.8246 87.2107 92.0057 85.5438 90.1964L85.5466 90.1938L79.0243 83.6715C77.2233 81.8704 77.2232 78.9502 79.0243 77.1492C80.8254 75.3481 83.7455 75.3481 85.5466 77.1492L127.942 119.544C129.743 121.345 129.743 124.265 127.942 126.066C126.14 127.867 123.22 127.867 121.419 126.066L98.5912 103.238ZM20.8672 18.992C22.6683 17.191 25.5884 17.191 27.3895 18.992L69.7844 61.387C71.5855 63.188 71.5855 66.1082 69.7844 67.9092C67.9833 69.7103 65.0632 69.7103 63.2621 67.9092L20.8672 25.5143C19.0661 23.7133 19.0661 20.7931 20.8672 18.992Z" fill="#ECB55A"/>
</g>
<mask id="mask1_182_2451" style="mask-type:alpha" maskUnits="userSpaceOnUse" x="48" y="41" width="160" height="161">
<path d="M207.923 121.851C207.923 166.001 172.133 201.792 127.983 201.792C83.8326 201.792 48.042 166.001 48.042 121.851C48.042 77.7013 83.8326 41.9106 127.983 41.9106C172.133 41.9106 207.923 77.7013 207.923 121.851Z" fill="white"/>
</mask>
<g mask="url(#mask1_182_2451)">
<path opacity="0.0775757" d="M127.982 41.9106H208.342V201.792H127.982V41.9106Z" fill="black"/>
</g>
<path fill-rule="evenodd" clip-rule="evenodd" d="M107.889 148.111C167.475 207.696 224.722 247.057 235.754 236.025C235.799 235.98 235.844 235.934 235.887 235.887L218.388 218.388L218.259 218.529C209.016 227.772 161.052 194.795 111.129 144.871C61.2054 94.9481 28.2275 46.9844 37.4706 37.7413C37.5157 37.6962 37.5618 37.652 37.6089 37.6089L20.1161 20.1165L19.975 20.2457C8.94297 31.2777 48.3036 88.5248 107.889 148.111ZM111.937 143.791C159.441 191.294 205.081 222.673 213.876 213.877L207.285 207.285L207.156 207.427C199.031 215.552 156.945 186.638 113.153 142.847C69.3617 99.0554 40.4482 56.9688 48.5731 48.8439C48.6183 48.7987 48.6645 48.7547 48.7118 48.7118L41.8509 41.8517C33.0551 50.6475 64.434 96.2871 111.937 143.791Z" fill="#B87D43"/>
</svg>
