<svg width="173" height="173" viewBox="0 0 173 173" fill="none" xmlns="http://www.w3.org/2000/svg">
<g clip-path="url(#clip0_178_2296)">
<path d="M86.5 173C134.273 173 173 134.273 173 86.5C173 38.7274 134.273 0 86.5 0C38.7274 0 0 38.7274 0 86.5C0 134.273 38.7274 173 86.5 173Z" fill="#497EFA"/>
<mask id="mask0_178_2296" style="mask-type:alpha" maskUnits="userSpaceOnUse" x="0" y="0" width="173" height="173">
<path d="M86.5 173C134.273 173 173 134.273 173 86.5C173 38.7274 134.273 0 86.5 0C38.7274 0 0 38.7274 0 86.5C0 134.273 38.7274 173 86.5 173Z" fill="white"/>
</mask>
<g mask="url(#mask0_178_2296)">
<path d="M121.937 100.725C124.485 100.725 126.55 102.79 126.55 105.338C126.55 107.886 124.485 109.951 121.937 109.951H93.8725C91.3248 109.951 89.2591 107.886 89.2591 105.338C89.2591 102.79 91.3248 100.725 93.8725 100.725H121.937ZM11.6014 100.725C14.1495 100.725 16.2147 102.79 16.2147 105.338C16.2147 107.886 14.1495 109.951 11.6014 109.951H-16.4631C-19.0108 109.951 -21.0764 107.886 -21.0764 105.338C-21.0764 102.79 -19.0108 100.725 -16.4631 100.725H11.6014ZM218.817 100.725C221.365 100.725 223.43 102.79 223.43 105.338C223.43 107.886 221.365 109.951 218.817 109.951H154.999C152.451 109.951 150.386 107.886 150.386 105.338C150.386 102.79 152.451 100.725 154.999 100.725H218.817ZM90.4125 63.8179C92.9606 63.8179 95.0258 65.8835 95.0258 68.4312C95.0258 70.9789 92.9606 73.0445 90.4125 73.0445H60.4258V73.0484C57.9673 73.1491 56.0047 75.1744 56.0047 77.6579C56.0047 80.1414 57.9673 82.1666 60.4258 82.2674V82.2712H121.937C124.485 82.2712 126.55 84.3368 126.55 86.8845C126.55 89.4323 124.485 91.4979 121.937 91.4979H23.1347C20.587 91.4979 18.5214 89.4323 18.5214 86.8845C18.5214 84.3368 20.587 82.2712 23.1347 82.2712H41.9725C44.5206 82.2712 46.5858 80.2056 46.5858 77.6579C46.5858 75.1102 44.5206 73.0445 41.9725 73.0445H30.4392C27.8914 73.0445 25.8258 70.9789 25.8258 68.4312C25.8258 65.8835 27.8914 63.8179 30.4392 63.8179H90.4125ZM154.999 77.6579C154.999 75.1102 152.934 73.0445 150.386 73.0445H118.092C115.545 73.0445 113.479 70.9789 113.479 68.4312C113.479 65.8835 115.545 63.8179 118.092 63.8179H178.066C180.614 63.8179 182.679 65.8835 182.679 68.4312C182.679 70.9789 180.614 73.0445 178.066 73.0445H168.839V73.0484C166.381 73.1491 164.418 75.1744 164.418 77.6579C164.418 80.1414 166.381 82.1666 168.839 82.2674V82.2712H245.728C248.276 82.2712 250.341 84.3368 250.341 86.8845C250.341 89.4323 248.276 91.4979 245.728 91.4979H146.926C144.378 91.4979 142.312 89.4323 142.312 86.8845C142.312 84.3368 144.378 82.2712 146.926 82.2712H150.386C152.934 82.2712 154.999 80.2056 154.999 77.6579ZM5.83471 63.8179C8.38281 63.8179 10.448 65.8835 10.448 68.4312C10.448 70.9789 8.38281 73.0445 5.83471 73.0445H-54.1386C-56.6863 73.0445 -58.752 70.9789 -58.752 68.4312C-58.752 65.8835 -56.6863 63.8179 -54.1386 63.8179H5.83471ZM260.337 63.8179C262.885 63.8179 264.95 65.8835 264.95 68.4312C264.95 70.9789 262.885 73.0445 260.337 73.0445H200.364C197.816 73.0445 195.75 70.9789 195.75 68.4312C195.75 65.8835 197.816 63.8179 200.364 63.8179H260.337Z" fill="#356CEE"/>
</g>
<mask id="mask1_178_2296" style="mask-type:alpha" maskUnits="userSpaceOnUse" x="0" y="0" width="173" height="173">
<path d="M86.5 173C134.273 173 173 134.273 173 86.5C173 38.7274 134.273 0 86.5 0C38.7274 0 0 38.7274 0 86.5C0 134.273 38.7274 173 86.5 173Z" fill="white"/>
</mask>
<g mask="url(#mask1_178_2296)">
<path opacity="0.4" d="M121.937 45.3647C124.485 45.3647 126.55 47.4303 126.55 49.978C126.55 52.5257 124.485 54.5913 121.937 54.5913H93.8725C91.3248 54.5913 89.2591 52.5257 89.2591 49.978C89.2591 47.4303 91.3248 45.3647 93.8725 45.3647H121.937ZM11.6014 45.3647C14.1495 45.3647 16.2147 47.4303 16.2147 49.978C16.2147 52.5257 14.1495 54.5913 11.6014 54.5913H-16.4631C-19.0108 54.5913 -21.0764 52.5257 -21.0764 49.978C-21.0764 47.4303 -19.0108 45.3647 -16.4631 45.3647H11.6014ZM218.817 45.3647C221.365 45.3647 223.43 47.4303 223.43 49.978C223.43 52.5257 221.365 54.5913 218.817 54.5913H154.999C152.451 54.5913 150.386 52.5257 150.386 49.978C150.386 47.4303 152.451 45.3647 154.999 45.3647H218.817ZM90.4125 8.45801C92.9606 8.45801 95.0258 10.5236 95.0258 13.0713C95.0258 15.6191 92.9606 17.6847 90.4125 17.6847H60.4258V17.6885C57.9673 17.7892 56.0047 19.8145 56.0047 22.298C56.0047 24.7815 57.9673 26.8068 60.4258 26.9075V26.9113H121.937C124.485 26.9113 126.55 28.977 126.55 31.5247C126.55 34.0724 124.485 36.138 121.937 36.138H23.1347C20.587 36.138 18.5214 34.0724 18.5214 31.5247C18.5214 28.977 20.587 26.9113 23.1347 26.9113H41.9725C44.5206 26.9113 46.5858 24.8457 46.5858 22.298C46.5858 19.7503 44.5206 17.6847 41.9725 17.6847H30.4392C27.8914 17.6847 25.8258 15.6191 25.8258 13.0713C25.8258 10.5236 27.8914 8.45801 30.4392 8.45801H90.4125ZM154.999 22.298C154.999 19.7503 152.934 17.6847 150.386 17.6847H118.092C115.545 17.6847 113.479 15.6191 113.479 13.0713C113.479 10.5236 115.545 8.45801 118.092 8.45801H178.066C180.614 8.45801 182.679 10.5236 182.679 13.0713C182.679 15.6191 180.614 17.6847 178.066 17.6847H168.839V17.6885C166.381 17.7892 164.418 19.8145 164.418 22.298C164.418 24.7815 166.381 26.8068 168.839 26.9075V26.9113H245.728C248.276 26.9113 250.341 28.977 250.341 31.5247C250.341 34.0724 248.276 36.138 245.728 36.138H146.926C144.378 36.138 142.312 34.0724 142.312 31.5247C142.312 28.977 144.378 26.9113 146.926 26.9113H150.386C152.934 26.9113 154.999 24.8457 154.999 22.298ZM5.83471 8.45801C8.38281 8.45801 10.448 10.5236 10.448 13.0713C10.448 15.6191 8.38281 17.6847 5.83471 17.6847H-54.1386C-56.6863 17.6847 -58.752 15.6191 -58.752 13.0713C-58.752 10.5236 -56.6863 8.45801 -54.1386 8.45801H5.83471ZM260.337 8.45801C262.885 8.45801 264.95 10.5236 264.95 13.0713C264.95 15.6191 262.885 17.6847 260.337 17.6847H200.364C197.816 17.6847 195.75 15.6191 195.75 13.0713C195.75 10.5236 197.816 8.45801 200.364 8.45801H260.337Z" fill="#356CEE"/>
</g>
<mask id="mask2_178_2296" style="mask-type:alpha" maskUnits="userSpaceOnUse" x="0" y="0" width="173" height="173">
<path d="M86.5 173C134.273 173 173 134.273 173 86.5C173 38.7274 134.273 0 86.5 0C38.7274 0 0 38.7274 0 86.5C0 134.273 38.7274 173 86.5 173Z" fill="white"/>
</mask>
<g mask="url(#mask2_178_2296)">
<path opacity="0.4" d="M121.937 165.311C124.485 165.311 126.55 167.377 126.55 169.924C126.55 172.472 124.485 174.538 121.937 174.538H93.8725C91.3248 174.538 89.2591 172.472 89.2591 169.924C89.2591 167.377 91.3248 165.311 93.8725 165.311H121.937ZM11.6014 165.311C14.1495 165.311 16.2147 167.377 16.2147 169.924C16.2147 172.472 14.1495 174.538 11.6014 174.538H-16.4631C-19.0108 174.538 -21.0764 172.472 -21.0764 169.924C-21.0764 167.377 -19.0108 165.311 -16.4631 165.311H11.6014ZM218.817 165.311C221.365 165.311 223.43 167.377 223.43 169.924C223.43 172.472 221.365 174.538 218.817 174.538H154.999C152.451 174.538 150.386 172.472 150.386 169.924C150.386 167.377 152.451 165.311 154.999 165.311H218.817ZM90.4125 128.404C92.9606 128.404 95.0258 130.47 95.0258 133.018C95.0258 135.565 92.9606 137.631 90.4125 137.631H60.4258V137.635C57.9673 137.736 56.0047 139.761 56.0047 142.244C56.0047 144.728 57.9673 146.753 60.4258 146.854V146.858H121.937C124.485 146.858 126.55 148.923 126.55 151.471C126.55 154.019 124.485 156.084 121.937 156.084H23.1347C20.587 156.084 18.5214 154.019 18.5214 151.471C18.5214 148.923 20.587 146.858 23.1347 146.858H41.9725C44.5206 146.858 46.5858 144.792 46.5858 142.244C46.5858 139.697 44.5206 137.631 41.9725 137.631H30.4392C27.8914 137.631 25.8258 135.565 25.8258 133.018C25.8258 130.47 27.8914 128.404 30.4392 128.404H90.4125ZM154.999 142.244C154.999 139.697 152.934 137.631 150.386 137.631H118.092C115.545 137.631 113.479 135.565 113.479 133.018C113.479 130.47 115.545 128.404 118.092 128.404H178.066C180.614 128.404 182.679 130.47 182.679 133.018C182.679 135.565 180.614 137.631 178.066 137.631H168.839V137.635C166.381 137.736 164.418 139.761 164.418 142.244C164.418 144.728 166.381 146.753 168.839 146.854V146.858H245.728C248.276 146.858 250.341 148.923 250.341 151.471C250.341 154.019 248.276 156.084 245.728 156.084H146.926C144.378 156.084 142.312 154.019 142.312 151.471C142.312 148.923 144.378 146.858 146.926 146.858H150.386C152.934 146.858 154.999 144.792 154.999 142.244ZM5.83471 128.404C8.38281 128.404 10.448 130.47 10.448 133.018C10.448 135.565 8.38281 137.631 5.83471 137.631H-54.1386C-56.6863 137.631 -58.752 135.565 -58.752 133.018C-58.752 130.47 -56.6863 128.404 -54.1386 128.404H5.83471ZM260.337 128.404C262.885 128.404 264.95 130.47 264.95 133.018C264.95 135.565 262.885 137.631 260.337 137.631H200.364C197.816 137.631 195.75 135.565 195.75 133.018C195.75 130.47 197.816 128.404 200.364 128.404H260.337Z" fill="#356CEE"/>
</g>
<mask id="mask3_178_2296" style="mask-type:alpha" maskUnits="userSpaceOnUse" x="0" y="0" width="173" height="173">
<path d="M86.5 173C134.273 173 173 134.273 173 86.5C173 38.7274 134.273 0 86.5 0C38.7274 0 0 38.7274 0 86.5C0 134.273 38.7274 173 86.5 173Z" fill="white"/>
</mask>
<g mask="url(#mask3_178_2296)">
<path d="M56.9657 105.338C56.9657 102.79 54.9004 100.724 52.3523 100.724H45.0479C42.5002 100.724 40.4346 98.6586 40.4346 96.1109C40.4346 93.5632 42.5002 91.4976 45.0479 91.4976H75.419C77.9671 91.4976 80.0323 93.5632 80.0323 96.1109C80.0323 98.6586 77.9671 100.724 75.419 100.724H74.2657V100.728C71.8072 100.829 69.8446 102.854 69.8446 105.338C69.8446 107.821 71.8072 109.846 74.2657 109.947V109.951H75.419C77.9671 109.951 80.0323 112.017 80.0323 114.564C80.0323 117.112 77.9671 119.178 75.419 119.178H51.9679C49.4202 119.178 47.3546 117.112 47.3546 114.564C47.3546 112.017 49.4202 109.951 51.9679 109.951H52.3523C54.9004 109.951 56.9657 107.885 56.9657 105.338Z" fill="#2255CA"/>
</g>
<mask id="mask4_178_2296" style="mask-type:alpha" maskUnits="userSpaceOnUse" x="0" y="0" width="173" height="173">
<path d="M86.5 173C134.273 173 173 134.273 173 86.5C173 38.7274 134.273 0 86.5 0C38.7274 0 0 38.7274 0 86.5C0 134.273 38.7274 173 86.5 173Z" fill="white"/>
</mask>
<g mask="url(#mask4_178_2296)">
<path opacity="0.078" d="M86.5 4.229H169.292V168.771H86.5V4.229Z" fill="black"/>
</g>
</g>
<defs>
<clipPath id="clip0_178_2296">
<rect width="173" height="173" fill="white"/>
</clipPath>
</defs>
</svg>
