<svg width="213" height="213" viewBox="0 0 213 213" fill="none" xmlns="http://www.w3.org/2000/svg">
<g clip-path="url(#clip0_178_1986)">
<path d="M106.5 213C165.318 213 213 165.318 213 106.5C213 47.6817 165.318 0 106.5 0C47.6817 0 0 47.6817 0 106.5C0 165.318 47.6817 213 106.5 213Z" fill="#FF6A45"/>
<mask id="mask0_178_1986" style="mask-type:alpha" maskUnits="userSpaceOnUse" x="0" y="0" width="213" height="213">
<path d="M106.5 213C165.318 213 213 165.318 213 106.5C213 47.6817 165.318 0 106.5 0C47.6817 0 0 47.6817 0 106.5C0 165.318 47.6817 213 106.5 213Z" fill="white"/>
</mask>
<g mask="url(#mask0_178_1986)">
<path d="M64.6606 22.8214C64.6606 18.6204 61.2545 15.2143 57.0534 15.2143H34.8659C30.6649 15.2143 27.2588 11.8082 27.2588 7.60714C27.2588 3.4061 30.6649 0 34.8659 0H133.759C137.96 0 141.366 3.4061 141.366 7.60714C141.366 11.8082 137.96 15.2143 133.759 15.2143H98.2588L98.2582 15.2206C94.2042 15.3873 90.9686 18.7262 90.9686 22.8214C90.9686 26.9166 94.2042 30.2555 98.2588 30.4222V30.4286H106.5C110.701 30.4286 114.107 33.8347 114.107 38.0357C114.107 42.2368 110.701 45.6429 106.5 45.6429H25.9909C21.7899 45.6429 18.3838 42.2368 18.3838 38.0357C18.3838 33.8347 21.7899 30.4286 25.9909 30.4286H57.0534C61.2545 30.4286 64.6606 27.0225 64.6606 22.8214ZM173.696 30.4286C177.897 30.4286 181.303 33.8347 181.303 38.0357C181.303 42.2368 177.897 45.6429 173.696 45.6429H170.527C166.326 45.6429 162.92 42.2368 162.92 38.0357C162.92 33.8347 166.326 30.4286 170.527 30.4286H173.696Z" fill="#FF9B6B"/>
</g>
<mask id="mask1_178_1986" style="mask-type:alpha" maskUnits="userSpaceOnUse" x="0" y="0" width="213" height="213">
<path d="M106.5 213C165.318 213 213 165.318 213 106.5C213 47.6817 165.318 0 106.5 0C47.6817 0 0 47.6817 0 106.5C0 165.318 47.6817 213 106.5 213Z" fill="white"/>
</mask>
<g mask="url(#mask1_178_1986)">
<path d="M132.491 205.393C132.491 201.192 129.085 197.786 124.884 197.786H102.696C98.495 197.786 95.0889 194.379 95.0889 190.178C95.0889 185.977 98.495 182.571 102.696 182.571H201.589C205.79 182.571 209.196 185.977 209.196 190.178C209.196 194.379 205.79 197.786 201.589 197.786H166.089L166.088 197.792C162.034 197.959 158.799 201.298 158.799 205.393C158.799 209.488 162.034 212.827 166.088 212.994V213H174.33C178.531 213 181.937 216.406 181.937 220.607C181.937 224.808 178.531 228.214 174.33 228.214H93.821C89.62 228.214 86.2139 224.808 86.2139 220.607C86.2139 216.406 89.62 213 93.821 213H124.884C129.085 213 132.491 209.594 132.491 205.393ZM241.526 213C245.727 213 249.134 216.406 249.134 220.607C249.134 224.808 245.727 228.214 241.526 228.214H238.357C234.156 228.214 230.75 224.808 230.75 220.607C230.75 216.406 234.156 213 238.357 213H241.526Z" fill="#FF9B6B"/>
</g>
<mask id="mask2_178_1986" style="mask-type:alpha" maskUnits="userSpaceOnUse" x="0" y="0" width="213" height="213">
<path d="M106.5 213C165.318 213 213 165.318 213 106.5C213 47.6817 165.318 0 106.5 0C47.6817 0 0 47.6817 0 106.5C0 165.318 47.6817 213 106.5 213Z" fill="white"/>
</mask>
<g mask="url(#mask2_178_1986)">
<path d="M137.562 167.357C141.763 167.357 145.169 170.763 145.169 174.965C145.169 179.166 141.763 182.572 137.562 182.572H98.2586C94.0576 182.572 90.6515 179.166 90.6515 174.965C90.6515 170.763 94.0576 167.357 98.2586 167.357H137.562ZM63.3926 167.357C67.5936 167.357 70.9997 170.763 70.9997 174.965C70.9997 179.166 67.5936 182.572 63.3926 182.572H50.714C46.513 182.572 43.1069 179.166 43.1069 174.965C43.1069 170.763 46.513 167.357 50.714 167.357H63.3926ZM166.723 106.5C170.924 106.5 174.33 109.906 174.33 114.107C174.33 118.308 170.924 121.714 166.723 121.714H70.9997L70.9991 121.721C66.9451 121.888 63.7095 125.226 63.7095 129.322C63.7095 133.417 66.9451 136.756 70.9991 136.922L70.9997 136.929H83.0444C87.2454 136.929 90.6515 140.335 90.6515 144.536C90.6515 148.737 87.2454 152.143 83.0444 152.143H6.97293C2.77189 152.143 -0.634209 148.737 -0.634209 144.536C-0.634209 140.335 2.77189 136.929 6.97293 136.929H27.2586C31.4597 136.929 34.8658 133.523 34.8658 129.322C34.8658 125.121 31.4597 121.714 27.2586 121.714H-13.3128C-17.5138 121.714 -20.9199 118.308 -20.9199 114.107C-20.9199 109.906 -17.5138 106.5 -13.3128 106.5H166.723ZM133.759 136.929C137.96 136.929 141.366 140.335 141.366 144.536C141.366 148.737 137.96 152.143 133.759 152.143H121.08C116.879 152.143 113.473 148.737 113.473 144.536C113.473 140.335 116.879 136.929 121.08 136.929H133.759ZM88.1158 45.6431C92.3168 45.6431 95.7229 49.0492 95.7229 53.2502C95.7229 57.4513 92.3168 60.8574 88.1158 60.8574H62.7586C58.5576 60.8574 55.1515 57.4513 55.1515 53.2502C55.1515 49.0492 58.5576 45.6431 62.7586 45.6431H88.1158ZM220.607 45.6431C224.808 45.6431 228.214 49.0492 228.214 53.2502C228.214 57.4513 224.808 60.8574 220.607 60.8574H195.25C191.049 60.8574 187.643 57.4513 187.643 53.2502C187.643 49.0492 191.049 45.6431 195.25 45.6431H220.607Z" fill="#D04237"/>
</g>
<mask id="mask3_178_1986" style="mask-type:alpha" maskUnits="userSpaceOnUse" x="0" y="0" width="213" height="213">
<path d="M106.5 213C165.318 213 213 165.318 213 106.5C213 47.6817 165.318 0 106.5 0C47.6817 0 0 47.6817 0 106.5C0 165.318 47.6817 213 106.5 213Z" fill="white"/>
</mask>
<g mask="url(#mask3_178_1986)">
<path opacity="0.078" d="M107.134 -10.1431H223.777V223.143H107.134V-10.1431Z" fill="black"/>
</g>
</g>
<defs>
<clipPath id="clip0_178_1986">
<rect width="213" height="213" fill="white"/>
</clipPath>
</defs>
</svg>
