<svg width="173" height="173" viewBox="0 0 173 173" fill="none" xmlns="http://www.w3.org/2000/svg">
<circle cx="86.5" cy="86.5" r="86.5" fill="#545BFE"/>
<mask id="mask0_184_3087" style="mask-type:alpha" maskUnits="userSpaceOnUse" x="0" y="0" width="173" height="173">
<circle cx="86.5" cy="86.5" r="86.5" fill="white"/>
</mask>
<g mask="url(#mask0_184_3087)">
<path fill-rule="evenodd" clip-rule="evenodd" d="M72.2751 10.3799C72.2751 7.83206 70.2096 5.7666 67.6618 5.7666H-11.1494C-13.6972 5.7666 -15.7627 7.83206 -15.7627 10.3799C-15.7627 12.9278 -13.6972 14.9933 -11.1494 14.9933H7.30397C9.85184 14.9933 11.9173 17.0587 11.9173 19.6066C11.9173 22.1545 9.85184 24.2199 7.30397 24.2199H4.9973C2.44943 24.2199 0.383972 26.2854 0.383972 28.8333C0.383972 31.3811 2.44943 33.4466 4.9973 33.4466H3.45953C6.0074 33.4466 8.07286 35.5121 8.07286 38.0599C8.07286 40.6078 6.0074 42.6733 3.45953 42.6733H-0.384918C-2.93279 42.6733 -4.99825 44.7387 -4.99825 47.2866C-4.99825 49.8345 -2.93279 51.8999 -0.384918 51.8999H45.364C47.9118 51.8999 49.9773 49.8345 49.9773 47.2866C49.9773 44.7387 47.9118 42.6733 45.364 42.6733H43.4417L43.4418 42.6693C40.9831 42.5685 39.0207 40.5434 39.0207 38.0599C39.0207 35.5765 40.9831 33.5514 43.4418 33.4505L43.4417 33.4466H69.9684C72.5163 33.4466 74.5817 31.3811 74.5817 28.8333C74.5817 26.2854 72.5163 24.2199 69.9684 24.2199H67.2773L67.2773 24.216C64.8186 24.1152 62.8563 22.0901 62.8563 19.6066C62.8563 17.1232 64.8186 15.098 67.2773 14.9972L67.2773 14.9933H67.6618C70.2096 14.9933 72.2751 12.9278 72.2751 10.3799ZM37.6751 61.1266C40.223 61.1266 42.2884 63.1921 42.2884 65.7399C42.2884 68.2878 40.223 70.3533 37.6751 70.3533C35.1272 70.3533 33.0618 68.2878 33.0618 65.7399C33.0618 63.1921 35.1272 61.1266 37.6751 61.1266ZM23.4506 74.9666C23.4506 72.4187 21.3852 70.3533 18.8373 70.3533H5.38175C2.83388 70.3533 0.768417 72.4187 0.768417 74.9666C0.768417 77.5145 2.83388 79.5799 5.38175 79.5799H18.8373C21.3852 79.5799 23.4506 77.5145 23.4506 74.9666ZM56.1284 130.327C56.1284 132.874 54.063 134.94 51.5151 134.94H53.4373C50.8894 134.94 48.824 137.005 48.824 139.553C48.824 142.101 50.8894 144.167 53.4373 144.167H64.5862C67.1341 144.167 69.1995 142.101 69.1995 139.553C69.1995 137.005 67.1341 134.94 64.5862 134.94H66.124V134.936C63.6653 134.835 61.703 132.81 61.703 130.327C61.703 127.843 63.6653 125.818 66.124 125.717V125.713H76.504C79.0518 125.713 81.1173 123.648 81.1173 121.1C81.1173 118.552 79.0518 116.487 76.504 116.487L76.504 116.483C74.0453 116.382 72.083 114.357 72.083 111.873C72.083 109.39 74.0453 107.365 76.504 107.264L76.504 107.26H78.8106C81.3585 107.26 83.424 105.194 83.424 102.647C83.424 100.099 81.3585 98.0333 78.8106 98.0333H59.204V98.0293C56.7453 97.9285 54.783 95.9034 54.783 93.4199C54.783 90.9365 56.7453 88.9114 59.204 88.8105V88.8066H58.4351C60.983 88.8066 63.0484 86.7411 63.0484 84.1933C63.0484 81.6454 60.983 79.5799 58.4351 79.5799H39.5973C37.0494 79.5799 34.984 81.6454 34.984 84.1933C34.984 86.7411 37.0494 88.8066 39.5973 88.8066C42.1452 88.8066 44.2106 90.8721 44.2106 93.4199C44.2106 95.9678 42.1452 98.0333 39.5973 98.0333C37.0494 98.0333 34.984 100.099 34.984 102.647C34.984 105.194 37.0494 107.26 39.5973 107.26H43.4417C45.9896 107.26 48.0551 109.325 48.0551 111.873C48.0551 114.421 45.9896 116.487 43.4417 116.487H44.2106C41.6628 116.487 39.5973 118.552 39.5973 121.1C39.5973 123.648 41.6628 125.713 44.2106 125.713H51.5151C54.063 125.713 56.1284 127.779 56.1284 130.327Z" fill="#4FCDF9"/>
</g>
<mask id="mask1_184_3087" style="mask-type:alpha" maskUnits="userSpaceOnUse" x="0" y="0" width="173" height="173">
<circle cx="86.5" cy="86.5" r="86.5" fill="white"/>
</mask>
<g mask="url(#mask1_184_3087)">
<path fill-rule="evenodd" clip-rule="evenodd" d="M162.236 19.6065C162.236 17.0586 160.17 14.9932 157.623 14.9932H148.396C145.848 14.9932 143.783 17.0586 143.783 19.6065C143.783 22.1544 145.848 24.2198 148.396 24.2198H157.623C160.17 24.2198 162.236 22.1544 162.236 19.6065ZM253.734 24.2198C256.282 24.2198 258.347 26.2853 258.347 28.8332C258.347 31.381 256.282 33.4465 253.734 33.4465H251.043L251.043 33.4504C248.584 33.5513 246.622 35.5764 246.622 38.0598C246.622 40.5433 248.584 42.5684 251.043 42.6692L251.043 42.6732H257.194C259.742 42.6732 261.807 44.7386 261.807 47.2865C261.807 49.8344 259.742 51.8998 257.194 51.8998H190.3C187.752 51.8998 185.687 49.8344 185.687 47.2865C185.687 44.7386 187.752 42.6732 190.3 42.6732H188.378C190.926 42.6732 192.991 40.6077 192.991 38.0598C192.991 35.512 190.926 33.4465 188.378 33.4465H172.616C170.068 33.4465 168.003 31.381 168.003 28.8332C168.003 26.2853 170.068 24.2198 172.616 24.2198H253.734ZM149.934 125.713C152.482 125.713 154.547 123.648 154.547 121.1C154.547 118.552 152.482 116.486 149.934 116.486C147.386 116.486 145.32 114.421 145.32 111.873C145.32 109.325 147.386 107.26 149.934 107.26H148.78C151.328 107.26 153.394 105.194 153.394 102.646C153.394 100.099 151.328 98.0332 148.78 98.0332H131.48C128.932 98.0332 126.867 95.9677 126.867 93.4198C126.867 90.872 128.932 88.8065 131.48 88.8065C134.028 88.8065 136.094 86.741 136.094 84.1932C136.094 81.6453 134.028 79.5798 131.48 79.5798H118.409C115.861 79.5798 113.796 77.5144 113.796 74.9665C113.796 72.4186 115.861 70.3532 118.409 70.3532H128.405C130.953 70.3532 133.018 68.2877 133.018 65.7398C133.018 63.192 130.953 61.1265 128.405 61.1265C125.857 61.1265 123.791 59.061 123.791 56.5132C123.791 53.9653 125.857 51.8998 128.405 51.8998H149.934C152.482 51.8998 154.547 53.9653 154.547 56.5132C154.547 59.061 152.482 61.1265 149.934 61.1265L149.933 61.1304C147.475 61.2315 145.513 63.2565 145.513 65.7398C145.513 68.2232 147.475 70.2482 149.933 70.3492L149.934 70.3532H184.918C187.466 70.3532 189.531 72.4186 189.531 74.9665C189.531 77.5144 187.466 79.5798 184.918 79.5798H177.229L177.229 79.5838C174.771 79.6846 172.808 81.7097 172.808 84.1932C172.808 86.6766 174.771 88.7017 177.229 88.8026L177.229 88.8065H181.074C183.622 88.8065 185.687 90.872 185.687 93.4198C185.687 95.9677 183.622 98.0332 181.074 98.0332H175.307L175.307 98.0371C172.848 98.1381 170.886 100.163 170.886 102.646C170.886 105.13 172.848 107.155 175.307 107.256L175.307 107.26H174.538C177.086 107.26 179.151 109.325 179.151 111.873C179.151 114.421 177.086 116.486 174.538 116.486H166.849L166.849 116.49C164.391 116.591 162.428 118.616 162.428 121.1C162.428 123.583 164.391 125.608 166.849 125.709L166.849 125.713H165.311C167.859 125.713 169.925 127.779 169.925 130.326C169.925 132.874 167.859 134.94 165.311 134.94H151.471C148.924 134.94 146.858 132.874 146.858 130.326C146.858 127.779 148.924 125.713 151.471 125.713H149.934ZM184.534 116.486C187.082 116.486 189.147 118.552 189.147 121.1C189.147 123.648 187.082 125.713 184.534 125.713C181.986 125.713 179.92 123.648 179.92 121.1C179.92 118.552 181.986 116.486 184.534 116.486ZM182.227 56.5132C182.227 53.9653 180.162 51.8998 177.614 51.8998H172.231C169.684 51.8998 167.618 53.9653 167.618 56.5132C167.618 59.061 169.684 61.1265 172.231 61.1265H177.614C180.162 61.1265 182.227 59.061 182.227 56.5132ZM142.629 38.0598C142.629 35.512 140.564 33.4465 138.016 33.4465H128.789C126.241 33.4465 124.176 35.512 124.176 38.0598C124.176 40.6077 126.241 42.6732 128.789 42.6732H138.016C140.564 42.6732 142.629 40.6077 142.629 38.0598ZM152.625 33.4465C155.173 33.4465 157.238 35.512 157.238 38.0598C157.238 40.6077 155.173 42.6732 152.625 42.6732H151.471C148.924 42.6732 146.858 40.6077 146.858 38.0598C146.858 35.512 148.924 33.4465 151.471 33.4465H152.625Z" fill="#4FCDF9"/>
</g>
<mask id="mask2_184_3087" style="mask-type:alpha" maskUnits="userSpaceOnUse" x="0" y="0" width="173" height="173">
<circle cx="86.5" cy="86.5" r="86.5" fill="white"/>
</mask>
<g mask="url(#mask2_184_3087)">
<path fill-rule="evenodd" clip-rule="evenodd" d="M118.024 19.6068C118.024 17.0589 115.959 14.9935 113.411 14.9935H67.2774C64.7295 14.9935 62.6641 12.928 62.6641 10.3801C62.6641 7.83227 64.7295 5.76681 67.2774 5.76681H86.1152C88.663 5.76681 90.7285 3.70135 90.7285 1.15347C90.7285 -1.3944 88.663 -3.45986 86.1152 -3.45986H79.9641C77.4162 -3.45986 75.3507 -5.52532 75.3507 -8.07319C75.3507 -10.6211 77.4162 -12.6865 79.9641 -12.6865H103.8C106.347 -12.6865 108.413 -10.6211 108.413 -8.07319C108.413 -5.52532 106.347 -3.45986 103.8 -3.45986H104.569L104.569 -3.45593C102.11 -3.35523 100.147 -1.33006 100.147 1.15347C100.147 3.63701 102.11 5.66218 104.569 5.76288L104.569 5.76681H166.08C168.627 5.76681 170.693 7.83227 170.693 10.3801C170.693 12.928 168.627 14.9935 166.08 14.9935H139.937L139.937 14.9974C137.479 15.0984 135.516 17.1235 135.516 19.6068C135.516 22.0901 137.479 24.1152 139.937 24.2162L139.937 24.2201H141.091C143.639 24.2201 145.704 26.2856 145.704 28.8335C145.704 31.3814 143.639 33.4468 141.091 33.4468H111.873C109.325 33.4468 107.26 31.3814 107.26 28.8335C107.26 26.2856 109.325 24.2201 111.873 24.2201H113.411C115.959 24.2201 118.024 22.1547 118.024 19.6068ZM158.775 42.6735C161.323 42.6735 163.389 44.7389 163.389 47.2868C163.389 49.8347 161.323 51.9001 158.775 51.9001H134.94C132.392 51.9001 130.326 49.8347 130.326 47.2868C130.326 44.7389 132.392 42.6735 134.94 42.6735H158.775ZM171.846 28.8335C171.846 26.2856 169.781 24.2201 167.233 24.2201H159.544C156.996 24.2201 154.931 26.2856 154.931 28.8335C154.931 31.3814 156.996 33.4468 159.544 33.4468H167.233C169.781 33.4468 171.846 31.3814 171.846 28.8335ZM93.4196 24.2201C95.9675 24.2201 98.033 26.2856 98.033 28.8335C98.033 31.3814 95.9675 33.4468 93.4196 33.4468H85.7307C83.1829 33.4468 81.1174 31.3814 81.1174 28.8335C81.1174 26.2856 83.1829 24.2201 85.7307 24.2201H93.4196ZM186.84 -8.07319C186.84 -10.6211 184.774 -12.6865 182.226 -12.6865H122.253C119.705 -12.6865 117.64 -10.6211 117.64 -8.07319C117.64 -5.52532 119.705 -3.45986 122.253 -3.45986H182.226C184.774 -3.45986 186.84 -5.52532 186.84 -8.07319Z" fill="white"/>
</g>
<mask id="mask3_184_3087" style="mask-type:alpha" maskUnits="userSpaceOnUse" x="0" y="0" width="173" height="173">
<circle cx="86.5" cy="86.5" r="86.5" fill="white"/>
</mask>
<g mask="url(#mask3_184_3087)">
<path fill-rule="evenodd" clip-rule="evenodd" d="M32.6774 134.94C35.2253 134.94 37.2908 137.005 37.2908 139.553C37.2908 142.101 35.2253 144.166 32.6774 144.166H31.1397C28.5918 144.166 26.5263 146.232 26.5263 148.78C26.5263 151.328 28.5918 153.393 31.1397 153.393H60.3574C62.9053 153.393 64.9708 151.328 64.9708 148.78C64.9708 146.232 62.9053 144.166 60.3574 144.166H59.2041L59.2037 144.162C56.7452 144.061 54.7831 142.036 54.7831 139.553C54.7831 137.07 56.7452 135.045 59.2037 134.944L59.2041 134.94H69.1996C71.7475 134.94 73.813 132.874 73.813 130.326C73.813 127.779 71.7475 125.713 69.1996 125.713H63.8174L63.8176 125.709C61.3588 125.608 59.3963 123.583 59.3963 121.1C59.3963 118.616 61.3588 116.591 63.8176 116.49L63.8174 116.486H81.8863C84.4342 116.486 86.4996 114.421 86.4996 111.873C86.4996 109.325 84.4342 107.26 81.8863 107.26H36.5219C33.974 107.26 31.9085 109.325 31.9085 111.873C31.9085 114.421 33.974 116.486 36.5219 116.486H45.3641C47.912 116.486 49.9774 118.552 49.9774 121.1C49.9774 123.648 47.912 125.713 45.3641 125.713H6.53521C3.98733 125.713 1.92188 127.779 1.92188 130.326C1.92188 132.874 3.98733 134.94 6.53521 134.94H32.6774ZM99.9552 130.326C99.9552 127.779 97.8898 125.713 95.3419 125.713H87.653C85.1051 125.713 83.0397 127.779 83.0397 130.326C83.0397 132.874 85.1051 134.94 87.653 134.94H95.3419C97.8898 134.94 99.9552 132.874 99.9552 130.326Z" fill="white"/>
</g>
<mask id="mask4_184_3087" style="mask-type:alpha" maskUnits="userSpaceOnUse" x="0" y="0" width="173" height="173">
<circle cx="86.5" cy="86.5" r="86.5" fill="white"/>
</mask>
<g mask="url(#mask4_184_3087)">
<path fill-rule="evenodd" clip-rule="evenodd" d="M129.557 171.846C132.105 171.846 134.171 173.912 134.171 176.46C134.171 179.008 132.105 181.073 129.557 181.073H128.02C125.472 181.073 123.406 183.139 123.406 185.687C123.406 188.234 125.472 190.3 128.02 190.3H157.237C159.785 190.3 161.851 188.234 161.851 185.687C161.851 183.139 159.785 181.073 157.237 181.073H156.084L156.084 181.069C153.625 180.968 151.663 178.943 151.663 176.46C151.663 173.977 153.625 171.951 156.084 171.85L156.084 171.846H166.08C168.627 171.846 170.693 169.781 170.693 167.233C170.693 164.685 168.627 162.62 166.08 162.62H160.697L160.697 162.616C158.239 162.515 156.276 160.49 156.276 158.007C156.276 155.523 158.239 153.498 160.697 153.397L160.697 153.393H178.766C181.314 153.393 183.38 151.328 183.38 148.78C183.38 146.232 181.314 144.167 178.766 144.167H133.402C130.854 144.167 128.788 146.232 128.788 148.78C128.788 151.328 130.854 153.393 133.402 153.393H142.244C144.792 153.393 146.857 155.459 146.857 158.007C146.857 160.554 144.792 162.62 142.244 162.62H103.415C100.867 162.62 98.8018 164.685 98.8018 167.233C98.8018 169.781 100.867 171.846 103.415 171.846H129.557ZM196.835 167.233C196.835 164.685 194.77 162.62 192.222 162.62H184.533C181.985 162.62 179.92 164.685 179.92 167.233C179.92 169.781 181.985 171.846 184.533 171.846H192.222C194.77 171.846 196.835 169.781 196.835 167.233Z" fill="white"/>
</g>
<mask id="mask5_184_3087" style="mask-type:alpha" maskUnits="userSpaceOnUse" x="0" y="0" width="173" height="173">
<circle cx="86.5" cy="86.5" r="86.5" fill="white"/>
</mask>
<g mask="url(#mask5_184_3087)">
<rect opacity="0.0775757" x="86.6855" y="-9.61133" width="96.297" height="192.222" fill="black"/>
</g>
<path fill-rule="evenodd" clip-rule="evenodd" d="M86.5 170.309C132.774 170.309 170.289 132.806 170.309 86.536V86.4637C170.289 40.1939 132.774 2.69092 86.5 2.69092V170.309Z" fill="#2A2D80"/>
<mask id="mask6_184_3087" style="mask-type:alpha" maskUnits="userSpaceOnUse" x="86" y="2" width="85" height="169">
<path fill-rule="evenodd" clip-rule="evenodd" d="M86.5 170.309C132.774 170.309 170.289 132.806 170.309 86.536V86.4637C170.289 40.1939 132.774 2.69092 86.5 2.69092V170.309Z" fill="white"/>
</mask>
<g mask="url(#mask6_184_3087)">
<circle cx="87.0766" cy="87.0766" r="80.1567" fill="#952525"/>
<circle cx="87.269" cy="86.5" r="68.4311" fill="#E0592F"/>
<circle cx="87.2693" cy="86.4998" r="41.1356" fill="#F89035"/>
<circle cx="86.884" cy="86.8845" r="19.6067" fill="#FFF1AA"/>
</g>
</svg>
