<svg width="184" height="184" viewBox="0 0 184 184" fill="none" xmlns="http://www.w3.org/2000/svg">
<g clip-path="url(#clip0_178_1977)">
<path d="M92 184C142.81 184 184 142.81 184 92C184 41.1898 142.81 0 92 0C41.1898 0 0 41.1898 0 92C0 142.81 41.1898 184 92 184Z" fill="#DEF4FC"/>
<mask id="mask0_178_1977" style="mask-type:alpha" maskUnits="userSpaceOnUse" x="0" y="0" width="184" height="184">
<path d="M92 184C142.81 184 184 142.81 184 92C184 41.1898 142.81 0 92 0C41.1898 0 0 41.1898 0 92C0 142.81 41.1898 184 92 184Z" fill="white"/>
</mask>
<g mask="url(#mask0_178_1977)">
<path d="M97.7104 160.524C101.915 160.524 105.324 163.933 105.324 168.138C105.324 172.342 101.915 175.751 97.7104 175.751H85.0208C80.8161 175.751 77.407 172.342 77.407 168.138C77.407 163.933 80.8161 160.524 85.0208 160.524H97.7104ZM152.276 130.069C156.481 130.069 159.89 133.478 159.89 137.683C159.89 141.887 156.481 145.296 152.276 145.296H112.938C108.733 145.296 105.324 141.887 105.324 137.683C105.324 133.478 108.733 130.069 112.938 130.069H152.276ZM82.4829 130.069C86.6876 130.069 90.0967 133.478 90.0967 137.683C90.0967 141.887 86.6876 145.296 82.4829 145.296C78.2781 145.296 74.8691 141.887 74.8691 137.683C74.8691 133.478 78.2781 130.069 82.4829 130.069ZM53.9311 91.9998C53.9311 87.7951 50.5221 84.386 46.3173 84.386H1.26907C-2.93565 84.386 -6.34473 80.9769 -6.34473 76.7722C-6.34473 72.5675 -2.93565 69.1584 1.26907 69.1584H32.3587C36.5634 69.1584 39.9725 65.7493 39.9725 61.5446C39.9725 57.3399 36.5634 53.9308 32.3587 53.9308H29.1863C24.9816 53.9308 21.5725 50.5217 21.5725 46.317C21.5725 42.1123 24.9816 38.7032 29.1863 38.7032H75.5035C79.7083 38.7032 83.1173 42.1123 83.1173 46.317C83.1173 50.5217 79.7083 53.9308 75.5035 53.9308H62.8139V53.9372C58.7564 54.1034 55.5173 57.4458 55.5173 61.5446C55.5173 65.6434 58.7564 68.9858 62.8139 69.152V69.1584H91.3656C95.5703 69.1584 98.9794 72.5675 98.9794 76.7722C98.9794 80.9769 95.5703 84.386 91.3656 84.386H90.0967L90.096 84.3923C86.0385 84.5592 82.8001 87.901 82.8001 91.9998C82.8001 96.0985 86.0385 99.4404 90.096 99.6072L90.0967 99.6136H123.09C127.294 99.6136 130.704 103.023 130.704 107.227C130.704 111.432 127.294 114.841 123.09 114.841H44.4139C40.2092 114.841 36.8001 111.432 36.8001 107.227C36.8001 103.023 40.2092 99.6136 44.4139 99.6136H46.3173C50.5221 99.6136 53.9311 96.2045 53.9311 91.9998ZM155.448 99.6136C159.653 99.6136 163.062 103.023 163.062 107.227C163.062 111.432 159.653 114.841 155.448 114.841C151.244 114.841 147.835 111.432 147.835 107.227C147.835 103.023 151.244 99.6136 155.448 99.6136ZM13.9587 99.6136C18.1634 99.6136 21.5725 103.023 21.5725 107.227C21.5725 111.432 18.1634 114.841 13.9587 114.841H1.26907C-2.93565 114.841 -6.34473 111.432 -6.34473 107.227C-6.34473 103.023 -2.93565 99.6136 1.26907 99.6136H13.9587ZM140.221 38.7032C144.426 38.7032 147.835 42.1123 147.835 46.317C147.835 50.5217 144.426 53.9308 140.221 53.9308H127.531C123.326 53.9308 119.917 50.5217 119.917 46.317C119.917 42.1123 123.326 38.7032 127.531 38.7032H140.221ZM155.448 8.24805C159.653 8.24805 163.062 11.6571 163.062 15.8618C163.062 20.0666 159.653 23.4756 155.448 23.4756H118.648C114.444 23.4756 111.035 20.0666 111.035 15.8618C111.035 11.6571 114.444 8.24805 118.648 8.24805H155.448Z" fill="#B1D5E2"/>
</g>
<mask id="mask1_178_1977" style="mask-type:alpha" maskUnits="userSpaceOnUse" x="0" y="0" width="184" height="184">
<path d="M92 184C142.81 184 184 142.81 184 92C184 41.1898 142.81 0 92 0C41.1898 0 0 41.1898 0 92C0 142.81 41.1898 184 92 184Z" fill="white"/>
</mask>
<g mask="url(#mask1_178_1977)">
<path opacity="0.078" d="M92.6348 0H184.635V184H92.6348V0Z" fill="black"/>
</g>
</g>
<defs>
<clipPath id="clip0_178_1977">
<rect width="184" height="184" fill="white"/>
</clipPath>
</defs>
</svg>
