<svg width="154" height="154" viewBox="0 0 154 154" fill="none" xmlns="http://www.w3.org/2000/svg">
<g clip-path="url(#clip0_178_2332)">
<path d="M77 154C119.526 154 154 119.526 154 77C154 34.4741 119.526 0 77 0C34.4741 0 0 34.4741 0 77C0 119.526 34.4741 154 77 154Z" fill="#F7CC7F"/>
<mask id="mask0_178_2332" style="mask-type:alpha" maskUnits="userSpaceOnUse" x="0" y="0" width="154" height="154">
<path d="M77 154C119.526 154 154 119.526 154 77C154 34.4741 119.526 0 77 0C34.4741 0 0 34.4741 0 77C0 119.526 34.4741 154 77 154Z" fill="white"/>
</mask>
<g mask="url(#mask0_178_2332)">
<path d="M119.35 119.735C121.901 119.735 123.97 121.804 123.97 124.355C123.97 126.906 121.901 128.975 119.35 128.975H72.7647L72.7643 128.979C70.3023 129.08 68.3372 131.108 68.3372 133.595C68.3372 136.082 70.3023 138.11 72.7643 138.211L72.7647 138.215H73.9197C76.4711 138.215 78.5397 140.284 78.5397 142.835C78.5397 145.386 76.4711 147.455 73.9197 147.455H44.6597C42.1083 147.455 40.0397 145.386 40.0397 142.835C40.0397 140.284 42.1083 138.215 44.6597 138.215H46.1997C48.7511 138.215 50.8197 136.146 50.8197 133.595C50.8197 131.044 48.7511 128.975 46.1997 128.975H30.4147C27.8633 128.975 25.7947 126.906 25.7947 124.355C25.7947 121.804 27.8633 119.735 30.4147 119.735H119.35ZM111.65 64.295C114.201 64.295 116.27 66.3636 116.27 68.915C116.27 71.4664 114.201 73.535 111.65 73.535H104.335V73.5388C101.873 73.6401 99.9072 75.6679 99.9072 78.155C99.9072 80.6421 101.873 82.6699 104.335 82.7711V82.775H135.135C137.686 82.775 139.755 84.8436 139.755 87.395C139.755 89.9464 137.686 92.015 135.135 92.015H127.435L127.434 92.0188C124.972 92.1201 123.007 94.1479 123.007 96.635C123.007 99.1221 124.972 101.15 127.434 101.251L127.435 101.255H127.82C130.371 101.255 132.44 103.324 132.44 105.875C132.44 108.426 130.371 110.495 127.82 110.495H98.5597C96.0083 110.495 93.9397 108.426 93.9397 105.875C93.9397 103.324 96.0083 101.255 98.5597 101.255H100.87C103.421 101.255 105.49 99.1864 105.49 96.635C105.49 94.0836 103.421 92.015 100.87 92.015H46.1997C43.6483 92.015 41.5797 89.9464 41.5797 87.395C41.5797 84.8436 43.6483 82.775 46.1997 82.775H49.6647C52.2161 82.775 54.2847 80.7064 54.2847 78.155C54.2847 75.6036 52.2161 73.535 49.6647 73.535H22.7147C20.1633 73.535 18.0947 71.4664 18.0947 68.915C18.0947 66.3636 20.1633 64.295 22.7147 64.295H111.65ZM45.0447 101.255C47.5961 101.255 49.6647 103.324 49.6647 105.875C49.6647 108.426 47.5961 110.495 45.0447 110.495H15.7847C13.2333 110.495 11.1647 108.426 11.1647 105.875C11.1647 103.324 13.2333 101.255 15.7847 101.255H45.0447ZM170.555 82.775C173.106 82.775 175.175 84.8436 175.175 87.395C175.175 89.9464 173.106 92.015 170.555 92.015H154.77C152.218 92.015 150.15 89.9464 150.15 87.395C150.15 84.8436 152.218 82.775 154.77 82.775H170.555ZM-3.65777 64.295C-1.10638 64.295 0.962226 66.3636 0.962226 68.915C0.962226 71.4664 -1.10638 73.535 -3.65777 73.535H-20.5978C-23.1492 73.535 -25.2178 71.4664 -25.2178 68.915C-25.2178 66.3636 -23.1492 64.295 -20.5978 64.295H-3.65777ZM107.03 45.815C109.581 45.815 111.65 47.8836 111.65 50.435C111.65 52.9864 109.581 55.055 107.03 55.055H83.1597C80.6083 55.055 78.5397 52.9864 78.5397 50.435C78.5397 47.8836 80.6083 45.815 83.1597 45.815H107.03ZM53.5147 45.815C56.0661 45.815 58.1347 47.8836 58.1347 50.435C58.1347 52.9864 56.0661 55.055 53.5147 55.055H45.8147C43.2633 55.055 41.1947 52.9864 41.1947 50.435C41.1947 47.8836 43.2633 45.815 45.8147 45.815H53.5147ZM114.345 8.85498C116.896 8.85498 118.965 10.9236 118.965 13.475C118.965 16.0264 116.896 18.095 114.345 18.095H88.1647L88.1643 18.0988C85.7023 18.2001 83.7372 20.2279 83.7372 22.715C83.7372 25.2021 85.7023 27.2299 88.1647 27.3311V27.335H89.3197C91.8711 27.335 93.9397 29.4036 93.9397 31.955C93.9397 34.5064 91.8711 36.575 89.3197 36.575H60.0597C57.5083 36.575 55.4397 34.5064 55.4397 31.955C55.4397 29.4036 57.5083 27.335 60.0597 27.335H61.5997C64.1511 27.335 66.2197 25.2664 66.2197 22.715C66.2197 20.1636 64.1511 18.095 61.5997 18.095H15.3997C12.8483 18.095 10.7797 16.0264 10.7797 13.475C10.7797 10.9236 12.8483 8.85498 15.3997 8.85498H114.345ZM115.5 27.335C118.051 27.335 120.12 29.4036 120.12 31.955C120.12 34.5064 118.051 36.575 115.5 36.575H107.8C105.248 36.575 103.18 34.5064 103.18 31.955C103.18 29.4036 105.248 27.335 107.8 27.335H115.5ZM41.5797 27.335C44.1311 27.335 46.1997 29.4036 46.1997 31.955C46.1997 34.5064 44.1311 36.575 41.5797 36.575H33.8797C31.3283 36.575 29.2597 34.5064 29.2597 31.955C29.2597 29.4036 31.3283 27.335 33.8797 27.335H41.5797Z" fill="#FFE6AE"/>
</g>
<mask id="mask1_178_2332" style="mask-type:alpha" maskUnits="userSpaceOnUse" x="0" y="0" width="154" height="154">
<path d="M77 154C119.526 154 154 119.526 154 77C154 34.4741 119.526 0 77 0C34.4741 0 0 34.4741 0 77C0 119.526 34.4741 154 77 154Z" fill="white"/>
</mask>
<g mask="url(#mask1_178_2332)">
<path d="M78.9252 101.255C81.4766 101.255 83.5452 103.324 83.5452 105.875C83.5452 108.426 81.4766 110.495 78.9252 110.495H55.0552C52.5038 110.495 50.4352 108.426 50.4352 105.875C50.4352 103.324 52.5038 101.255 55.0552 101.255H78.9252ZM38.1152 78.1549C38.1152 75.6035 36.0466 73.5349 33.4952 73.5349H0.770235C-1.78116 73.5349 -3.84977 71.4663 -3.84977 68.9149C-3.84977 66.3635 -1.78116 64.2949 0.770235 64.2949H6.16024C8.71163 64.2949 10.7802 62.2263 10.7802 59.6749C10.7802 57.1235 8.71163 55.0549 6.16024 55.0549H-5.38977C-7.94116 55.0549 -10.0098 52.9863 -10.0098 50.4349C-10.0098 47.8835 -7.94116 45.8149 -5.38977 45.8149H54.6702C57.2216 45.8149 59.2902 47.8835 59.2902 50.4349C59.2902 52.9863 57.2216 55.0549 54.6702 55.0549H24.6402V55.0588C22.1782 55.1597 20.2127 57.1878 20.2127 59.6749C20.2127 62.162 22.1782 64.1902 24.6402 64.2911V64.2949H86.2402C88.7916 64.2949 90.8602 66.3635 90.8602 68.9149C90.8602 71.4663 88.7916 73.5349 86.2402 73.5349H60.0602L60.0599 73.5388C57.5978 73.64 55.6327 75.6678 55.6327 78.1549C55.6327 80.642 57.5978 82.6698 60.0599 82.7711L60.0602 82.7749H61.2152C63.7666 82.7749 65.8352 84.8435 65.8352 87.3949C65.8352 89.9463 63.7666 92.0149 61.2152 92.0149H31.9552C29.4038 92.0149 27.3352 89.9463 27.3352 87.3949C27.3352 84.8435 29.4038 82.7749 31.9552 82.7749H33.4952C36.0466 82.7749 38.1152 80.7063 38.1152 78.1549ZM87.3952 82.7749C89.9466 82.7749 92.0152 84.8435 92.0152 87.3949C92.0152 89.9463 89.9466 92.0149 87.3952 92.0149H79.6952C77.1438 92.0149 75.0752 89.9463 75.0752 87.3949C75.0752 84.8435 77.1438 82.7749 79.6952 82.7749H87.3952ZM155.155 82.7749C157.707 82.7749 159.775 84.8435 159.775 87.3949C159.775 89.9463 157.707 92.0149 155.155 92.0149H116.27C113.719 92.0149 111.65 89.9463 111.65 87.3949C111.65 84.8435 113.719 82.7749 116.27 82.7749H155.155ZM13.4752 82.7749C16.0266 82.7749 18.0952 84.8435 18.0952 87.3949C18.0952 89.9463 16.0266 92.0149 13.4752 92.0149H5.77524C3.22384 92.0149 1.15523 89.9463 1.15523 87.3949C1.15523 84.8435 3.22384 82.7749 5.77524 82.7749H13.4752ZM133.98 64.2949C136.532 64.2949 138.6 66.3635 138.6 68.9149C138.6 71.4663 136.532 73.5349 133.98 73.5349H126.28C123.729 73.5349 121.66 71.4663 121.66 68.9149C121.66 66.3635 123.729 64.2949 126.28 64.2949H133.98Z" fill="#E29F58"/>
</g>
<mask id="mask2_178_2332" style="mask-type:alpha" maskUnits="userSpaceOnUse" x="0" y="0" width="154" height="154">
<path d="M77 154C119.526 154 154 119.526 154 77C154 34.4741 119.526 0 77 0C34.4741 0 0 34.4741 0 77C0 119.526 34.4741 154 77 154Z" fill="white"/>
</mask>
<g mask="url(#mask2_178_2332)">
<path opacity="0.078" d="M77.3848 -9.625H164.01V163.625H77.3848V-9.625Z" fill="black"/>
</g>
</g>
<defs>
<clipPath id="clip0_178_2332">
<rect width="154" height="154" fill="white"/>
</clipPath>
</defs>
</svg>
